<svg version="1.1" id="Layer_1" xmlns="http://www.w3.org/2000/svg" xmlns:xlink="http://www.w3.org/1999/xlink" x="0px" y="0px"
	 viewBox="0 0 1080 1080" style="enable-background:new 0 0 1080 1080;" xml:space="preserve">
<style type="text/css">
	.st0{fill:#DC3D3D;}
</style>
<g>
	<path class="st0" d="M441.61,856.14c-1.68-0.8-3.39-1.6-5.07-2.41c0.17,0.17,1.64,1.49,4.32,3.26c0.76,0.5,1.62,1.05,2.56,1.6
		c0.31-0.17,0.63-0.35,1-0.52c0.02-0.01,0.03-0.02,0.06-0.03C443.17,857.16,442.45,856.54,441.61,856.14z M560.86,828.95
		c0,0.01,0.01,0.01,0.01,0.02c1.24-1.11,2.48-2.25,3.74-3.42C563.35,826.69,562.1,827.82,560.86,828.95z"/>
	<path class="st0" d="M841.49,328.73c-11.8-37.95-33.93-67.89-69.33-87.07c-32.04-17.36-66.79-24.39-102.88-25.45
		c-25.83-0.76-51.3,3.11-76.74,7.11c-32,5.03-63.6,11.78-94.66,21.07c-51.16,15.31-99.34,36.83-142.84,68.1
		c-32.59,23.42-62.36,49.85-86.73,82.01c-21.81,28.78-38.25,59.92-44.62,95.93c-4.3,24.3-7.67,48.65-5.98,73.34
		c1.09,15.79,2.6,31.65,5.38,47.23c5.71,31.97,17.14,62.06,32.95,90.41c27.14,48.67,67.62,89.48,114.05,119.98
		c21.28,13.98,45.57,27.7,70.79,35.61c1.18,0.38,2.37,0.74,3.56,1.08c29.58,8.6,60.3,8.92,88.87-7.87
		c56.61-33.28,110.59-84.14,153.58-133.48c31.54-36.2,61.52-73.54,85.35-115.42c12.14-21.32,22.47-43.46,30.71-66.59
		c7.46-20.95,14.96-41.9,22.88-62.68c9.24-24.26,17.92-48.63,21.11-74.59C849.79,374.14,848.47,351.18,841.49,328.73z
		 M811.41,406.57c-3.21,25.26-12.46,48.94-19.65,73.19c-8.57,28.85-20.85,56.04-34.61,82.6c-17.79,34.34-39.06,66.48-63.27,96.69
		c-0.86,1.08-1.73,2.15-2.62,3.22c-0.81,1-1.64,2-2.47,3.01c-21.93,26.71-46.16,52.88-72.9,74.88
		c-51.22,42.15-104.97,109.4-180.04,80.27c-46.64-18.1-89.9-50.8-122.49-88.52c-30.17-34.92-48.53-75.34-56.8-120.54
		c-3.6-19.65-5.11-39.42-4.27-59.37c0.84-19.47,4.89-38.28,9.91-57.12c7.13-26.72,19.95-50.39,36.04-72.43
		c48.88-66.97,121.53-113.95,199.4-140.42c70.81-24.08,168.1-42.14,240.2-13.88c0.82,0.32,1.65,0.65,2.47,0.99
		c0.82,0.33,1.63,0.67,2.44,1.01c30.69,13.12,51.68,35.42,62.95,66.82C813.86,359.66,814.39,383.02,811.41,406.57z"/>
	<path class="st0" d="M394.81,796.62c-12.86-7.28-25.28-15.18-37.08-23.92c1.84,1.25,3.7,2.46,5.58,3.62
		C374.08,782.96,384.46,790,394.81,796.62z"/>
	<path class="st0" d="M737.84,268.14c-10.5-4.07-21.57-7.07-33.04-9.17C716.05,260.93,727.09,263.94,737.84,268.14z"/>
</g>
</svg>
