<svg version="1.1" id="Layer_1" xmlns="http://www.w3.org/2000/svg" xmlns:xlink="http://www.w3.org/1999/xlink" x="0px" y="0px"
	 viewBox="0 0 1433.42 1064.44" style="enable-background:new 0 0 1433.42 1064.44;" xml:space="preserve">
<style type="text/css">
	.st0{fill:#1A1A1A;}
</style>
<g>
	<g>
		<path class="st0" d="M224.12,171.98c-1.11,18.81-2.31,37.4-3.27,56c-5.39,104.47-10.62,208.95-16.11,313.42
			c-4.17,79.38-8.53,158.76-13.12,238.12c-0.85,14.75-4.08,29.38-4.58,44.12c-0.43,12.4,0.31,25.13,2.68,37.28
			c3.45,17.68,15.45,29,33.14,29.58c22.19,0.74,44.56-0.6,66.72-2.61c64.76-5.86,129.55-11.64,194.14-19.07
			c69.97-8.05,139.88-16.9,209.54-27.27c77.52-11.54,154.83-24.62,232.05-38.09c63-10.99,124.87-27.21,181.42-58.05
			c61.53-33.56,110.29-79.96,130.16-150.68c20.78-73.98,7.1-142.37-33.7-206.37c-44.25-69.41-108.16-111.07-184.8-135.23
			c-55.27-17.43-112.32-25.94-169.34-34.62c-62.37-9.49-124.73-19.08-187.17-28.1c-115.62-16.7-231.6-29.22-348.66-25.8
			c-27.05,0.79-54.05,3.69-81.06,5.7C229.66,170.49,227.22,171.31,224.12,171.98z"/>
	</g>
</g>
</svg>
