<svg width="587" height="9" viewBox="0 0 587 9" fill="none" xmlns="http://www.w3.org/2000/svg">
<path d="M566.178 1.69834C500.892 2.10093 435.644 2.67606 370.358 2.88147C275.43 3.17725 180.429 3.57161 85.7596 1.3779C66.5753 0.934226 47.3909 0.523389 28.2434 0.0632849C13.22 -0.290009 3.86719 0.835598 0.663665 3.44833C-2.02435 5.64204 3.68293 7.58107 13.6249 7.16205C48.0536 5.72422 81.6724 7.83576 115.696 8.02473C179.509 8.38624 243.322 8.83816 307.171 8.97783C353.788 9.07643 400.479 8.82993 447.095 8.5588C485.648 8.32875 524.164 7.8358 562.717 7.44964C564.963 7.42499 567.357 7.40853 569.382 7.21134C577.335 6.43081 589.413 5.98716 586.578 3.48945C585.215 2.29811 574.389 1.63257 567.835 0.737015C567.283 1.05744 566.767 1.37791 566.215 1.69834H566.178Z" fill="#DC3D3D"/>
</svg>
