<svg width="204" height="137" viewBox="0 0 204 137" fill="none" xmlns="http://www.w3.org/2000/svg">
<path d="M10.389 56.9521C23.1443 63.8748 36.6847 69.3491 50.696 73.3521C57.7016 75.3536 64.8225 76.9385 71.9826 78.1499C78.7691 79.3221 85.638 80.1968 92.4929 80.4269C98.8983 80.6609 105.366 80.2074 111.524 78.3231C117.2 76.5617 122.28 73.4822 126.271 69.0126C129.984 64.8506 132.44 59.4441 132.325 53.8389C132.252 48.3096 129.748 43.0046 126.243 38.7682C122.096 33.8418 116.639 30.4108 110.799 27.899C104.398 25.1036 97.4944 23.1945 90.7471 21.6488C84.4328 20.1588 77.7424 19.3336 71.3789 21.033C66.0561 22.4437 61.0955 25.556 58.5001 30.5397C53.0915 40.8311 60.3596 52.7706 67.2427 60.3114C71.5148 65.0163 76.477 69.0791 81.5645 72.9204C86.8736 76.887 92.4005 80.5295 98.0856 83.8314C109.634 90.4845 121.783 95.8943 134.265 100.563C146.866 105.265 159.664 109.253 172.528 113.003C175.666 113.935 178.863 114.883 182.017 115.755C183.921 116.282 183.098 119.257 181.194 118.731C167.735 114.816 154.335 110.918 141.133 106.306C127.99 101.711 115.028 96.4605 102.743 89.9239C90.6191 83.4961 79.1286 75.706 69.0079 66.437C64.5117 62.3108 60.4675 57.4768 57.5463 52.0566C54.7973 46.9402 53.0257 41.0692 53.875 35.2183C54.7408 29.3079 58.4466 24.247 63.4668 21.151C68.8667 17.8399 75.3797 16.7583 81.6598 17.2139C88.9579 17.6947 96.1256 19.8051 103.082 21.9852C109.979 24.1487 116.906 26.8972 122.728 31.326C127.491 34.9495 131.433 39.6911 133.72 45.3202C136.007 50.9494 136.119 57.2586 133.852 62.9095C131.568 68.6199 127.376 73.3542 122.333 76.7641C116.954 80.4652 110.6 82.3596 104.153 83.2031C97.4512 84.0403 90.6723 83.7671 83.9491 83.0608C76.4788 82.2761 69.0642 81.0584 61.6889 79.4671C46.8951 76.2087 32.5027 71.2675 18.7926 64.7854C15.4462 63.2193 12.1326 61.5342 8.91146 59.7465C7.03625 58.6513 8.61632 55.9493 10.389 56.9521Z" fill="#DC3D3D"/>
<path d="M156.251 127.848C160.668 125.546 165.094 123.439 169.623 121.424C171.879 120.447 174.135 119.469 176.435 118.568C177.584 118.117 178.75 117.607 179.959 117.172C180.746 116.877 181.727 116.572 182.238 115.881C182.328 116.482 182.402 117.143 182.432 117.728C175.257 111.708 168.157 105.644 160.982 99.6242C160.366 99.0697 160.468 98.0086 161.006 97.4528C161.636 96.7944 162.562 96.9222 163.177 97.4768C170.353 103.497 177.452 109.56 184.628 115.581C185.157 115.983 185.208 116.958 184.821 117.428C183.482 119.492 180.696 120.067 178.533 120.942C176.233 121.843 173.901 122.864 171.645 123.841C166.905 125.926 162.31 128.178 157.758 130.507C155.968 131.421 154.461 128.762 156.251 127.848Z" fill="#DC3D3D"/>
</svg>
