<svg width="271" height="64" viewBox="0 0 271 64" fill="none" xmlns="http://www.w3.org/2000/svg">
<path d="M116.428 38.5286C111.173 38.7894 105.89 38.8618 100.65 39.3544C78.3812 41.4262 56.1129 43.6429 33.8445 45.7582C31.7711 45.961 29.6692 45.903 27.5816 45.8016C20.4239 45.4684 17.8676 41.9188 19.7138 34.9935C20.0262 33.82 20.3103 32.6175 20.7222 30.9514C24.2158 30.5458 27.7946 30.2415 31.345 29.6765C34.725 29.1404 38.0199 28.0683 41.4141 27.6771C44.5385 27.3149 47.7338 27.7061 50.8724 27.5033C53.3577 27.3439 55.8573 26.9962 58.2716 26.4022C62.6031 25.3591 66.8778 24.0842 71.1951 22.9251C71.8342 22.7513 72.9419 22.4615 73.1265 22.7368C76.0663 26.9528 77.4865 23.2584 79.3895 22.3022C102.311 20.7809 124.835 15.855 147.615 12.8705C129.649 13.6818 111.656 14.073 93.719 15.4204C67.2612 17.4197 40.846 20.1144 14.4024 22.5049C11.9881 22.7222 9.57379 22.9396 7.14529 23.0121C2.84216 23.128 -0.0833971 18.8685 0.00181337 13.1168C0.0728221 7.9011 3.2682 8.69797 6.81863 8.62553C16.5326 8.40821 26.2324 7.72727 35.9322 7.07531C45.0213 6.46682 54.1105 5.68443 63.1996 4.96004C77.8274 3.801 92.4267 2.36671 107.083 1.5409C115.661 1.0628 124.31 1.51189 132.916 1.59882C139.534 1.67126 146.081 -0.16873 152.827 2.03344C155.667 2.96067 159.331 0.874439 162.64 0.801999C176.515 0.526728 190.39 0.396382 204.265 0.396382C212.133 0.396382 219.987 0.932373 227.855 0.874421C239.33 0.787493 250.805 0.584711 262.265 0.019681C266.867 -0.212126 270.275 1.59886 270.928 5.71344C271.397 8.65449 269.451 12.0302 268.358 15.1451C268.188 15.6377 266.853 15.9129 266.057 15.9274C247.709 16.1158 229.303 15.4203 211.026 16.6373C190.121 18.0137 169.329 21.0706 148.495 23.4322C146.635 23.6495 144.817 24.2 142.985 24.5912C142.999 25.0548 143.028 25.5185 143.042 25.9966C151.08 25.9966 159.118 25.8082 167.156 26.0545C174.74 26.2863 182.324 27.1556 189.908 27.4309C195.517 27.6337 201.155 27.5613 206.751 27.1556C211.934 26.7934 215.258 29.691 215.67 35.689C215.968 40.0064 213.582 42.2666 208.682 42.6722C188.288 44.4108 167.895 46.1927 147.515 48.0327C145.697 48.1921 143.922 48.8151 142.09 49.7134C157.599 52.0459 173.448 52.553 187.82 59.5072L188.09 61.6369C185.945 62.4627 183.772 64.0564 181.671 63.9985C167.852 63.5493 154.062 62.7091 140.244 62.0426C124.608 61.2748 108.986 60.5938 93.3499 59.7825C91.1344 59.6666 88.9615 59.0291 86.746 58.6959C79.9008 57.6818 78.9777 53.5382 81.1221 45.7002C81.3777 44.744 82.5991 43.4546 83.4654 43.3676C89.487 42.7736 95.7216 41.3538 101.516 42.3825C107.268 43.3966 111.727 41.716 116.57 40.0209C116.513 39.5138 116.47 39.0213 116.413 38.5142L116.428 38.5286Z" fill="#DC3D3D"/>
</svg>
