<svg width="243" height="15" viewBox="0 0 243 15" fill="none" xmlns="http://www.w3.org/2000/svg">
<path d="M225.058 8.97342C216.458 8.97342 207.858 9.07645 199.257 8.94532C192.361 8.84229 185.465 8.28967 178.558 8.22411C172.59 8.16791 166.581 8.18663 160.652 8.76736C148.201 9.97564 135.809 11.7647 123.348 12.898C117.349 13.4413 111.481 12.5327 105.633 10.3784C96.0953 6.86595 86.2046 8.56128 76.4953 10.3971C70.8291 11.4649 65.2132 12.7481 59.547 13.7504C54.5159 14.6402 50.0394 13.8066 45.956 10.444C41.8425 7.05328 36.5392 7.89626 31.7803 8.93595C24.8639 10.4346 18.0987 12.5421 11.2931 14.4716C7.02833 15.6799 3.17689 14.8837 0.575654 11.3806C-0.281341 10.2285 -0.0696089 7.98056 0.484917 6.51001C0.71681 5.89182 3.47934 5.35792 4.46741 5.85434C7.62316 7.43729 10.3857 6.36016 13.3197 5.55464C21.9501 3.1849 30.6007 0.646561 39.7454 1.36779C42.7096 1.60195 46.0771 2.23888 48.3758 3.8031C53.0439 6.98772 57.8431 6.38824 62.8338 5.59208C71.434 4.2152 79.9939 2.59481 88.6244 1.43336C95.0468 0.571636 101.358 1.31158 107.529 3.53146C115.262 6.30396 123.378 5.59211 131.353 4.73975C144.682 3.31603 157.94 1.13362 171.299 0.131394C178.679 -0.421232 186.201 0.936906 193.672 1.11487C203.653 1.34903 213.645 1.2179 223.636 1.34903C228.788 1.4146 233.971 1.51764 239.082 2.0609C240.514 2.21077 242.601 3.80308 242.904 5.04883C243.519 7.55907 241.069 7.73704 239.032 7.84008C234.384 8.09297 229.736 8.36458 225.088 8.63621C225.088 8.74861 225.078 8.86101 225.068 8.96405L225.058 8.97342Z" fill="#DC3D3D"/>
</svg>
