<svg width="815" height="699" viewBox="0 0 815 699" fill="none" xmlns="http://www.w3.org/2000/svg">
<path d="M-201.534 683.606C-220.655 658.593 -206.824 607.269 -205.414 580.484C-201.27 501.791 -197.113 422.861 -192.968 344.168C-187.051 231.817 -181.135 119.467 -175.218 7.11584C-164.021 5.80402 -152.8 4.01808 -141.629 3.18031C41.6564 -10.2225 224.608 21.5172 405.079 48.6103C556.26 71.3086 708.029 87.1451 788.85 242.807C825.137 312.695 823.953 399.863 781.583 467.036C760.775 499.929 733.685 522.746 702.569 544.4C677.352 561.849 649.552 572.27 621.288 582.903C570.104 601.837 516.463 611.371 463.263 621.167C405.949 631.459 348.269 640.068 290.602 648.439C143.905 669.949 -2.7553 686.469 -150.488 697.466C-162.565 698.256 -174.881 699.271 -186.231 694.87C-192.9 692.142 -197.695 688.324 -201.534 683.606Z" fill="#1A1A1A"/>
</svg>
