<svg width="64" height="47" viewBox="0 0 64 47" fill="none" xmlns="http://www.w3.org/2000/svg">
<path d="M58.961 1.19391C54.7938 8.57487 49.1873 15.1383 42.5666 20.4557C35.9037 25.8204 28.274 29.9814 20.1525 32.5972C15.6066 34.0673 10.8985 35.0523 6.15745 35.4548C4.72644 35.5806 4.85293 37.8205 6.28394 37.6947C15.0915 36.8828 23.6635 34.2865 31.5721 30.2895C39.3911 26.2976 46.497 20.818 52.3748 14.2842C55.6718 10.5926 58.5453 6.56537 60.9979 2.24734C61.6439 0.952511 59.6543 -0.0586501 58.961 1.19391Z" fill="#A8A8A8"/>
<path d="M22.0411 42.9618C15.4972 42.4775 9.07117 40.099 3.77116 36.1738C3.62739 36.8111 3.52841 37.4459 3.38463 38.0832C8.6119 35.9454 13.5274 33.0612 17.8648 29.4906C18.3374 29.1044 18.5259 28.4646 18.182 27.9447C17.8854 27.4671 17.1086 27.2413 16.6361 27.6275C12.4255 31.0561 7.73144 33.8829 2.68083 35.9657C1.97923 36.275 1.54463 37.3332 2.29429 37.8751C8.10732 42.1308 14.9915 44.6632 22.2123 45.1992C22.7998 45.2559 23.2994 44.5536 23.2691 44.016C23.1863 43.3466 22.6733 43.016 22.0411 42.9618Z" fill="#A8A8A8"/>
</svg>
