<svg width="64" height="48" viewBox="0 0 64 48" fill="none" xmlns="http://www.w3.org/2000/svg">
<path d="M5.02345 1.16834C9.09558 8.60217 14.6174 15.237 21.1693 20.6389C27.7628 26.0887 35.3386 30.3472 43.4258 33.067C47.9524 34.5954 52.6476 35.6406 57.383 36.104C58.8123 36.2481 58.6571 38.4862 57.2278 38.3421C48.4314 37.4172 39.8935 34.7111 32.0368 30.613C24.2696 26.5211 17.2346 20.9507 11.4411 14.342C8.19182 10.6085 5.37021 6.5447 2.9732 2.19555C2.34393 0.892538 4.34631 -0.0930099 5.02345 1.16834Z" fill="#DC3D3D"/>
<path d="M41.4046 43.4065C47.9541 43.0062 54.4101 40.7103 59.7601 36.8535C59.8956 37.4926 59.9865 38.1286 60.1221 38.7677C54.9226 36.563 50.0446 33.616 45.7533 29.99C45.2858 29.5978 45.1054 28.9556 45.456 28.4402C45.7587 27.9664 46.5383 27.7506 47.0059 28.1429C51.1721 31.6252 55.8295 34.5119 60.853 36.6594C61.5505 36.9777 61.9715 38.0413 61.215 38.5736C55.3478 42.7544 48.4317 45.1982 41.2046 45.6415C40.6165 45.6907 40.1259 44.982 40.1631 44.4449C40.2545 43.7765 40.7717 43.4526 41.4046 43.4065Z" fill="#DC3D3D"/>
</svg>
