<svg width="74" height="73" viewBox="0 0 74 73" fill="none" xmlns="http://www.w3.org/2000/svg">
<path d="M1.89995 41.1366C10.1378 43.1322 18.7612 43.5179 27.1667 42.3119C35.6357 41.1074 43.8855 38.3745 51.3421 34.2274C55.5202 31.9101 59.4547 29.143 62.9861 25.9542C64.0551 24.9946 65.6052 26.6165 64.5362 27.5761C57.9289 33.4562 50.1789 37.9458 41.8585 40.9944C33.603 43.981 24.7477 45.4307 15.9606 45.2634C11.0124 45.1513 6.10808 44.5007 1.2787 43.3441C-0.108334 42.9318 0.511481 40.7878 1.89995 41.1366Z" fill="#A8A8A8"/>
<path d="M57.6248 42.6844C61.7393 37.5729 64.3895 31.2541 65.1409 24.7018C65.7047 25.0319 66.236 25.393 66.7998 25.7232C61.6686 28.0823 56.205 29.7041 50.6347 30.4348C50.0299 30.5163 49.4337 30.2171 49.2887 29.6109C49.1424 29.068 49.5078 28.3464 50.1126 28.2649C55.4926 27.5299 60.763 26.0307 65.7334 23.7631C66.4384 23.4618 67.5083 23.8668 67.3923 24.7845C66.5321 31.9373 63.6814 38.6959 59.1424 44.3373C58.7827 44.8052 57.9284 44.6906 57.5564 44.3014C57.1238 43.7838 57.2326 43.1833 57.6248 42.6844Z" fill="#A8A8A8"/>
</svg>
