<svg width="74" height="73" viewBox="0 0 74 73" fill="none" xmlns="http://www.w3.org/2000/svg">
<path d="M1.90008 31.7432C10.1379 29.7477 18.7613 29.3619 27.1669 30.5679C35.6359 31.7725 43.8856 34.5053 51.3422 38.6525C55.5204 40.9697 59.4548 43.7368 62.9862 46.9256C64.0553 47.8852 65.6053 46.2633 64.5363 45.3037C57.929 39.4236 50.179 34.934 41.8586 31.8854C33.6032 28.8988 24.7478 27.4491 15.9608 27.6164C11.0125 27.7285 6.1082 28.3791 1.27883 29.5358C-0.108212 29.948 0.511603 32.092 1.90008 31.7432Z" fill="#505050"/>
<path d="M57.6246 30.1954C61.7391 35.3069 64.3894 41.6258 65.1408 48.178C65.7045 47.8479 66.2359 47.4868 66.7996 47.1567C61.6685 44.7975 56.2049 43.1758 50.6346 42.4451C50.0298 42.3636 49.4336 42.6627 49.2886 43.269C49.1422 43.8118 49.5077 44.5334 50.1125 44.6149C55.4925 45.3499 60.7629 46.8491 65.7333 49.1167C66.4383 49.4181 67.5081 49.013 67.3921 48.0953C66.5319 40.9425 63.6813 34.1839 59.1423 28.5425C58.7826 28.0746 57.9283 28.1892 57.5563 28.5784C57.1237 29.096 57.2325 29.6965 57.6246 30.1954Z" fill="#505050"/>
</svg>
