<svg width="64" height="48" viewBox="0 0 64 48" fill="none" xmlns="http://www.w3.org/2000/svg">
<path d="M58.8904 1.16834C54.8182 8.60217 49.2964 15.237 42.7445 20.6389C36.151 26.0887 28.5753 30.3472 20.488 33.067C15.9614 34.5954 11.2663 35.6406 6.53078 36.104C5.1015 36.2481 5.25672 38.4862 6.68601 38.3421C15.4824 37.4172 24.0204 34.7111 31.8771 30.613C39.6442 26.5211 46.6792 20.9507 52.4727 14.342C55.722 10.6085 58.5436 6.5447 60.9406 2.19555C61.5699 0.892538 59.5675 -0.0930099 58.8904 1.16834Z" fill="#DC3D3D"/>
<path d="M22.5095 43.4065C15.96 43.0062 9.50394 40.7103 4.154 36.8535C4.01842 37.4926 3.92759 38.1286 3.792 38.7677C8.99142 36.563 13.8695 33.616 18.1607 29.99C18.6283 29.5978 18.8086 28.9556 18.458 28.4402C18.1553 27.9664 17.3757 27.7506 16.9082 28.1429C12.7419 31.6252 8.08456 34.5119 3.06109 36.6594C2.36352 36.9777 1.94254 38.0413 2.69909 38.5736C8.56625 42.7544 15.4824 45.1982 22.7095 45.6415C23.2976 45.6907 23.7882 44.982 23.7509 44.4449C23.6596 43.7765 23.1424 43.4526 22.5095 43.4065Z" fill="#DC3D3D"/>
</svg>
