<svg width="75" height="74" viewBox="0 0 75 74" fill="none" xmlns="http://www.w3.org/2000/svg">
<path d="M72.4035 32.4989C64.1657 30.5033 55.5423 30.1176 47.1367 31.3236C38.6677 32.5281 30.418 35.261 22.9614 39.4081C18.7832 41.7254 14.8488 44.4925 11.3173 47.6813C10.2483 48.6409 8.69828 47.019 9.7673 46.0594C16.3746 40.1793 24.1246 35.6897 32.445 32.6411C40.7004 29.6545 49.5558 28.2048 58.3428 28.3721C63.2911 28.4842 68.1954 29.1348 73.0248 30.2914C74.4118 30.7037 73.792 32.8477 72.4035 32.4989Z" fill="#A8A8A8"/>
<path d="M16.6787 30.9511C12.5642 36.0626 9.91397 42.3815 9.16258 48.9337C8.59881 48.6036 8.06748 48.2425 7.50371 47.9124C12.6349 45.5532 18.0984 43.9315 23.6687 43.2008C24.2736 43.1193 24.8698 43.4184 25.0147 44.0247C25.1611 44.5675 24.7957 45.2891 24.1908 45.3706C18.8108 46.1056 13.5405 47.6048 8.57007 49.8724C7.86505 50.1738 6.79521 49.7687 6.91121 48.851C7.77141 41.6982 10.622 34.9396 15.1611 29.2982C15.5208 28.8303 16.375 28.9449 16.7471 29.3341C17.1796 29.8517 17.0708 30.4522 16.6787 30.9511Z" fill="#A8A8A8"/>
</svg>
