<svg width="74" height="73" viewBox="0 0 74 73" fill="none" xmlns="http://www.w3.org/2000/svg">
<path d="M1.89995 31.7432C10.1378 29.7477 18.7612 29.3619 27.1667 30.5679C35.6357 31.7725 43.8855 34.5053 51.3421 38.6525C55.5202 40.9697 59.4547 43.7368 62.9861 46.9256C64.0551 47.8852 65.6052 46.2633 64.5362 45.3037C57.9289 39.4236 50.1789 34.934 41.8585 31.8854C33.603 28.8988 24.7477 27.4491 15.9606 27.6164C11.0124 27.7285 6.10808 28.3791 1.2787 29.5358C-0.108334 29.948 0.511481 32.092 1.89995 31.7432Z" fill="#A8A8A8"/>
<path d="M57.6248 30.1954C61.7393 35.3069 64.3895 41.6258 65.1409 48.178C65.7047 47.8479 66.236 47.4868 66.7998 47.1567C61.6686 44.7975 56.205 43.1758 50.6347 42.4451C50.0299 42.3636 49.4337 42.6627 49.2887 43.269C49.1424 43.8118 49.5078 44.5334 50.1126 44.6149C55.4926 45.3499 60.763 46.8491 65.7334 49.1167C66.4384 49.4181 67.5083 49.013 67.3923 48.0953C66.5321 40.9425 63.6814 34.1839 59.1424 28.5425C58.7827 28.0746 57.9284 28.1892 57.5564 28.5784C57.1238 29.096 57.2326 29.6965 57.6248 30.1954Z" fill="#A8A8A8"/>
</svg>
