<svg width="19" height="19" viewBox="0 0 19 19" fill="none" xmlns="http://www.w3.org/2000/svg">
<g clip-path="url(#clip0_80_547)">
<path d="M0.0563232 4.00458C0.169891 3.50696 0.449071 3.06265 0.84814 2.74442C1.24721 2.42618 1.74251 2.2529 2.25293 2.25293H15.7705C16.2809 2.2529 16.7762 2.42618 17.1753 2.74442C17.5744 3.06265 17.8535 3.50696 17.9671 4.00458L9.01172 9.47808L0.0563232 4.00458ZM0 5.29101V13.2934L6.53688 9.28545L0 5.29101ZM7.61603 9.94669L0.215155 14.483C0.39801 14.8685 0.68661 15.1942 1.04737 15.4222C1.40812 15.6501 1.8262 15.7709 2.25293 15.7705H15.7705C16.1972 15.7706 16.6151 15.6495 16.9756 15.4214C17.3362 15.1933 17.6245 14.8674 17.8072 14.4818L10.4063 9.94556L9.01172 10.7983L7.61603 9.94556V9.94669ZM11.4866 9.28658L18.0234 13.2934V5.29101L11.4866 9.28545V9.28658Z" fill="#DC3D3D"/>
</g>
<defs>
<clipPath id="clip0_80_547">
<rect width="18.0234" height="18.0234" fill="white"/>
</clipPath>
</defs>
</svg>
