<svg width="60" height="59" viewBox="0 0 60 59" fill="none" xmlns="http://www.w3.org/2000/svg">
<path d="M58.3947 0.00142224C58.6115 0.153601 58.8457 0.287291 59.0422 0.462226C59.3819 0.766585 59.5669 1.14774 59.5669 1.61566C59.5626 3.94386 59.5467 6.27206 59.5742 8.59883C59.5843 9.40097 58.7228 10.2515 57.9191 10.2444C55.4965 10.2202 53.0724 10.2244 50.6483 10.2415C49.8547 10.2472 48.9903 9.39813 49.0265 8.62728C49.0525 8.06123 49.0323 7.49376 49.0323 6.93766C48.5885 6.80113 43.5828 6.75277 42.1677 6.86655C48.4122 11.0465 51.7729 16.8506 52.4552 24.168C55.4806 25.4125 56.3363 27.8545 55.9301 29.9736C55.443 32.5151 53.639 33.926 51.4101 34.1706C48.561 34.4821 46.5619 32.8451 45.8464 30.79C45.1034 28.6538 45.5559 25.8961 48.7981 24.2591C48.7981 24.0272 48.827 23.7641 48.7938 23.5081C48.4844 21.1671 47.8181 18.9328 46.6891 16.8421C45.6253 14.8709 44.2477 13.1329 42.5623 11.6424C41.403 10.617 40.1281 9.7352 38.7375 9.04115C37.4539 8.39972 36.1227 7.86069 34.6627 7.53785C33.5627 9.14497 32.1418 10.2486 30.0126 10.2486C27.9051 10.2486 26.4813 9.18906 25.3495 7.52789C21.5218 8.48648 18.323 10.4534 15.7211 13.3704C12.2794 17.2304 11.0869 22.3462 11.2531 24.2747C14.611 25.9928 14.8625 28.8557 14.147 30.8269C13.3563 33.0058 11.2748 34.5205 8.50236 34.1621C6.21127 33.8648 4.5215 32.4142 4.0734 29.9366C3.65999 27.6497 4.70942 25.3272 7.55268 24.178C8.22339 16.862 11.5841 11.055 17.8185 6.85517H10.9799C10.9785 7.42122 10.9698 7.96309 10.9799 8.50497C10.9857 8.81644 10.9351 9.10515 10.7674 9.37253C10.4321 9.90587 9.97386 10.2372 9.31183 10.2372C6.90799 10.2372 4.50271 10.2358 2.09887 10.2372C1.4831 10.2372 1.04801 9.93005 0.702539 9.46498C0.612919 9.34409 0.539199 9.21324 0.458252 9.08666C0.458252 6.43704 0.458252 3.78741 0.458252 1.13779C0.72133 0.640006 1.10583 0.261691 1.61174 0.00142224H9.80619C10.7168 0.45796 11.1057 1.1833 10.9799 2.18313C10.9539 2.38793 10.9727 2.59842 10.977 2.80749C10.9814 2.98954 10.9973 3.17158 11.0074 3.36785H24.9852C25.0387 3.3195 25.0748 3.29816 25.0922 3.26687C25.1673 3.13461 25.2382 3.00092 25.3076 2.8658C25.9118 1.69246 26.8181 0.836274 28.0554 0.329959C28.3532 0.207646 28.6596 0.109512 28.9617 0C29.6541 0 30.3465 0 31.0389 0C31.1039 0.0341336 31.1661 0.0824896 31.2369 0.0995565C32.8197 0.500627 33.9487 1.45068 34.6945 2.86438C34.7812 3.02936 34.8709 3.19576 34.946 3.33656C35.7353 3.44039 48.5755 3.40768 49.0294 3.29532C49.0294 2.74349 49.0366 2.17886 49.0265 1.61424C49.0193 1.16766 49.1942 0.797874 49.5107 0.502049C49.716 0.310047 49.9675 0.166402 50.1973 0C52.9293 0 55.6598 0 58.3918 0L58.3947 0.00142224Z" fill="#1A1A1A"/>
<path d="M39.0845 48.6135C38.7404 48.5012 38.4528 48.4016 38.1622 48.312C37.4091 48.083 36.6401 47.965 35.8495 47.9181C32.4107 47.7147 28.9704 47.8569 25.5316 47.8384C24.1165 47.8313 22.6956 47.9451 21.3542 48.477C21.2313 48.5253 21.0983 48.5481 20.922 48.595C20.8656 48.4215 20.7991 48.2679 20.7658 48.1086C20.4348 46.5129 19.9318 44.9769 19.2741 43.4793C18.4502 41.6062 17.3126 39.935 16.0348 38.3464C15.6778 37.9041 15.2643 37.5059 14.8798 37.0835C14.3147 36.4619 14.2091 35.7551 14.6269 35.0426C15.1155 34.2091 15.6676 33.4127 16.2111 32.6105C20.098 26.8732 23.9893 21.1388 27.8791 15.4029C27.9831 15.2493 28.0916 15.1 28.2607 14.8596V31.0887C27.9441 31.2722 27.629 31.4471 27.3226 31.6349C25.8742 32.5238 25.0676 33.791 24.9231 35.4806C24.8204 36.6796 25.1023 37.769 25.8019 38.7361C26.7169 39.999 27.9485 40.7287 29.5515 40.8837C32.1635 41.1368 34.5138 39.342 35.0053 36.9299C35.3464 35.2573 34.9475 33.7569 33.7607 32.4797C33.2996 31.9819 32.7518 31.6135 32.1418 31.3206C32.0218 31.2623 31.9091 31.1926 31.8064 31.1357C31.6995 30.6934 31.6792 15.5565 31.7906 14.9137C31.9004 15.0658 31.9915 15.1825 32.0739 15.3034C36.4175 21.7162 40.7612 28.1305 45.1049 34.5448C45.3954 34.9729 45.6354 35.4109 45.6094 35.9599C45.592 36.3183 45.4908 36.634 45.2784 36.9071C45.0211 37.2356 44.7435 37.55 44.4515 37.85C43.3949 38.9338 42.5652 40.1797 41.7774 41.4568C41.0966 42.5605 40.556 43.731 40.1382 44.9484C39.7899 45.9639 39.5441 47.0149 39.2507 48.0489C39.2015 48.2238 39.1481 48.3988 39.0873 48.6093L39.0845 48.6135Z" fill="#1A1A1A"/>
<path d="M30.0053 58.1596C26.6793 58.1596 23.3546 58.161 20.0286 58.1553C19.7641 58.1553 19.4808 58.1496 19.2379 58.0614C18.2752 57.7116 17.8922 56.7516 18.2579 55.7915C18.7132 54.594 19.4258 53.5714 20.4203 52.7679C21.5868 51.8264 22.9181 51.212 24.4662 51.2063C28.0987 51.1949 31.7327 51.2105 35.3652 51.1949C36.5996 51.1892 37.7097 51.5604 38.7433 52.1734C40.2495 53.0665 41.2439 54.3821 41.8351 55.9964C42.1792 56.9393 41.4029 58.0785 40.3882 58.151C40.1772 58.1653 39.9661 58.1582 39.7537 58.1582C36.5057 58.1582 33.2562 58.1582 30.0082 58.1582L30.0053 58.1596Z" fill="#1A1A1A"/>
<path d="M31.7486 35.8958C31.8498 36.7591 30.9088 37.6252 30.0068 37.6266C29.1612 37.628 28.1855 36.8316 28.2448 35.846C28.304 34.8675 29.008 34.2005 30.0256 34.1535C30.8495 34.1166 31.8498 34.9486 31.7486 35.8943V35.8958Z" fill="#1A1A1A"/>
</svg>
