<svg width="13" height="14" viewBox="0 0 13 14" fill="none" xmlns="http://www.w3.org/2000/svg">
<path d="M9.86789 4.03021C10.2987 4.03021 10.6479 3.681 10.6479 3.25021C10.6479 2.81943 10.2987 2.47021 9.86789 2.47021C9.43711 2.47021 9.08789 2.81943 9.08789 3.25021C9.08789 3.681 9.43711 4.03021 9.86789 4.03021Z" fill="#1A1A1A"/>
<path fill-rule="evenodd" clip-rule="evenodd" d="M3.25 6.58789C3.25 8.38027 4.70763 9.83789 6.5 9.83789C8.29238 9.83789 9.75 8.38027 9.75 6.58789C9.75 4.79552 8.29238 3.33789 6.5 3.33789C4.70763 3.33789 3.25 4.79552 3.25 6.58789ZM4.875 6.58789C4.875 5.6917 5.60381 4.96289 6.5 4.96289C7.39619 4.96289 8.125 5.6917 8.125 6.58789C8.125 7.48408 7.39619 8.21289 6.5 8.21289C5.60381 8.21289 4.875 7.48408 4.875 6.58789Z" fill="#1A1A1A"/>
<path fill-rule="evenodd" clip-rule="evenodd" d="M3.25 13.0879H9.75C11.4205 13.0879 13 11.5084 13 9.83789V3.33789C13 1.66739 11.4205 0.0878906 9.75 0.0878906H3.25C1.5795 0.0878906 0 1.66739 0 3.33789V9.83789C0 11.5084 1.5795 13.0879 3.25 13.0879ZM1.625 3.33789C1.625 2.5782 2.49031 1.71289 3.25 1.71289H9.75C10.5097 1.71289 11.375 2.5782 11.375 3.33789V9.83789C11.375 10.5976 10.5097 11.4629 9.75 11.4629H3.25C2.47569 11.4629 1.625 10.6122 1.625 9.83789V3.33789Z" fill="#1A1A1A"/>
</svg>
