<svg width="60" height="58" viewBox="0 0 60 58" fill="none" xmlns="http://www.w3.org/2000/svg">
<path d="M0.458252 37.6161V0.0207714C0.707337 0.0147201 0.956422 0.00261731 1.20551 0.00261731C20.3066 0.00261731 39.4077 0.00261731 58.5088 0.00261731C58.6626 0.00261731 58.8164 -0.00494678 58.9686 0.00564304C59.0962 0.0132072 59.2238 0.0419511 59.3422 0.0601051C59.3668 0.146336 59.396 0.199285 59.396 0.252234C59.4006 12.5546 59.4022 24.8569 59.4037 37.1608C59.4037 37.2727 59.3837 37.3847 59.3714 37.4966C59.3699 37.5133 59.356 37.5299 59.3437 37.5435C59.3314 37.5587 59.3176 37.5708 59.2499 37.6358H58.5657C39.4262 37.6358 20.2866 37.6358 1.14708 37.6358C0.917983 37.6358 0.687348 37.6237 0.458252 37.6177L0.458252 37.6161ZM26.8951 22.3033C26.8305 22.2064 26.7797 22.152 26.7521 22.0884C26.1693 20.7314 25.479 19.4334 24.6103 18.2277C23.4602 16.6301 22.0871 15.252 20.4988 14.081C19.2519 13.1627 17.9157 12.3957 16.4719 11.8133C14.4731 11.0054 12.4097 10.4926 10.2402 10.4396C9.93577 10.4321 9.63287 10.3716 9.32844 10.364C8.73955 10.3519 8.15067 10.361 7.50028 10.361C7.50028 11.4911 7.48952 12.5727 7.50643 13.7028C7.80318 13.7028 8.03074 13.7028 8.2583 13.7028C9.10242 13.7089 9.95269 13.6468 10.7876 13.7376C12.176 13.8889 13.5337 14.1975 14.8437 14.7073C17.2976 15.6619 19.3779 17.1082 21.0816 19.0946C22.1409 20.329 23.0112 21.6694 23.6231 23.1686C24.3489 24.9507 24.7963 26.7858 24.7625 28.7192C24.7532 29.2093 24.7594 29.6995 24.7625 30.1912C24.7625 30.3379 24.784 30.4831 24.7994 30.6859C25.9279 30.6859 27.0258 30.6965 28.1728 30.6768C28.1728 30.0444 28.1851 29.4801 28.1712 28.9174C28.1328 27.3849 28.5587 25.981 29.3475 24.6724C30.4145 22.9023 31.9321 21.6664 33.8925 20.9614C34.7597 20.6497 35.6545 20.4637 36.5894 20.4924C37.2152 20.5121 37.8425 20.4954 38.456 20.4954C38.5682 19.8616 38.5528 17.5984 38.4345 17.1369C38.2776 17.1369 38.107 17.1309 37.9378 17.1369C37.3274 17.1657 36.717 17.1929 36.1066 17.2338C35.6499 17.264 35.1887 17.2837 34.7397 17.3639C31.8153 17.8828 29.4167 19.2867 27.5332 21.5469C27.3302 21.7904 27.1211 22.0294 26.8905 22.3002L26.8951 22.3033ZM47.1017 23.8585C49.5602 23.8827 52.191 22.0733 52.2956 18.8994C52.3755 16.4834 50.4935 13.8919 47.2662 13.7891C44.8107 13.7104 42.1769 15.5636 42.0723 18.7375C41.9924 21.155 43.8774 23.7117 47.1017 23.8585Z" fill="#1A1A1A"/>
<path d="M9.09026 58C8.93651 57.8336 8.7889 57.6596 8.62746 57.5008C6.16582 55.0712 3.70111 52.6431 1.23794 50.215C1.09187 50.0713 0.951956 49.9215 0.81665 49.7838C1.07496 49.3875 8.64437 41.9065 9.17637 41.5056C9.54384 41.7129 16.8995 48.8882 17.573 49.6976C17.5453 49.9427 17.3254 50.0592 17.1701 50.212C14.71 52.6431 12.2453 55.0697 9.7837 57.4993C9.62226 57.6581 9.47465 57.8321 9.31936 57.9985H9.08873L9.09026 58Z" fill="#1A1A1A"/>
<path d="M50.5229 58C50.3691 57.8336 50.2215 57.6596 50.0601 57.5008C47.5984 55.0712 45.1337 52.6431 42.6706 50.215C42.5245 50.0713 42.3846 49.9215 42.2493 49.7838C42.5076 49.3875 50.077 41.9065 50.609 41.5056C50.9765 41.7129 58.3321 48.8867 59.0056 49.6976C58.9779 49.9427 58.7581 50.0592 58.6028 50.212C56.1427 52.6431 53.678 55.0697 51.2163 57.4993C51.0549 57.6581 50.9073 57.8321 50.752 57.9985H50.5213L50.5229 58Z" fill="#1A1A1A"/>
<path d="M21.3415 48.05H24.7303C24.7933 49.1695 24.7518 50.2542 24.758 51.3268C24.3413 51.4751 22.1656 51.5144 21.3723 51.401C21.2462 51.0137 21.2185 48.7414 21.3415 48.0516V48.05Z" fill="#1A1A1A"/>
<path d="M31.5971 51.4161H28.2083C28.1453 50.2966 28.1868 49.2119 28.1806 48.1393C28.5958 47.991 30.7699 47.9517 31.5663 48.0651C31.6924 48.4524 31.7201 50.7217 31.5971 51.4161Z" fill="#1A1A1A"/>
<path d="M38.5373 48.0863V51.4205C37.3995 51.4811 36.2971 51.4417 35.207 51.4478C35.0563 51.0378 35.0178 48.8881 35.1332 48.115C35.5268 47.9909 37.8408 47.9637 38.5373 48.0847V48.0863Z" fill="#1A1A1A"/>
<path d="M48.9315 18.816C49.0207 19.7343 48.0674 20.5482 47.2033 20.5558C46.2976 20.5633 45.4105 19.7282 45.4212 18.7918C45.4305 17.984 46.2238 17.0763 47.1987 17.0823C48.0889 17.0868 49.0222 17.9234 48.9315 18.816Z" fill="#1A1A1A"/>
</svg>
