<svg width="19" height="19" viewBox="0 0 19 19" fill="none" xmlns="http://www.w3.org/2000/svg">
<g clip-path="url(#clip0_80_551)">
<path fill-rule="evenodd" clip-rule="evenodd" d="M2.12343 0.575665C2.32053 0.378859 2.55721 0.226189 2.81778 0.127772C3.07835 0.0293545 3.35686 -0.0125624 3.63485 0.0047989C3.91284 0.0221602 4.18398 0.0984033 4.43027 0.228476C4.67657 0.358548 4.89242 0.539479 5.0635 0.759279L7.08551 3.35691C7.45611 3.8334 7.58678 4.45408 7.44034 5.03985L6.82417 7.5068C6.79231 7.63458 6.79403 7.76842 6.82916 7.89533C6.8643 8.02225 6.93165 8.13792 7.02468 8.23112L9.7924 10.9988C9.88571 11.0921 10.0016 11.1595 10.1287 11.1947C10.2558 11.2298 10.3899 11.2314 10.5178 11.1994L12.9837 10.5832C13.2727 10.5109 13.5745 10.5053 13.866 10.5668C14.1576 10.6282 14.4313 10.7552 14.6666 10.938L17.2642 12.9589C18.1981 13.6855 18.2837 15.0654 17.4479 15.9001L16.2831 17.0649C15.4495 17.8984 14.2036 18.2645 13.0423 17.8556C10.0697 16.8097 7.37081 15.108 5.14573 12.8767C2.91453 10.6519 1.2128 7.9534 0.166759 4.98127C-0.241021 3.82101 0.12508 2.57401 0.958664 1.74043L2.12343 0.575665Z" fill="#DC3D3D"/>
</g>
<defs>
<clipPath id="clip0_80_551">
<rect width="18.0234" height="18.0234" fill="white"/>
</clipPath>
</defs>
</svg>
