<svg width="19" height="19" viewBox="0 0 19 19" fill="none" xmlns="http://www.w3.org/2000/svg">
<path d="M18.0619 1.19636C18.1028 1.09401 18.1129 0.981881 18.0907 0.87388C18.0685 0.765878 18.0152 0.666754 17.9372 0.588795C17.8593 0.510837 17.7601 0.457472 17.6521 0.435317C17.5441 0.413163 17.432 0.423192 17.3297 0.464162L0.942968 7.01906H0.941842L0.43268 7.22182C0.336243 7.26029 0.252316 7.32467 0.190169 7.40784C0.128022 7.49101 0.0900743 7.58974 0.0805167 7.69313C0.0709592 7.79651 0.0901642 7.90052 0.13601 7.99368C0.181857 8.08683 0.25256 8.1655 0.340309 8.221L0.80216 8.51388L0.803286 8.51613L6.42998 12.096L10.0099 17.7227L10.0121 17.725L10.305 18.1868C10.3607 18.2742 10.4394 18.3446 10.5325 18.3902C10.6256 18.4357 10.7294 18.4547 10.8326 18.445C10.9358 18.4354 11.0343 18.3974 11.1173 18.3354C11.2003 18.2733 11.2646 18.1896 11.3031 18.0933L18.0619 1.19636ZM15.997 3.32538L7.55532 11.7671L7.31313 11.3864C7.26875 11.3165 7.20952 11.2573 7.13965 11.2129L6.75891 10.9707L15.2006 2.52897L16.5276 1.99841L15.9982 3.32538H15.997Z" fill="#EEEEEE"/>
</svg>
