<svg width="59" height="58" viewBox="0 0 59 58" fill="none" xmlns="http://www.w3.org/2000/svg">
<path d="M58.181 1.15326V46.5611C58.1099 46.6715 58.0404 46.7835 57.9678 46.8923C57.6231 47.4156 57.1559 47.7226 56.5119 47.7136C56.3803 47.7121 56.2473 47.7136 56.1157 47.7136C38.1818 47.7136 20.2463 47.7136 2.31228 47.7136C2.16109 47.7136 2.0099 47.7136 1.86022 47.7136C1.19197 47.7045 0.730845 47.3672 0.39823 46.8077C0.192614 46.4613 0.21378 46.0847 0.21378 45.7082C0.21378 31.1409 0.21378 16.5751 0.21378 2.00776C0.21378 1.85652 0.209245 1.70528 0.218316 1.55555C0.263673 0.746428 0.944021 0.0552674 1.74834 0.00687109C1.95547 -0.005228 2.1626 0.00233393 2.37124 0.00233393C20.2674 0.00233393 38.1651 0.00233393 56.0613 0.00233393C56.2125 0.00233393 56.3637 0.0053587 56.5134 0.00233393C57.1574 -0.00674039 57.6246 0.300274 57.9693 0.82356C58.0419 0.932451 58.1114 1.04437 58.1825 1.15477L58.181 1.15326ZM20.7618 6.94872C17.0093 6.94872 13.2583 6.94872 9.50583 6.94872C9.31684 6.94872 9.12634 6.93511 8.94038 6.9578C7.93649 7.0803 7.20474 7.57788 7.24102 8.8014C7.28033 10.1399 7.25009 11.4798 7.25009 12.8183C7.25009 15.9308 7.2637 19.0433 7.24102 22.1558C7.23498 22.9664 7.71273 23.6621 8.55485 23.8043C8.83153 23.8511 9.11425 23.8905 9.39395 23.8905C16.9352 23.895 24.4765 23.8935 32.0178 23.8935C32.1493 23.8935 32.2824 23.9011 32.4139 23.8905C33.4042 23.8028 34.2206 23.3415 34.201 22.0136C34.1601 19.2595 34.1889 16.5055 34.1889 13.7514C34.1889 12.0349 34.1934 10.3183 34.1858 8.60176C34.1813 7.78054 33.764 7.2512 32.9658 7.05913C32.6588 6.98502 32.3338 6.95326 32.0163 6.95326C28.2638 6.9457 24.5128 6.94872 20.7603 6.94872H20.7618ZM17.3359 40.7884C19.5795 40.7884 21.8232 40.7884 24.0668 40.7884C24.67 40.7884 25.2733 40.7959 25.8765 40.7853C26.6385 40.7717 27.1707 40.3709 27.3642 39.6389C27.4459 39.3334 27.4837 39.0083 27.4852 38.6907C27.4958 36.3888 27.4912 34.087 27.4912 31.7866C27.4912 30.9185 27.5033 30.0504 27.4867 29.1838C27.4685 28.2325 26.9273 27.5731 26.0065 27.375C25.7888 27.3281 25.5575 27.3342 25.3322 27.3342C19.9968 27.3327 14.6598 27.3327 9.3244 27.3342C9.17321 27.3342 9.02051 27.3221 8.87235 27.3402C7.94103 27.4567 7.24556 28.0208 7.24707 28.9676C7.25463 32.4007 7.24707 35.8338 7.25614 39.2684C7.25614 39.4696 7.29243 39.6858 7.37105 39.8703C7.6447 40.5146 8.15571 40.7944 8.84967 40.7929C11.6784 40.7884 14.5056 40.7914 17.3344 40.7929L17.3359 40.7884ZM41.0619 40.7884C43.8906 40.7884 46.7179 40.7747 49.5466 40.7974C50.2632 40.8035 50.998 40.3906 51.1613 39.5134C51.2127 39.2382 51.2535 38.9553 51.2535 38.6756C51.2611 35.9971 51.2581 33.3187 51.2581 30.6387C51.2581 30.1487 51.2686 29.6572 51.255 29.1672C51.2278 28.2219 50.6775 27.5625 49.7598 27.369C49.5784 27.3312 49.3848 27.3327 49.1974 27.3327C43.7863 27.3312 38.3753 27.3327 32.9642 27.3327C32.8508 27.3327 32.7359 27.3236 32.6256 27.3402C31.7018 27.4673 31.0124 28.0223 31.0154 28.9827C31.0245 32.3976 31.0169 35.8111 31.023 39.2261C31.023 39.4287 31.0472 39.6465 31.1228 39.8325C31.3949 40.5025 31.915 40.7944 32.6347 40.7929C35.4437 40.7853 38.2528 40.7899 41.0634 40.7899L41.0619 40.7884ZM44.4863 13.7439C42.9593 13.7439 41.4308 13.7378 39.9038 13.7499C39.5878 13.7529 39.2612 13.7877 38.9558 13.8709C37.7584 14.1991 37.6193 15.3999 37.9444 16.1304C38.2755 16.876 38.9453 17.0878 39.6664 17.0923C42.8716 17.112 46.0783 17.112 49.2835 17.0862C49.6796 17.0832 50.0984 16.9365 50.4643 16.7671C50.933 16.5478 51.3321 15.7402 51.2263 15.288C51.0645 14.6044 50.8181 14.0494 49.9034 13.8452C49.6298 13.7847 49.3455 13.7499 49.0658 13.7484C47.5388 13.7393 46.0103 13.7439 44.4833 13.7439H44.4863ZM44.4863 23.895C46.033 23.895 47.5796 23.9101 49.1248 23.8844C49.5103 23.8784 49.9125 23.7952 50.2768 23.6621C50.9179 23.4277 51.2142 22.8545 51.2233 22.2389C51.2308 21.5962 50.9254 21.0169 50.2663 20.7644C49.9382 20.6388 49.5753 20.5496 49.2261 20.5481C46.0587 20.5315 42.8898 20.53 39.7224 20.5496C39.358 20.5511 38.9725 20.654 38.6353 20.8022C38.0381 21.0638 37.8038 21.5795 37.8053 22.2223C37.8068 22.8666 38.0457 23.3868 38.6459 23.6349C39.0178 23.7891 39.4427 23.8769 39.8463 23.8844C41.3915 23.9116 42.9382 23.895 44.4848 23.895H44.4863ZM44.5226 6.94872C42.9775 6.94872 41.4338 6.94267 39.8887 6.95477C39.5727 6.9578 39.2461 6.99258 38.9422 7.07879C37.7388 7.41908 37.6239 8.63352 37.9459 9.34434C38.2831 10.0854 38.9513 10.2941 39.6725 10.2971C42.8746 10.3153 46.0768 10.3138 49.279 10.2941C49.6418 10.2911 50.0274 10.1822 50.3615 10.0295C50.9542 9.75874 51.1734 9.23545 51.1658 8.5942C51.1568 7.97261 50.9254 7.46898 50.3524 7.22398C49.982 7.06518 49.5587 6.9699 49.1565 6.96234C47.6129 6.9336 46.0678 6.95024 44.5226 6.95024V6.94872Z" fill="#1A1A1A"/>
<path d="M15.0605 57.9992C14.9184 57.9085 14.7687 57.8268 14.6341 57.7255C13.9629 57.2249 13.7633 56.5503 13.978 55.7715C14.176 55.0501 14.8246 54.5903 15.5896 54.5858C17.0607 54.5767 18.5318 54.5827 20.0028 54.5827C20.2054 54.5827 20.4095 54.5827 20.6802 54.5827C20.7285 53.4076 20.6711 52.2839 20.7134 51.1844C21.1761 51.0513 36.883 51.0135 37.6798 51.139C37.7766 52.2385 37.6662 53.3653 37.7418 54.5449C37.958 54.5585 38.1576 54.5797 38.3556 54.5797C39.8448 54.5827 41.3355 54.5842 42.8248 54.5797C43.4703 54.5797 43.9481 54.8746 44.2731 55.41C44.7585 56.2085 44.515 57.237 43.7349 57.7557C43.6094 57.8389 43.4824 57.916 43.3554 57.9962H15.0605V57.9992Z" fill="#1A1A1A"/>
<path d="M30.8962 10.3061V20.4875C30.6392 20.5056 30.4034 20.5344 30.169 20.5344C27.1332 20.5374 24.0973 20.5359 21.0614 20.5359H11.2735C11.0527 20.5359 10.832 20.5359 10.634 20.5359C10.4949 20.0625 10.4586 11.1349 10.581 10.3499C10.7806 10.3348 10.9983 10.3061 11.2145 10.3061C14.2322 10.3031 17.2485 10.3046 20.2662 10.3046C23.5666 10.3046 26.8671 10.3046 30.166 10.3046H30.8962V10.3061Z" fill="#1A1A1A"/>
<path d="M10.5144 30.7052C11.0707 30.5675 23.5876 30.5615 24.1546 30.6885C24.1773 30.8443 24.2226 31.0228 24.2241 31.2012C24.2302 33.125 24.2287 35.0487 24.2241 36.971C24.2241 37.1343 24.1909 37.2961 24.1697 37.4867H10.5673C10.4524 36.3494 10.5325 35.2257 10.5174 34.105C10.5023 32.9768 10.5144 31.847 10.5144 30.7037V30.7052Z" fill="#1A1A1A"/>
<path d="M47.9382 37.4868H34.3948C34.2587 37.0527 34.2269 31.3268 34.3479 30.7052C34.7712 30.5615 47.3456 30.5464 47.9276 30.7022C47.9473 30.8398 47.9896 31.0016 47.9911 31.1635C47.9957 33.1054 47.9957 35.0488 47.9911 36.9907C47.9911 37.1374 47.9609 37.2826 47.9367 37.4868H47.9382Z" fill="#1A1A1A"/>
</svg>
