<svg width="53" height="58" viewBox="0 0 53 58" fill="none" xmlns="http://www.w3.org/2000/svg">
<path d="M31.7364 34.1849C31.6857 34.324 31.6581 34.4767 31.5797 34.5976C30.7639 35.869 29.9403 37.1343 29.1199 38.4027C28.8233 38.8622 28.5299 39.3233 28.2149 39.8161C29.3304 41.5471 30.452 43.2886 31.5874 45.0483C33.5663 44.1609 35.533 44.046 37.5089 44.8774C38.9624 45.4897 40.0794 46.4874 40.8322 47.8616C42.5069 50.9183 41.5974 54.4709 39.199 56.406C36.4042 58.6615 32.5984 58.4166 30.1401 56.2941C27.5619 54.0673 27.0626 50.3666 28.8464 47.52C28.748 47.0846 26.5571 43.7588 26.1269 43.2569C25.815 43.5093 23.5671 46.9531 23.3674 47.4867C25.2833 50.6477 24.4875 54.2759 22.0199 56.347C19.4648 58.4906 15.7082 58.5949 13.0041 56.3923C10.5964 54.4316 9.72528 50.8896 11.3969 47.8404C11.9731 46.7913 12.7813 45.9417 13.8153 45.334C14.8417 44.7308 15.9448 44.3619 17.1724 44.3317C18.3862 44.303 19.5201 44.5403 20.6387 45.0558C21.7464 43.3309 22.8358 41.6348 23.9528 39.8963C23.8898 39.7406 23.8452 39.5561 23.7484 39.405C22.9341 38.1336 22.1075 36.8683 21.2871 35.6014C20.9905 35.1434 20.6955 34.6838 20.3805 34.197H10.601C10.5903 33.9491 10.5734 33.7495 10.5719 33.55C10.5703 31.9657 10.5719 30.3814 10.5719 28.7971C10.5719 19.4243 10.5719 10.0515 10.5719 0.67877C10.5719 0.452009 10.5795 0.226761 10.5841 0C20.9352 0 31.2863 0 41.6373 0C41.6419 0.207108 41.6496 0.414216 41.6496 0.621324C41.6496 11.5542 41.6496 22.4886 41.6496 33.423V34.1184C41.5067 34.1456 41.3992 34.1849 41.2931 34.1849C38.1511 34.1864 35.0091 34.1849 31.867 34.1819C31.8286 34.1819 31.7902 34.1743 31.7533 34.1713C31.8378 34.002 31.907 33.8251 32.0068 33.6664C32.9856 32.1214 33.9689 30.5809 34.9491 29.039C35.4808 28.2015 36.0078 27.3609 36.5501 26.5023C35.6052 25.9112 34.6972 25.3413 33.7953 24.7774C33.2191 25.4879 28.0397 33.7057 27.8861 34.1622C28.1089 34.1622 28.3163 34.1622 28.5237 34.1622C29.5946 34.1698 30.6655 34.1774 31.7364 34.1849ZM35.0628 17.0887C29.7221 14.4613 24.5013 11.8928 19.2405 9.30474V24.8711C24.4952 22.286 29.7083 19.7221 35.0628 17.0887ZM20.8953 51.1481C20.7985 49.2781 19.4571 47.8253 17.4966 47.8147C15.5269 47.8027 14.0627 49.2962 14.0934 51.1799C14.1257 53.1844 15.6759 54.5057 17.4982 54.486C19.4725 54.4664 20.8 53.0061 20.8937 51.1481H20.8953ZM34.734 47.7921C32.835 47.8873 31.3615 49.2055 31.3446 51.136C31.3277 52.9395 32.6814 54.4558 34.7079 54.4845C36.63 54.5117 38.1388 53.065 38.125 51.1345C38.1112 49.195 36.6239 47.8858 34.734 47.7936V47.7921ZM26.113 36.5357C26.6492 35.6967 27.1086 34.9771 27.5896 34.2227H24.6304C25.1266 34.9952 25.5891 35.7178 26.113 36.5357Z" fill="#1A1A1A"/>
<path d="M7.13313 0.00151177C7.13774 2.63798 7.14234 5.27597 7.14695 7.91244C7.14695 8.30549 7.14695 8.69854 7.14695 9.07647C6.70906 9.20044 1.0534 9.23369 0.271345 9.12485C0.25598 9.04775 0.222168 8.96007 0.222168 8.87239C0.222168 5.91543 0.228324 2.95696 0.232934 0H7.13313V0.00151177Z" fill="#1A1A1A"/>
<path d="M51.9869 0.00151177C51.9915 2.63798 51.9961 5.27597 52.0007 7.91244C52.0007 8.30549 52.0007 8.69854 52.0007 9.07647C51.5628 9.20044 45.9071 9.23369 45.1251 9.12485C45.1097 9.04775 45.0759 8.96007 45.0759 8.87239C45.0759 5.91543 45.0821 2.95696 45.0867 0H51.9869V0.00151177Z" fill="#1A1A1A"/>
<path d="M7.11502 25.033V34.1623C6.54653 34.2183 5.97803 34.1805 5.41109 34.1865C4.83645 34.1926 4.26182 34.1865 3.68566 34.1865H0.317754C0.196375 33.73 0.174866 25.6709 0.280881 25.0677C0.708014 24.9755 6.05641 24.9407 7.11348 25.0299L7.11502 25.033Z" fill="#1A1A1A"/>
<path d="M45.0729 25.0283H51.9209C52.0177 25.4803 52.053 33.1811 51.9685 34.0866C51.9547 34.1002 51.9424 34.1138 51.927 34.1259C51.9132 34.138 51.8978 34.1592 51.884 34.1592C49.796 34.1698 47.7079 34.1788 45.6199 34.1864C45.4693 34.1864 45.3188 34.1728 45.1021 34.1622C45.0422 32.6293 45.0837 31.11 45.076 29.5907C45.0683 28.0865 45.0745 26.5808 45.0745 25.0253L45.0729 25.0283Z" fill="#1A1A1A"/>
<path d="M0.277497 12.5807H7.06705C7.16385 13.0327 7.1992 20.6186 7.11469 21.5257C7.10086 21.5393 7.08857 21.5529 7.07321 21.565C7.05938 21.5771 7.04401 21.5983 7.03018 21.5983C4.94215 21.6088 2.85411 21.6179 0.766077 21.6255C0.615505 21.6255 0.464944 21.6119 0.335882 21.6058C0.300544 21.571 0.285176 21.5589 0.274421 21.5438C0.263666 21.5302 0.248293 21.5136 0.246756 21.497C0.236001 21.4229 0.222168 21.3473 0.222168 21.2732C0.222168 18.4448 0.222172 15.6163 0.226782 12.7878C0.226782 12.7349 0.252913 12.682 0.277497 12.5792V12.5807Z" fill="#1A1A1A"/>
<path d="M51.9422 21.5967H45.1527C45.0559 21.1447 45.0205 13.5573 45.105 12.6518C45.1188 12.6382 45.1311 12.6246 45.1465 12.6125C45.1603 12.6004 45.1757 12.5792 45.1895 12.5792C47.2776 12.5686 49.3656 12.5596 51.4536 12.552C51.6042 12.552 51.7548 12.5656 51.8839 12.5717C51.9192 12.6064 51.9345 12.6185 51.9453 12.6336C51.956 12.6472 51.9714 12.6639 51.973 12.6805C51.9837 12.7546 51.9975 12.8302 51.9975 12.9042C51.9975 15.7327 51.9975 18.5612 51.9929 21.3896C51.9929 21.4425 51.9668 21.4954 51.9422 21.5982V21.5967Z" fill="#1A1A1A"/>
<path d="M22.6667 19.4984V14.744C22.8742 14.8136 23.0539 14.8529 23.2153 14.93C24.5704 15.5906 25.9209 16.2588 27.273 16.9255C27.3391 16.9572 27.3975 17.0056 27.505 17.0766C26.9995 17.441 26.4495 17.645 25.9332 17.9081C25.4062 18.1772 24.8731 18.4342 24.3415 18.6927C23.8129 18.9497 23.2813 19.2036 22.6667 19.4984Z" fill="#1A1A1A"/>
</svg>
