<svg width="286" height="103" viewBox="0 0 286 103" fill="none" xmlns="http://www.w3.org/2000/svg">
<g clip-path="url(#clip0_133_44)">
<path d="M105.728 76.0974V86.5089C105.728 86.5089 105.982 86.5849 106.262 86.6355C106.542 86.6862 106.796 86.7115 107.05 86.7115H107.431V87.9021H107.05C106.847 87.9021 106.618 87.9021 106.364 87.8768C106.109 87.8768 105.881 87.8261 105.627 87.8008C105.372 87.7755 105.144 87.7248 104.94 87.6995C104.737 87.6741 104.534 87.5982 104.407 87.5475V76.3507L105.728 76.0974Z" fill="white"/>
<path d="M109.337 87.5221C109.083 87.6234 108.778 87.7247 108.448 87.7754C108.117 87.8514 107.761 87.8767 107.355 87.8767H106.974V86.6861H107.355C107.634 86.6861 107.889 86.6608 108.143 86.6101C108.397 86.5594 108.575 86.5088 108.676 86.4834V84.1022C108.676 83.013 108.956 82.2277 109.515 81.6957C110.074 81.1891 110.811 80.9104 111.726 80.9104C112.285 80.9104 112.768 81.0117 113.175 81.189C113.582 81.3664 113.912 81.6197 114.166 81.8984C114.42 82.2023 114.624 82.5317 114.751 82.937C114.878 83.3169 114.929 83.7223 114.929 84.1529C114.929 84.5835 114.878 84.9889 114.751 85.3942C114.624 85.7995 114.446 86.1795 114.192 86.5088C114.293 86.5341 114.497 86.5848 114.776 86.6101C115.056 86.6608 115.386 86.6608 115.793 86.6608H116.174V87.8514H115.793C115.259 87.8514 114.776 87.8007 114.319 87.7247C113.861 87.6487 113.48 87.5221 113.2 87.3954C112.946 87.5474 112.692 87.6487 112.387 87.7247C112.082 87.8007 111.777 87.8514 111.421 87.8514C111.015 87.8514 110.633 87.826 110.303 87.75C109.973 87.674 109.642 87.5981 109.337 87.4967V87.5221ZM109.998 86.5088C110.506 86.6354 110.989 86.7114 111.421 86.7114C112.158 86.7114 112.692 86.5088 113.048 86.1288C113.404 85.7235 113.556 85.1662 113.556 84.4316C113.556 82.9116 112.946 82.177 111.701 82.177C111.116 82.177 110.684 82.329 110.405 82.6583C110.125 82.9876 109.998 83.4689 109.998 84.1022V86.5088Z" fill="white"/>
<path d="M118.106 87.5222C117.851 87.6235 117.546 87.7248 117.216 87.7755C116.886 87.8515 116.53 87.8768 116.123 87.8768H115.742V86.6862H116.123C116.403 86.6862 116.657 86.6609 116.911 86.6102C117.165 86.5595 117.343 86.5089 117.445 86.4835V81.0625L118.766 80.8092V86.4835C118.766 86.4835 119.021 86.5595 119.3 86.6102C119.58 86.6609 119.834 86.6862 120.088 86.6862H120.469V87.8768H120.088C119.681 87.8768 119.3 87.8515 118.97 87.7755C118.639 87.6995 118.334 87.6235 118.08 87.5222H118.106ZM117.216 78.8839C117.216 78.6306 117.292 78.428 117.47 78.2506C117.623 78.0733 117.851 77.9973 118.106 77.9973C118.36 77.9973 118.588 78.0733 118.741 78.2506C118.893 78.428 118.995 78.6306 118.995 78.8839C118.995 79.1373 118.919 79.3399 118.741 79.5172C118.588 79.6946 118.36 79.7706 118.106 79.7706C117.851 79.7706 117.623 79.6946 117.47 79.5172C117.318 79.3399 117.216 79.1373 117.216 78.8839Z" fill="white"/>
<path d="M120.088 86.7114H126.645V87.902H120.088V86.7114Z" fill="white"/>
<path d="M126.34 86.7114H132.897V87.902H126.34V86.7114Z" fill="white"/>
<path d="M132.592 86.7114H139.15V87.902H132.592V86.7114Z" fill="white"/>
<path d="M138.845 86.7114H145.402V87.902H138.845V86.7114Z" fill="white"/>
<path d="M145.097 86.7114H151.654V87.902H145.097V86.7114Z" fill="white"/>
<path d="M151.349 86.7114H157.906V87.902H151.349V86.7114Z" fill="white"/>
<path d="M159.889 87.5221C159.634 87.6234 159.329 87.7247 158.999 87.7754C158.669 87.8514 158.313 87.8767 157.906 87.8767H157.525V86.6861H157.906C158.186 86.6861 158.44 86.6608 158.694 86.6101C158.948 86.5594 159.126 86.5088 159.228 86.4835V81.0624L160.549 80.8091V86.4835C160.549 86.4835 160.804 86.5594 161.083 86.6101C161.363 86.6608 161.617 86.6861 161.871 86.6861H162.252V87.8767H161.871C161.464 87.8767 161.083 87.8514 160.753 87.7754C160.422 87.6994 160.117 87.6234 159.863 87.5221H159.889ZM159.685 89.7513C159.685 90.0046 159.609 90.2326 159.431 90.3846C159.253 90.5366 159.075 90.6126 158.847 90.6126C158.618 90.6126 158.414 90.5366 158.262 90.3846C158.109 90.2326 158.008 90.0299 158.008 89.7513C158.008 89.4726 158.084 89.27 158.262 89.118C158.414 88.966 158.618 88.89 158.847 88.89C159.075 88.89 159.279 88.966 159.431 89.118C159.584 89.27 159.685 89.4726 159.685 89.7513ZM161.795 89.7513C161.795 90.0046 161.718 90.2326 161.541 90.3846C161.363 90.5366 161.185 90.6126 160.956 90.6126C160.727 90.6126 160.524 90.5366 160.371 90.3846C160.219 90.2326 160.117 90.0299 160.117 89.7513C160.117 89.4726 160.194 89.27 160.371 89.118C160.524 88.966 160.727 88.89 160.956 88.89C161.185 88.89 161.388 88.966 161.541 89.118C161.693 89.27 161.795 89.4726 161.795 89.7513Z" fill="white"/>
<path d="M171.224 87.5221C171.046 87.5981 170.817 87.6741 170.538 87.7755C170.258 87.8514 169.902 87.9021 169.496 87.9021C169.114 87.9021 168.759 87.8768 168.479 87.8008C168.174 87.7248 167.92 87.6488 167.691 87.5475C167.462 87.6488 167.183 87.7501 166.878 87.8008C166.573 87.8768 166.268 87.9021 165.937 87.9021C165.582 87.9021 165.251 87.8768 164.946 87.8008C164.641 87.7248 164.387 87.6488 164.158 87.5475C164.031 87.5981 163.904 87.6488 163.726 87.6994C163.548 87.7501 163.396 87.7754 163.218 87.8008C163.04 87.8261 162.862 87.8514 162.684 87.8768C162.506 87.8768 162.328 87.9021 162.176 87.9021H161.795V86.7115H162.176C162.379 86.7115 162.608 86.7115 162.862 86.6608C163.116 86.6355 163.345 86.5848 163.498 86.5088V81.0878L164.819 80.8345V86.5088C165.15 86.6355 165.505 86.7115 165.912 86.7115C166.319 86.7115 166.7 86.6355 167.03 86.5088V81.0878L168.352 80.8345V86.5088C168.682 86.6355 169.038 86.7115 169.445 86.7115C169.851 86.7115 170.233 86.6355 170.563 86.5088V81.0878L171.885 80.8345V86.5088C171.885 86.5088 172.139 86.5848 172.418 86.6355C172.698 86.6862 172.952 86.7115 173.206 86.7115H173.587V87.9021H173.206C172.8 87.9021 172.418 87.8768 172.088 87.8008C171.758 87.7248 171.453 87.6488 171.198 87.5475L171.224 87.5221Z" fill="white"/>
<path d="M175.519 87.5221C175.265 87.6234 174.96 87.7248 174.63 87.7754C174.299 87.8514 173.943 87.8767 173.537 87.8767H173.155V86.6861H173.537C173.816 86.6861 174.07 86.6608 174.325 86.6101C174.579 86.5595 174.757 86.5088 174.858 86.4835V76.3253L176.18 76.072V86.4835C176.18 86.4835 176.434 86.5595 176.714 86.6101C176.993 86.6608 177.247 86.6861 177.501 86.6861H177.883V87.8767H177.501C177.095 87.8767 176.714 87.8514 176.383 87.7754C176.053 87.6994 175.748 87.6234 175.494 87.5221H175.519Z" fill="white"/>
<path d="M180.475 87.5221C180.348 87.5728 180.17 87.6234 179.941 87.6741C179.713 87.7248 179.484 87.7501 179.23 87.7754C178.976 87.8007 178.721 87.8261 178.493 87.8514C178.239 87.8514 178.01 87.8767 177.806 87.8767H177.425V86.6861H177.806C178.086 86.6861 178.34 86.6608 178.594 86.6101C178.848 86.5595 179.026 86.5088 179.128 86.4835V76.3253L180.45 76.072V87.4968L180.475 87.5221Z" fill="white"/>
<path d="M194.962 82.025C194.53 82.025 194.199 82.025 193.92 82.101C193.666 82.1517 193.437 82.2023 193.284 82.253V87.2181C193.284 87.8767 193.183 88.434 193.005 88.9153C192.827 89.3966 192.573 89.802 192.217 90.1313C191.861 90.4606 191.48 90.6886 191.022 90.8659C190.565 91.0432 190.057 91.0939 189.498 91.0939C188.888 91.0939 188.354 91.0179 187.846 90.8406C187.363 90.6886 186.931 90.4353 186.575 90.1059C186.219 89.7766 185.939 89.3713 185.761 88.89C185.584 88.4087 185.482 87.8514 185.482 87.2181C185.482 86.8634 185.507 86.4835 185.584 86.1035C185.66 85.7235 185.761 85.3435 185.889 84.9635L187.134 85.3182C186.956 85.9262 186.854 86.5341 186.854 87.1168C186.854 87.978 187.083 88.662 187.515 89.118C187.947 89.574 188.633 89.8273 189.523 89.8273C190.285 89.8273 190.895 89.5993 191.327 89.1687C191.76 88.738 191.963 88.0287 191.963 87.0661V81.1891C192.242 81.1131 192.624 81.0371 193.081 80.9357C193.539 80.8344 194.174 80.8091 194.936 80.8091V81.9997L194.962 82.025ZM189.37 92.6898C189.37 92.9431 189.294 93.1711 189.116 93.3231C188.964 93.4751 188.761 93.5511 188.532 93.5511C188.303 93.5511 188.1 93.4751 187.947 93.3231C187.795 93.1711 187.693 92.9685 187.693 92.6898C187.693 92.4111 187.769 92.2085 187.947 92.0565C188.125 91.9045 188.303 91.8285 188.532 91.8285C188.761 91.8285 188.964 91.9045 189.116 92.0565C189.269 92.2085 189.37 92.4111 189.37 92.6898ZM191.48 92.6898C191.48 92.9431 191.404 93.1711 191.226 93.3231C191.073 93.4751 190.87 93.5511 190.641 93.5511C190.413 93.5511 190.209 93.4751 190.057 93.3231C189.904 93.1711 189.803 92.9685 189.803 92.6898C189.803 92.4111 189.879 92.2085 190.057 92.0565C190.235 91.9045 190.413 91.8285 190.641 91.8285C190.87 91.8285 191.073 91.9045 191.226 92.0565C191.378 92.2085 191.48 92.4111 191.48 92.6898Z" fill="white"/>
<path d="M200.02 87.9021C199.816 87.9021 199.613 87.9021 199.384 87.8514C199.155 87.8514 198.927 87.8008 198.698 87.7501V88.2061C198.698 88.7381 198.622 89.1687 198.444 89.5487C198.266 89.9287 198.063 90.2073 197.783 90.4353C197.503 90.6633 197.173 90.8153 196.817 90.9166C196.461 91.018 196.08 91.0686 195.674 91.0686C195.47 91.0686 195.267 91.0686 195.064 91.018C194.86 91.018 194.657 90.9673 194.454 90.9166L194.631 89.7514C194.784 89.7514 194.962 89.802 195.114 89.802C195.267 89.802 195.445 89.8273 195.597 89.8273C195.826 89.8273 196.055 89.8273 196.258 89.7514C196.461 89.6754 196.665 89.5994 196.817 89.4727C196.97 89.346 197.097 89.1434 197.198 88.9154C197.3 88.6874 197.351 88.3834 197.351 88.0034V81.0371L198.673 80.7838V86.4582C198.673 86.4582 198.927 86.5342 199.206 86.5848C199.486 86.6355 199.74 86.6608 199.994 86.6608H200.375V87.8514H199.994L200.02 87.9021Z" fill="white"/>
<path d="M200.02 86.7114H206.577V87.902H200.02V86.7114Z" fill="white"/>
<path d="M209.22 87.5221C209.093 87.5727 208.915 87.6234 208.686 87.674C208.457 87.7247 208.229 87.75 207.975 87.7754C207.72 87.8007 207.466 87.826 207.238 87.8514C206.983 87.8514 206.755 87.8767 206.551 87.8767H206.17V86.6861H206.551C206.831 86.6861 207.085 86.6608 207.339 86.6101C207.593 86.5594 207.771 86.5088 207.873 86.4834V81.0624L209.195 80.8091V87.4967L209.22 87.5221ZM209.881 79.0105V79.7705H207.187V79.0105H207.797V78.4279C207.797 77.9465 207.924 77.6172 208.203 77.4146C208.483 77.2119 208.788 77.1106 209.169 77.1106C209.322 77.1106 209.449 77.1106 209.55 77.1106C209.652 77.1106 209.728 77.1359 209.805 77.1613L209.703 77.8199C209.703 77.8199 209.601 77.8199 209.525 77.8199C209.449 77.8199 209.372 77.8199 209.271 77.8199C208.991 77.8199 208.813 77.8959 208.712 78.0225C208.61 78.1492 208.585 78.3772 208.585 78.7065V79.0358H209.855L209.881 79.0105Z" fill="white"/>
<path d="M211.507 87.9021V76.3507L212.829 76.0974V87.9021H211.507Z" fill="white"/>
<path d="M218.344 87.9021C218.141 87.9021 217.937 87.9021 217.709 87.8515C217.48 87.8515 217.251 87.8008 217.022 87.7501V88.2061C217.022 88.7381 216.946 89.1687 216.768 89.5487C216.59 89.9287 216.387 90.2073 216.108 90.4353C215.828 90.6633 215.498 90.8153 215.142 90.9166C214.786 91.018 214.405 91.0686 213.998 91.0686C213.795 91.0686 213.591 91.0686 213.388 91.018C213.185 91.018 212.981 90.9673 212.778 90.9166L212.956 89.7514C213.109 89.7514 213.286 89.802 213.439 89.802C213.591 89.802 213.769 89.8274 213.922 89.8274C214.151 89.8274 214.379 89.8274 214.583 89.7514C214.786 89.6754 214.989 89.5994 215.142 89.4727C215.294 89.3461 215.421 89.1434 215.523 88.9154C215.625 88.6874 215.675 88.3834 215.675 88.0035V81.0372L216.997 80.7838V86.4582C216.997 86.4582 217.251 86.5342 217.531 86.5849C217.81 86.6355 218.065 86.6609 218.319 86.6609H218.7V87.8515H218.319L218.344 87.9021ZM215.472 78.8839C215.472 78.6306 215.548 78.428 215.726 78.2506C215.879 78.0733 216.108 77.9973 216.362 77.9973C216.616 77.9973 216.845 78.0733 216.997 78.2506C217.15 78.428 217.251 78.6306 217.251 78.8839C217.251 79.1373 217.175 79.3399 216.997 79.5172C216.845 79.6946 216.616 79.7706 216.362 79.7706C216.108 79.7706 215.879 79.6946 215.726 79.5172C215.574 79.3399 215.472 79.1373 215.472 78.8839Z" fill="white"/>
<path d="M225.003 84.6849C225.003 83.8236 224.8 83.1903 224.393 82.785C223.986 82.3797 223.326 82.1517 222.436 82.1517C222.156 82.1517 221.851 82.1517 221.572 82.2024C221.267 82.2277 221.013 82.2784 220.759 82.3037C220.504 82.3544 220.276 82.405 220.098 82.4557C219.894 82.5064 219.767 82.557 219.666 82.5824L219.412 81.4171C219.412 81.4171 219.691 81.3158 219.92 81.2651C220.149 81.2144 220.377 81.1638 220.657 81.1131C220.936 81.0625 221.216 81.0118 221.521 80.9865C221.826 80.9611 222.106 80.9358 222.411 80.9358C223.783 80.9358 224.774 81.2651 225.384 81.8984C225.994 82.5317 226.325 83.4183 226.325 84.5583V86.4835C226.325 86.4835 226.579 86.5595 226.858 86.6102C227.138 86.6608 227.392 86.6862 227.646 86.6862H228.027V87.8768H227.646C227.265 87.8768 226.909 87.8514 226.553 87.7754C226.223 87.6994 225.918 87.6234 225.638 87.5221C225.562 87.5474 225.384 87.5981 225.079 87.6234C224.8 87.6741 224.418 87.6994 223.986 87.7501C223.529 87.8008 223.021 87.8261 222.411 87.8514C221.801 87.8768 221.14 87.9021 220.403 87.9021H218.242V86.7115H219.869C220.759 86.7115 221.496 86.7115 222.131 86.7115C222.766 86.7115 223.249 86.6862 223.656 86.6608C224.063 86.6608 224.368 86.6102 224.571 86.6102C224.774 86.6102 224.901 86.5595 224.952 86.5595V84.7356L225.003 84.6849ZM223.3 89.802C223.3 90.0807 223.224 90.2833 223.046 90.4606C222.868 90.6126 222.665 90.714 222.411 90.714C222.156 90.714 221.953 90.638 221.775 90.4606C221.597 90.2833 221.521 90.0807 221.521 89.802C221.521 89.5233 221.597 89.3207 221.775 89.1434C221.953 88.966 222.156 88.89 222.411 88.89C222.665 88.89 222.868 88.966 223.046 89.1434C223.224 89.2954 223.3 89.5233 223.3 89.802Z" fill="white"/>
<path d="M230.594 87.5221C230.467 87.5728 230.289 87.6234 230.061 87.6741C229.832 87.7248 229.603 87.7501 229.349 87.7754C229.095 87.8007 228.841 87.8261 228.612 87.8514C228.358 87.8514 228.129 87.8767 227.926 87.8767H227.544V86.6861H227.926C228.205 86.6861 228.459 86.6608 228.714 86.6101C228.968 86.5595 229.146 86.5088 229.247 86.4835V76.3253L230.569 76.072V87.4968L230.594 87.5221Z" fill="white"/>
<path d="M232.882 87.9021V76.3507L234.203 76.0974V87.9021H232.882Z" fill="white"/>
<path d="M244.624 87.9021C244.42 87.9021 244.217 87.9021 243.988 87.8515C243.76 87.8515 243.531 87.8008 243.302 87.7501V88.2061C243.302 88.7381 243.226 89.1687 243.048 89.5487C242.87 89.9287 242.667 90.2073 242.387 90.4353C242.108 90.6633 241.777 90.8153 241.421 90.9166C241.065 91.018 240.684 91.0686 240.278 91.0686C240.074 91.0686 239.871 91.0686 239.668 91.018C239.464 91.018 239.261 90.9673 239.058 90.9166L239.236 89.7514C239.388 89.7514 239.566 89.802 239.718 89.802C239.871 89.802 240.049 89.8274 240.201 89.8274C240.43 89.8274 240.659 89.8274 240.862 89.7514C241.065 89.6754 241.269 89.5994 241.421 89.4727C241.574 89.3461 241.701 89.1434 241.803 88.9154C241.904 88.6874 241.955 88.3834 241.955 88.0035V81.0372L243.277 80.7838V86.4582C243.277 86.4582 243.531 86.5342 243.81 86.5849C244.09 86.6355 244.344 86.6609 244.598 86.6609H244.979V87.8515H244.598L244.624 87.9021ZM241.752 78.8839C241.752 78.6306 241.828 78.428 242.006 78.2506C242.158 78.0733 242.387 77.9973 242.641 77.9973C242.895 77.9973 243.124 78.0733 243.277 78.2506C243.429 78.428 243.531 78.6306 243.531 78.8839C243.531 79.1373 243.455 79.3399 243.277 79.5172C243.124 79.6946 242.895 79.7706 242.641 79.7706C242.387 79.7706 242.158 79.6946 242.006 79.5172C241.853 79.3399 241.752 79.1373 241.752 78.8839Z" fill="white"/>
<path d="M251.587 87.5222C251.41 87.5728 251.155 87.6235 250.825 87.6741C250.495 87.7248 250.113 87.7501 249.681 87.7755C249.249 87.8008 248.792 87.8261 248.258 87.8515C247.75 87.8515 247.241 87.8768 246.708 87.8768H244.522V86.6862H247.013C247.369 86.6862 247.75 86.6862 248.106 86.6862C248.461 86.6862 248.792 86.6609 249.097 86.6355C249.402 86.6355 249.656 86.5849 249.859 86.5849C250.063 86.5849 250.19 86.5342 250.24 86.5342V84.7103C250.24 83.849 250.037 83.2157 249.631 82.8104C249.224 82.4051 248.563 82.1771 247.674 82.1771C247.496 82.1771 247.292 82.1771 247.089 82.2024C246.86 82.2024 246.657 82.2531 246.504 82.2784L245.92 81.6958C246.708 80.7838 247.47 79.8212 248.233 78.8333C248.995 77.8453 249.656 76.9334 250.24 76.0974L251.511 76.4521C250.978 77.212 250.393 77.9973 249.783 78.7573C249.173 79.5172 248.538 80.2772 247.902 81.0372C249.173 81.0372 250.113 81.3411 250.698 81.9491C251.283 82.5571 251.587 83.4184 251.587 84.5836V87.5222Z" fill="white"/>
<path d="M258.17 87.9021C257.967 87.9021 257.763 87.9021 257.535 87.8514C257.306 87.8514 257.077 87.8008 256.848 87.7501V88.2061C256.848 88.7381 256.772 89.1687 256.594 89.5487C256.416 89.9287 256.213 90.2073 255.934 90.4353C255.654 90.6633 255.324 90.8153 254.968 90.9166C254.612 91.018 254.231 91.0686 253.824 91.0686C253.621 91.0686 253.417 91.0686 253.214 91.018C253.011 91.018 252.807 90.9673 252.604 90.9166L252.782 89.7514C252.934 89.7514 253.112 89.802 253.265 89.802C253.417 89.802 253.595 89.8273 253.748 89.8273C253.977 89.8273 254.205 89.8273 254.409 89.7514C254.612 89.6754 254.815 89.5994 254.968 89.4727C255.12 89.346 255.247 89.1434 255.349 88.9154C255.451 88.6874 255.501 88.3834 255.501 88.0034V81.0371L256.823 80.7838V86.4582C256.823 86.4582 257.077 86.5342 257.357 86.5848C257.636 86.6355 257.891 86.6608 258.145 86.6608H258.526V87.8514H258.145L258.17 87.9021Z" fill="white"/>
<path d="M258.17 86.7114H264.727V87.902H258.17V86.7114Z" fill="white"/>
<path d="M264.422 86.7114H270.979V87.902H264.422V86.7114Z" fill="white"/>
<path d="M272.962 87.5221C272.708 87.6234 272.403 87.7247 272.072 87.7754C271.742 87.8514 271.386 87.8767 270.979 87.8767H270.598V86.6861H270.979C271.259 86.6861 271.513 86.6608 271.767 86.6101C272.021 86.5594 272.199 86.5088 272.301 86.4834V84.1022C272.301 83.013 272.581 82.2277 273.14 81.6957C273.699 81.1891 274.436 80.9104 275.351 80.9104C275.91 80.9104 276.393 81.0117 276.8 81.189C277.206 81.3664 277.537 81.6197 277.791 81.8984C278.045 82.2023 278.248 82.5317 278.375 82.937C278.502 83.3169 278.553 83.7223 278.553 84.1529C278.553 84.5835 278.502 84.9889 278.375 85.3942C278.248 85.7995 278.07 86.1795 277.816 86.5088C277.918 86.5341 278.121 86.5848 278.401 86.6101C278.68 86.6608 279.011 86.6608 279.417 86.6608H279.799V87.8514H279.417C278.884 87.8514 278.401 87.8007 277.943 87.7247C277.486 87.6487 277.105 87.5221 276.825 87.3954C276.571 87.5474 276.317 87.6487 276.012 87.7247C275.707 87.8007 275.402 87.8514 275.046 87.8514C274.639 87.8514 274.258 87.826 273.928 87.75C273.597 87.674 273.267 87.5981 272.962 87.4967V87.5221ZM273.623 86.5088C274.131 86.6354 274.614 86.7114 275.046 86.7114C275.783 86.7114 276.317 86.5088 276.673 86.1288C277.028 85.7235 277.181 85.1662 277.181 84.4316C277.181 82.9116 276.571 82.177 275.326 82.177C274.741 82.177 274.309 82.329 274.029 82.6583C273.75 82.9876 273.623 83.4689 273.623 84.1022V86.5088Z" fill="white"/>
<path d="M282.366 87.5221C282.239 87.5728 282.061 87.6234 281.832 87.6741C281.603 87.7248 281.374 87.7501 281.12 87.7754C280.866 87.8007 280.612 87.8261 280.383 87.8514C280.129 87.8514 279.9 87.8767 279.697 87.8767H279.316V86.6861H279.697C279.977 86.6861 280.231 86.6608 280.485 86.6101C280.739 86.5595 280.917 86.5088 281.019 86.4835V76.3253L282.34 76.072V87.4968L282.366 87.5221Z" fill="white"/>
<path d="M284.653 87.9021V76.3507L285.975 76.0974V87.9021H284.653Z" fill="white"/>
<path d="M51.6696 103C80.2059 103 103.339 79.9427 103.339 51.5C103.339 23.0573 80.2059 0 51.6696 0C23.1333 0 0 23.0573 0 51.5C0 79.9427 23.1333 103 51.6696 103Z" fill="#F5831F"/>
<path d="M30.9306 69.9923H23.6618C20.8153 69.9923 18.4008 68.979 16.3675 66.9778C14.3597 64.9766 13.3431 62.5447 13.3431 59.7075V56.8703H13.7243V59.7075C13.7243 62.4434 14.6901 64.7739 16.6471 66.6992C18.6041 68.6497 20.9423 69.6123 23.6618 69.6123H30.9306C33.8788 69.6123 36.3949 68.3457 38.4536 65.8379C38.7077 65.3059 38.8348 64.7992 38.8348 64.3179C38.8094 63.5073 38.4536 62.798 37.8436 62.1647C36.9032 61.3541 35.5816 60.6195 33.9042 59.9608L32.3793 59.2769L29.9648 58.2383C28.9736 57.8583 28.0841 57.4023 27.2454 56.8703C26.4321 56.3384 25.7967 55.6037 25.39 54.6158C24.9071 53.3492 24.653 52.1586 24.653 50.9933C24.653 48.8654 25.263 46.8895 26.4829 45.0656L26.6862 44.8123C26.8641 44.5336 27.042 44.3056 27.2199 44.1283C28.9482 42.2791 31.0323 41.3418 33.523 41.3418C34.9971 41.3418 36.4203 41.7218 37.7928 42.4311C40.8172 44.331 42.3167 46.8642 42.3167 50.0813V53.2225C42.3167 55.3504 43.0792 57.1743 44.6041 58.6942C46.129 60.2142 47.9589 60.9741 50.0938 60.9741V61.3541C47.8573 61.3541 45.9257 60.5688 44.3245 58.9729C42.7234 57.377 41.9355 55.4771 41.9355 53.2225V50.0813C41.9355 46.9655 40.4868 44.5336 37.564 42.7351C36.2678 42.0004 34.9208 41.6458 33.5738 41.6458C32.0743 41.6458 30.6002 42.0764 29.2023 42.9124C28.4653 43.3937 27.8299 43.951 27.2962 44.5843C27.2199 44.6096 27.1945 44.6603 27.1945 44.7363C26.9404 45.1923 26.8387 45.6736 26.8387 46.1549C26.8387 47.3708 27.5249 48.3081 28.8719 48.9414C30.219 49.5747 31.566 50.1573 32.8622 50.7146C34.1838 51.272 35.4291 51.9053 36.6491 52.6399C37.869 53.3492 38.8602 54.3625 39.6481 55.6544C40.436 56.9463 40.8426 58.3396 40.8426 59.8595C40.8426 60.4928 40.741 61.1261 40.5376 61.8101L40.3851 62.5447C40.0039 63.938 39.3939 65.2299 38.5552 66.3698C36.4458 68.7764 33.9296 69.9923 30.9814 69.9923H30.9306ZM23.4076 73.8681C22.391 73.8681 21.5269 73.5135 20.8407 72.8295C20.129 72.1202 19.7986 71.2842 19.7986 70.271C19.7986 69.2577 20.1544 68.3964 20.8407 67.7124C21.5523 67.0031 22.391 66.6738 23.4076 66.6738C24.4242 66.6738 25.2884 67.0285 25.9746 67.7124C26.6608 68.3964 27.0166 69.2577 27.0166 70.271C27.0166 71.2842 26.6608 72.1455 25.9746 72.8295C25.2884 73.5135 24.4242 73.8681 23.4076 73.8681ZM31.0831 73.8681C30.0919 73.8681 29.2532 73.5135 28.5415 72.8295C27.8299 72.1455 27.4741 71.2842 27.4741 70.271C27.4741 69.2577 27.8299 68.3964 28.5415 67.7124C29.2532 67.0285 30.1173 66.6738 31.0831 66.6738C32.0489 66.6738 32.9638 67.0285 33.6501 67.7124C34.3617 68.4217 34.6921 69.2577 34.6921 70.271C34.6921 71.2842 34.3363 72.1455 33.6501 72.8295C32.9384 73.5388 32.0997 73.8681 31.0831 73.8681Z" fill="white"/>
<path d="M62.9795 61.4048H49.4076V61.0248H60.1838C59.7517 60.9235 59.3705 60.7715 58.9638 60.5942C57.6676 60.0622 56.4985 59.3276 55.4819 58.3396C54.4907 57.3263 53.7537 56.1611 53.2199 54.8691C52.6862 53.6025 52.4321 52.2853 52.4321 50.892C52.4321 49.4987 52.6862 48.1055 53.2199 46.8642C53.7537 45.5723 54.4907 44.4323 55.4819 43.4444C56.4985 42.4311 57.6676 41.6711 58.9638 41.1392C60.2346 40.6072 61.5562 40.3539 62.9541 40.3539C64.3519 40.3539 65.7498 40.6072 66.9951 41.1392C68.2913 41.6711 69.435 42.4311 70.4262 43.4444C71.4428 44.4323 72.2053 45.5469 72.739 46.8642C73.2727 48.1308 73.5269 49.4734 73.5269 50.892C73.5269 52.3106 73.2727 53.6279 72.739 54.8691C72.2053 56.1611 71.4428 57.3263 70.4262 58.3396C69.435 59.3276 68.3167 60.0622 66.9951 60.5942C65.7243 61.1261 64.3773 61.3795 62.9541 61.3795L62.9795 61.4048ZM65.2923 30.0437C66.0039 30.753 66.3343 31.589 66.3343 32.6023C66.3343 33.6156 65.9785 34.4768 65.2923 35.1608C64.6061 35.8448 63.7419 36.1994 62.7253 36.1994C61.7087 36.1994 60.8446 35.8448 60.1584 35.1608C59.4467 34.4515 59.1163 33.6156 59.1163 32.6023C59.1163 31.589 59.4721 30.7277 60.1584 30.0437C60.8446 29.3598 61.7087 29.0051 62.7253 29.0051C63.7419 29.0051 64.6061 29.3598 65.2923 30.0437ZM64.9873 60.3408C65.6481 59.6822 66.0293 58.6183 66.1564 57.149C66.2327 56.0344 66.2581 54.8185 66.2581 53.4759V48.2828C66.2581 46.9655 66.2327 45.7496 66.1564 44.6603C66.0547 43.1911 65.6735 42.1018 64.9873 41.4178C64.4536 40.9618 63.8182 40.7339 63.0303 40.7339H62.9795C62.217 40.7339 61.5562 40.9618 61.0225 41.4178C60.3617 42.1271 59.9804 43.1911 59.8534 44.6603C59.7771 45.7496 59.7517 46.9402 59.7517 48.2828V53.4759C59.7517 54.7931 59.7771 56.0344 59.8534 57.149C59.955 58.6183 60.3363 59.6822 61.0225 60.3408C61.5562 60.7968 62.1916 61.0248 62.9795 61.0248H63.0303C63.7928 61.0248 64.4536 60.7968 64.9873 60.3408Z" fill="white"/>
<path d="M86.7937 61.4048H77.4917V61.0248H77.7967C78.2542 61.0248 78.4829 60.7968 78.4829 60.3408V30.7277C78.4829 30.2464 78.2542 29.9931 77.7967 29.9931H77.4917V29.6131C79.1437 29.4864 80.6432 29.0051 82.0156 28.2198C83.3881 27.4345 84.5064 26.4213 85.3705 25.2053H85.7263V60.3408C85.7263 60.7968 85.9805 61.0248 86.4633 61.0248H86.7683V61.4048H86.7937Z" fill="white"/>
<path d="M99.3236 60.8728C99.1711 61.5821 98.9677 62.266 98.6882 62.9753C98.1036 64.2673 97.2903 65.4325 96.3245 66.4458C95.3079 67.4591 94.1388 68.2697 92.7918 68.8524C91.4956 69.4097 90.0978 69.7137 88.6237 69.739H88.4203C87.8358 69.739 87.2512 69.6883 86.6921 69.587L86.7429 69.2324C87.3783 69.3337 88.0137 69.3843 88.6491 69.3843C89.0303 69.3843 89.4115 69.359 89.7419 69.283C90.174 69.1817 90.5298 68.9537 90.8348 68.5991C91.4956 68.0164 91.9023 67.0285 92.0547 65.6605C92.2072 64.3433 92.2581 62.798 92.2581 61.0501V44.9643C92.2581 44.483 92.0039 44.2296 91.521 44.2296H91.216V43.8497C92.868 43.723 94.3675 43.2417 95.74 42.4311C97.0616 41.6711 98.2053 40.6578 99.1711 39.4419H99.5269V58.7956C99.5269 59.3782 99.476 59.9608 99.3744 60.5181C100.569 60.8728 101.789 61.0501 103.06 61.0501H103.492V61.4301H103.06C101.763 61.4301 100.518 61.2528 99.3236 60.8981V60.8728Z" fill="white"/>
<path d="M127.992 61.4048H102.958V61.0248H113.531C111.421 60.3915 109.693 59.2262 108.346 57.5036C106.999 55.7811 106.313 53.8052 106.313 51.5253V51.424C106.313 48.3841 107.38 45.8003 109.515 43.6724C110.532 42.6337 111.726 41.8231 113.073 41.2658C114.42 40.7085 115.818 40.4299 117.267 40.4299H120.85C121.282 40.4299 121.486 40.2019 121.486 39.7459V39.4419H121.867C122.045 41.0885 122.528 42.5831 123.29 43.9257C124.053 45.2683 125.069 46.4082 126.34 47.2948V47.6495H116.022C114.09 47.6495 112.336 47.7762 110.786 47.9788C109.236 48.2068 108.092 48.6628 107.406 49.3214C106.974 49.8534 106.745 50.588 106.719 51.5253C106.719 54.1598 107.66 56.389 109.515 58.2383C111.37 60.0875 113.607 61.0248 116.25 61.0248H128.043V61.4048H127.992ZM116.199 36.2501C115.183 36.2501 114.319 35.8954 113.632 35.2115C112.921 34.5022 112.59 33.6662 112.59 32.6529C112.59 31.6397 112.946 30.7784 113.632 30.0944C114.319 29.4104 115.183 29.0558 116.199 29.0558C117.216 29.0558 118.08 29.4104 118.766 30.0944C119.478 30.8037 119.808 31.6397 119.808 32.6529C119.808 33.6662 119.453 34.5275 118.766 35.2115C118.08 35.8954 117.216 36.2501 116.199 36.2501Z" fill="white"/>
<path d="M152.645 61.2274C152.493 61.8101 152.315 62.3927 152.061 62.95C151.501 64.242 150.714 65.4072 149.697 66.4205C148.68 67.4338 147.511 68.2444 146.164 68.8271C144.944 69.3844 143.623 69.6883 142.225 69.7137H141.793C141.31 69.7137 140.802 69.6883 140.319 69.6123L140.37 69.2324C140.827 69.3084 141.284 69.3337 141.742 69.3337H142.174C142.53 69.3337 142.835 69.3084 143.114 69.2324C143.546 69.131 143.928 68.903 144.283 68.5484C144.919 67.9658 145.3 66.9778 145.453 65.6099C145.605 64.2926 145.656 62.7474 145.656 60.9995V60.8981C144.639 61.2528 143.572 61.4301 142.454 61.4808C141.056 61.4808 139.709 61.2274 138.413 60.6955C137.116 60.1635 135.973 59.4289 134.981 58.4409C133.99 57.453 133.253 56.3384 132.719 55.0211C132.186 53.7545 131.932 52.4626 131.932 51.1453V51.044C131.932 49.6 132.186 48.2575 132.719 47.0162C133.253 45.7242 133.99 44.5843 134.981 43.5964C135.973 42.6084 137.091 41.8738 138.413 41.3418C139.709 40.8098 141.056 40.5565 142.403 40.5565C143.851 40.5565 145.198 40.8098 146.444 41.3418C147.74 41.8738 148.884 42.6084 149.875 43.5964C150.866 44.5843 151.603 45.6989 152.137 47.0162C152.671 48.2828 152.925 49.6254 152.925 51.044V58.7449C152.925 59.4542 152.848 60.1382 152.721 60.8475C153.382 60.9488 154.068 60.9995 154.78 60.9995H155.949V61.3794H154.78C154.068 61.3794 153.382 61.3288 152.671 61.2274H152.645ZM142.276 61.1261C143.496 61.1261 144.614 60.9235 145.631 60.5435V48.3334C145.631 47.0668 145.605 45.9016 145.529 44.8123C145.427 43.343 145.046 42.2538 144.36 41.5698C143.801 41.1138 143.14 40.8858 142.403 40.8858C141.666 40.8858 140.954 41.1138 140.395 41.5698C139.76 42.2791 139.378 43.343 139.226 44.8123C139.15 45.9016 139.124 47.0668 139.124 48.3334C139.124 52.9439 139.175 55.9077 139.277 57.2503C139.378 58.7196 139.76 59.7835 140.446 60.4422C140.979 60.8981 141.564 61.1261 142.225 61.1261H142.276Z" fill="white"/>
<path d="M156.61 36.2248C155.593 36.2248 154.729 35.8702 154.043 35.1862C153.331 34.4769 153.001 33.6409 153.001 32.6277C153.001 31.6144 153.357 30.7531 154.043 30.0691C154.755 29.3598 155.593 29.0305 156.61 29.0305C157.627 29.0305 158.491 29.3852 159.177 30.0691C159.889 30.7784 160.219 31.6144 160.219 32.6277C160.219 33.6409 159.863 34.5022 159.177 35.1862C158.491 35.8702 157.627 36.2248 156.61 36.2248ZM155.441 61.3795H155.187V60.9995H155.441C155.873 60.9995 156.254 60.9489 156.635 60.8729C157.017 60.7969 157.372 60.5689 157.703 60.2142C158.338 59.6316 158.719 58.6437 158.872 57.3011C159.024 55.9585 159.075 54.4132 159.075 52.6653V44.9137C159.075 44.4324 158.847 44.1791 158.389 44.1791H158.084V43.7991C159.685 43.6724 161.185 43.1911 162.557 42.4058C163.93 41.6205 165.073 40.6073 165.988 39.3913H166.344V50.4107C166.344 51.88 166.065 53.2733 165.505 54.5905C164.946 55.9078 164.158 57.0731 163.167 58.0863C162.176 59.0996 161.007 59.8849 159.66 60.4676C158.313 61.0502 156.915 61.3542 155.441 61.3795ZM164.285 36.2248C163.294 36.2248 162.456 35.8702 161.744 35.1862C161.032 34.4769 160.676 33.6409 160.676 32.6277C160.676 31.6144 161.032 30.7531 161.744 30.0691C162.456 29.3598 163.32 29.0305 164.285 29.0305C165.251 29.0305 166.166 29.3852 166.852 30.0691C167.564 30.7784 167.894 31.6144 167.894 32.6277C167.894 33.6409 167.539 34.5022 166.852 35.1862C166.141 35.8955 165.302 36.2248 164.285 36.2248Z" fill="white"/>
<path d="M182.686 61.4048H181.644C180.373 61.3035 179.179 60.9995 178.061 60.5182C176.688 59.9355 175.519 59.1249 174.502 58.1116C173.511 57.0983 172.723 55.9331 172.164 54.6158C171.605 53.2985 171.326 51.9053 171.326 50.436V30.7277C171.326 30.2464 171.071 29.9931 170.588 29.9931H170.283V29.6131C171.885 29.4864 173.384 29.0051 174.757 28.2198C176.129 27.4345 177.273 26.4213 178.239 25.2053H178.62V52.6906C178.62 54.4385 178.696 55.9837 178.823 57.3263C178.95 58.6689 179.357 59.6315 179.992 60.2395C180.348 60.5942 180.704 60.7968 181.085 60.8981C181.466 60.9741 182.025 61.0248 182.712 61.0248V61.4048H182.686Z" fill="white"/>
<path d="M196.055 61.4047H181.797V61.0247H185.533V50.9173C185.533 49.4733 185.787 48.1308 186.321 46.8641C186.854 45.5975 187.617 44.4576 188.608 43.4443C189.599 42.4564 190.743 41.6964 192.039 41.1644C193.31 40.6325 194.657 40.3792 196.055 40.3792C197.453 40.3792 198.85 40.6325 200.121 41.1644C201.392 41.6964 202.536 42.4564 203.552 43.4443C204.569 44.4323 205.306 45.5722 205.84 46.8641C206.373 48.1308 206.628 49.4987 206.628 50.9173C206.628 52.3359 206.373 53.6531 205.84 54.9197C205.306 56.1863 204.543 57.3263 203.552 58.3396C202.561 59.3275 201.417 60.0875 200.121 60.6194C198.825 61.1514 197.478 61.4047 196.055 61.4047ZM196.106 61.0247C198.012 61.0247 199.028 59.7328 199.206 57.1489C199.282 56.0343 199.308 54.8184 199.308 53.4758V48.2827C199.308 46.9655 199.282 45.7495 199.206 44.6603C199.028 42.0511 197.986 40.7338 196.106 40.7338C194.225 40.7338 193.132 42.0511 192.954 44.6603C192.878 45.7495 192.852 46.9401 192.852 48.2827V61.0247H196.106ZM209.296 61.4047H208.61C205.179 61.4047 202.129 60.1381 199.511 57.6303L199.765 57.3769C202.282 59.8341 205.23 61.0501 208.61 61.0501H209.296V61.4301V61.4047Z" fill="white"/>
<path d="M215.777 59.0489C215.015 59.6315 214.176 60.1382 213.261 60.5182C211.965 61.0755 210.567 61.3794 209.093 61.4048H208.839V61.0248H209.093C209.525 61.0248 209.906 60.9995 210.262 60.9235C210.643 60.8221 211.024 60.5942 211.355 60.2395C211.99 59.6569 212.371 58.6689 212.524 57.301C212.676 55.9837 212.727 54.4385 212.727 52.6906V44.939C212.727 44.4577 212.499 44.2043 212.041 44.2043H211.736V43.8244C213.337 43.6977 214.837 43.2164 216.209 42.4058C217.582 41.6458 218.725 40.6325 219.64 39.4166H219.996V50.436C219.996 51.9053 219.717 53.2985 219.157 54.6411C218.598 55.9331 217.81 57.0983 216.794 58.1116C216.54 58.3649 216.311 58.5929 216.057 58.7956C218.192 60.2902 220.555 61.0501 223.148 61.0501H223.58V61.4301H223.148C220.403 61.4301 217.963 60.6448 215.777 59.0742V59.0489ZM216.997 36.2501C215.98 36.2501 215.116 35.8954 214.43 35.2115C213.718 34.5022 213.388 33.6662 213.388 32.6529C213.388 31.6397 213.744 30.7784 214.43 30.0944C215.142 29.3851 215.98 29.0558 216.997 29.0558C218.014 29.0558 218.878 29.4104 219.564 30.0944C220.276 30.8037 220.606 31.6397 220.606 32.6529C220.606 33.6662 220.25 34.5275 219.564 35.2115C218.852 35.9208 218.014 36.2501 216.997 36.2501Z" fill="white"/>
<path d="M225.943 70.9803C224.927 70.9803 224.063 70.6257 223.376 69.9417C222.69 69.2577 222.334 68.3965 222.334 67.3832C222.334 66.3699 222.69 65.5086 223.376 64.8246C224.063 64.1407 224.927 63.786 225.943 63.786C226.96 63.786 227.824 64.1407 228.51 64.8246C229.196 65.5086 229.552 66.3699 229.552 67.3832C229.552 68.3965 229.196 69.2577 228.51 69.9417C227.824 70.6257 226.96 70.9803 225.943 70.9803ZM228.104 61.0248C228.536 61.0248 228.917 60.9995 229.273 60.9235C229.654 60.8222 230.035 60.5942 230.366 60.2395C231.001 59.6569 231.382 58.669 231.535 57.301C231.687 55.9838 231.738 54.4385 231.738 52.6906V44.939C231.738 44.4577 231.509 44.2044 231.052 44.2044H230.747V43.8244C232.348 43.6977 233.848 43.2164 235.22 42.4058C236.592 41.6458 237.736 40.6326 238.651 39.4166H239.007V50.4361C239.007 51.9053 238.727 53.2986 238.168 54.6412C237.609 55.9331 236.821 57.0984 235.804 58.1117C235.55 58.365 235.322 58.593 235.067 58.7956C237.202 60.2902 239.566 61.0502 242.158 61.0502H242.565V61.4302H242.158C239.413 61.4302 236.974 60.6449 234.788 59.0743C234.025 59.6569 233.187 60.1635 232.272 60.5435C230.976 61.1008 229.578 61.4048 228.104 61.4302H223.376V61.0502H228.104V61.0248ZM233.619 70.9803C232.628 70.9803 231.789 70.6257 231.077 69.9417C230.366 69.2324 230.01 68.3965 230.01 67.3832C230.01 66.3699 230.366 65.5086 231.077 64.8246C231.789 64.1153 232.653 63.786 233.619 63.786C234.585 63.786 235.5 64.1407 236.186 64.8246C236.872 65.5086 237.228 66.3699 237.228 67.3832C237.228 68.3965 236.872 69.2577 236.186 69.9417C235.5 70.6257 234.635 70.9803 233.619 70.9803Z" fill="white"/>
<path d="M272.428 61.4048H271.996C269.429 61.4048 267.218 60.5435 265.363 58.8463C263.329 60.4929 260.966 61.3542 258.272 61.4048C255.196 61.4048 252.63 60.1889 250.596 57.7823C248.385 60.1129 245.64 61.3288 242.387 61.4048V61.0248C242.845 61.0248 243.277 60.9742 243.683 60.8982C244.09 60.8222 244.471 60.5942 244.827 60.2395C245.488 59.6569 245.894 58.669 246.047 57.3264C246.199 55.9838 246.25 54.4385 246.25 52.6906V44.939C246.25 44.4577 245.996 44.2044 245.513 44.2044H245.208V43.8244C246.809 43.6977 248.309 43.2164 249.681 42.4311C251.054 41.6458 252.197 40.6326 253.163 39.4166H253.544V50.4361C253.544 53.0959 252.655 55.4265 250.901 57.453C252.833 59.8342 255.298 61.0248 258.323 61.0248C258.78 61.0248 259.212 60.9742 259.619 60.8982C260.025 60.8222 260.407 60.5942 260.737 60.2395C261.398 59.6569 261.804 58.669 261.957 57.3264C262.084 55.9838 262.16 54.4385 262.16 52.6906V44.939C262.16 44.4577 261.906 44.2044 261.423 44.2044H261.118V43.8244C262.719 43.6977 264.219 43.2164 265.591 42.4311C266.964 41.6458 268.108 40.6326 269.073 39.4166H269.429V50.4361C269.429 51.9053 269.124 53.2986 268.54 54.6412C267.879 56.1864 266.938 57.4784 265.693 58.5676C267.472 60.2142 269.607 61.0248 272.047 61.0248C272.53 61.0248 272.987 60.9742 273.394 60.8982C273.801 60.8222 274.182 60.5942 274.538 60.2395C275.173 59.6569 275.554 58.669 275.707 57.3264C275.859 55.9838 275.91 54.4385 275.91 52.6906V44.939C275.91 44.4577 275.681 44.2044 275.224 44.2044H274.919V43.8244C276.52 43.6977 278.02 43.2164 279.392 42.4311C280.764 41.6458 281.908 40.6326 282.798 39.4166H283.179V50.4361C283.179 51.9053 282.899 53.2986 282.34 54.6158C281.781 55.9331 280.993 57.0984 280.002 58.1117C279.011 59.1249 277.842 59.9102 276.545 60.4929C275.249 61.0755 273.902 61.3795 272.504 61.4048H272.428Z" fill="white"/>
</g>
<defs>
<clipPath id="clip0_133_44">
<rect width="286" height="103" fill="white"/>
</clipPath>
</defs>
</svg>
