<svg width="121" height="41" viewBox="0 0 121 41" fill="none" xmlns="http://www.w3.org/2000/svg">
<g clip-path="url(#clip0_80_809)">
<path d="M8.25961 12.9224C8.31304 11.7398 8.37411 11.0941 8.45045 10.9852C8.48862 10.9152 8.53442 10.7907 8.58785 10.6273C8.64129 10.4639 8.70236 10.3395 8.77869 10.2695C9.06877 9.97381 9.47335 9.77154 10.0001 9.66262C10.5268 9.5537 11.023 9.46034 11.4886 9.38254C12.5344 9.34364 13.3054 9.56926 13.794 10.0438C14.2825 10.5262 14.6184 11.1408 14.794 11.8954C14.9772 12.6501 15.0764 13.4748 15.0917 14.3539C15.1069 15.2408 15.1756 16.0343 15.2825 16.7345C16.6566 16.9913 17.9848 17.1702 19.2672 17.2636C20.5497 17.3569 21.8627 17.2558 23.1985 16.9602C23.7787 15.2641 23.9924 13.607 23.8474 11.981C23.7024 10.355 23.2901 8.85351 22.6031 7.47647C21.9161 6.09165 20.9924 4.87021 19.8321 3.79659C18.6718 2.73074 17.3817 1.86717 15.9543 1.22144C14.5268 0.575712 13.0001 0.194498 11.3665 0.0855793C9.74052 -0.0233391 8.09167 0.194498 6.42755 0.74687C5.92373 0.894687 5.43518 1.07362 4.9619 1.2759C4.48862 1.47818 4.0535 1.72714 3.65655 2.02277C2.96953 2.65294 2.38174 3.36869 1.8932 4.1778C1.40465 4.98691 1.00007 5.87381 0.671821 6.83074C0.45808 7.38311 0.282508 7.98216 0.160371 8.62789C0.0305996 9.27363 0.00769881 9.91158 0.0764011 10.534C0.0382332 13.5214 0.0153324 16.151 -0.00756836 18.415C6.5228e-05 20.6945 6.5228e-05 22.725 0.0153324 24.5066C0.0305996 26.296 0.0611339 27.9065 0.0993019 29.3457C0.13747 30.785 0.190905 32.1698 0.259607 33.4924C0.404645 35.0406 0.885561 36.3321 1.69472 37.3668C2.51152 38.4015 3.51152 39.2028 4.70999 39.7708C5.90083 40.3387 7.19091 40.7121 8.56495 40.8755C9.939 41.0389 11.2749 41.0311 12.5802 40.8444C14.5726 40.8055 16.3512 40.2998 17.9237 39.3273C19.4962 38.3471 20.7711 37.1023 21.7482 35.593C22.7253 34.0837 23.3588 32.3799 23.6489 30.4738C23.939 28.5755 23.7787 26.6694 23.1604 24.7478C22.6566 24.6 22.084 24.5066 21.4504 24.4755C20.8169 24.4366 20.1756 24.4211 19.5268 24.4211C18.8779 24.4211 18.2291 24.4366 17.6031 24.4755C16.9695 24.5144 16.397 24.4911 15.8932 24.4211C15.71 25.3391 15.6489 26.2727 15.7024 27.214C15.7558 28.1554 15.5879 29.0501 15.1833 29.8981C14.8245 30.6372 14.2901 31.1584 13.5802 31.4774C12.8779 31.7886 12.1222 31.9131 11.3283 31.8353C10.2749 31.5397 9.52678 30.8861 9.0764 29.8748C8.62602 28.8634 8.34358 27.8209 8.23671 26.7472C8.12984 25.4558 8.0764 23.9387 8.0764 22.1882C8.0764 20.4378 8.09167 18.7495 8.12984 17.1313C8.168 15.5053 8.21381 14.1049 8.26724 12.9302L8.25961 12.9224ZM57.9772 8.45674C58.9695 8.46452 60.0382 8.48008 61.1756 8.49564C62.313 8.5112 63.3817 8.53454 64.3741 8.5501C65.3665 8.56565 66.2138 8.57344 66.9161 8.57344H68.1604C68.0153 7.84991 67.9695 7.1186 68.023 6.37951C68.0764 5.64042 68.0917 4.89355 68.0688 4.15446H54.3207C54.3207 4.20892 54.3207 4.41898 54.3054 4.79241C54.2978 5.16584 54.2825 5.58596 54.2749 6.05275C54.2672 6.51955 54.252 6.97856 54.2443 7.41423C54.2367 7.85769 54.2291 8.18444 54.2291 8.3945C54.3359 8.3945 54.7329 8.40228 55.4428 8.41784C56.1451 8.4334 56.9924 8.44896 57.9848 8.45674H57.9772ZM46.9466 16.6567C46.7482 15.6065 46.4657 14.914 46.1069 14.5795C45.3436 13.9182 44.4962 13.4592 43.5573 13.1947C42.6184 12.938 41.6489 12.829 40.6566 12.8602C39.6642 12.8991 38.6947 13.078 37.7558 13.4125C36.8169 13.7471 35.9619 14.1905 35.2062 14.7429C35.023 14.8907 34.8016 15.0385 34.5268 15.1863C34.252 15.3342 34.0306 15.4664 33.8474 15.5753V1.6649C33.8474 0.871348 33.8321 0.381215 33.794 0.202278C33.794 0.0933592 33.6489 0.0311201 33.3588 0.00778042C33.0688 -0.00777935 32.7405 5.30446e-07 32.3817 0.0389C32.023 0.0777994 31.6566 0.124479 31.2978 0.178938C30.939 0.233397 30.6795 0.264517 30.5344 0.264517C30.0993 0.303416 29.7405 0.326756 29.4504 0.350095C29.1604 0.365655 28.8856 0.381215 28.6336 0.381215C28.3817 0.381215 28.1069 0.373435 27.8169 0.350095C27.5268 0.334536 27.168 0.303416 26.7329 0.264517C26.6947 1.89051 26.6718 3.79659 26.6489 5.99051C26.6337 8.18444 26.6184 10.5184 26.6184 12.9846V20.5856C26.6184 23.1841 26.626 25.7047 26.6489 28.1321C26.6642 30.5672 26.6871 32.8389 26.7024 34.9628C26.7176 37.0867 26.7329 38.8994 26.7329 40.4087C27.6031 40.3309 28.3207 40.3154 28.9008 40.3543C29.481 40.3932 30.0001 40.4165 30.4733 40.4398C30.9466 40.4554 31.4046 40.4476 31.855 40.4087C32.3054 40.3698 32.8398 40.2609 33.4581 40.0742V39.8564C33.6031 38.6427 33.6718 37.4213 33.6718 36.2076C33.6718 34.9939 33.6413 33.7647 33.5878 32.5277C33.5344 31.2907 33.4886 30.0615 33.4504 28.8245C33.4123 27.5875 33.4352 26.3271 33.5039 25.0357C33.5726 24.0398 33.8321 23.293 34.2672 22.7951C34.7024 22.2972 35.1909 21.9626 35.7329 21.7992C36.2749 21.6359 36.8245 21.597 37.3894 21.6903C37.9466 21.7837 38.3741 21.9004 38.6642 22.0482C38.7024 22.0871 38.7329 22.1027 38.7711 22.1027C38.8092 22.1027 38.8398 22.1182 38.8779 22.1571C39.168 22.375 39.397 22.6939 39.5573 23.0985C39.7176 23.503 39.8474 23.962 39.939 24.4833C40.0306 24.9968 40.0917 25.5258 40.1298 26.0626C40.168 26.5994 40.1985 27.0818 40.2367 27.5252C40.3054 28.5211 40.3512 29.5869 40.3741 30.7306C40.3894 31.8742 40.3894 33.0178 40.3741 34.1615C40.3588 35.3051 40.3436 36.4099 40.3436 37.4835C40.3436 38.5571 40.3817 39.514 40.4504 40.362C41.7176 40.362 42.8474 40.3698 43.8398 40.3932C44.8321 40.4087 45.9619 40.3309 47.2291 40.1442C47.1527 38.8917 47.1375 37.4368 47.1756 35.7719C47.2138 34.1148 47.2443 32.3877 47.2825 30.5983C47.3207 28.8089 47.3436 27.0429 47.3665 25.2846C47.3817 23.5342 47.3665 21.9237 47.313 20.4455C47.2596 18.9751 47.1298 17.707 46.9314 16.6567H46.9466ZM71.1527 17.1858C70.626 15.9332 69.855 14.8596 68.8474 13.9805C67.8321 13.0935 66.4962 12.5023 64.8321 12.2066C63.5268 11.8721 62.1909 11.7321 60.8169 11.7632C59.4428 11.8021 58.1375 12.0121 56.9085 12.4011C55.6795 12.7901 54.5726 13.3581 53.5955 14.1127C52.6184 14.8674 51.8932 15.7854 51.4276 16.8512C50.9924 18.0649 50.71 19.3097 50.5878 20.5856C50.4581 21.8615 50.3436 23.1763 50.2367 24.5378C50.1604 26.0471 50.1985 27.5641 50.3436 29.0734C50.4886 30.5827 50.7558 32.0142 51.1604 33.3602C51.5573 34.7061 52.084 35.9431 52.7329 37.0634C53.3817 38.1915 54.1985 39.1017 55.1756 39.8019C56.0459 40.3154 56.9848 40.6499 58.0001 40.7977C59.0153 40.7977 60.1222 40.8366 61.3359 40.9066C62.5497 40.9767 63.7329 40.9767 64.8932 40.9066C66.0535 40.8288 67.1146 40.611 68.0917 40.2453C69.0688 39.8797 69.8627 39.2495 70.481 38.3626C70.7329 38.1448 70.939 37.748 71.1069 37.1723C71.2672 36.6044 71.4046 35.9197 71.5115 35.1262C71.6184 34.3326 71.71 33.4768 71.7863 32.551C71.855 31.633 71.9314 30.6917 72.0001 29.7269C71.6031 29.618 71.0993 29.5558 70.481 29.5324C69.8627 29.5169 69.2214 29.5247 68.5573 29.5636C67.8856 29.6025 67.2443 29.6258 66.6337 29.6491C66.0153 29.6725 65.5268 29.6569 65.168 29.6258C65.2367 31.1351 65.0153 32.271 64.4886 33.0256C63.9619 33.7803 63.3207 34.2315 62.565 34.3793C61.8016 34.5271 61.0306 34.3949 60.2291 33.9903C59.4352 33.5858 58.8169 32.9556 58.3817 32.1076C57.9848 31.4463 57.7558 30.7617 57.7024 30.0615C57.6489 29.3613 57.6031 28.4588 57.565 27.3541V26.3583C57.9237 26.4361 58.5039 26.4905 59.2978 26.5216C60.0917 26.5605 60.9848 26.5761 61.9848 26.5761C62.9848 26.5761 64.023 26.5605 65.1069 26.5216C66.1909 26.4827 67.2138 26.4283 68.1756 26.3583C69.1375 26.2882 69.9695 26.2104 70.6718 26.1404C71.3741 26.0704 71.855 25.9926 72.1069 25.9226C72.2138 24.3744 72.2138 22.8417 72.1069 21.3324C72.0001 19.8232 71.6795 18.4383 71.1604 17.1858H71.1527ZM66.2443 21.9704C66.2443 22.0638 66.1451 22.1182 65.9466 22.1338C65.7482 22.1493 65.4123 22.1416 64.939 22.1104C64.4657 22.0715 63.7634 22.056 62.8245 22.056C61.4505 22.056 60.4123 22.0638 59.7024 22.0871C59.0001 22.1027 58.481 22.0871 58.1527 22.0326C57.8245 21.9782 57.6566 21.8693 57.6337 21.6981C57.6184 21.5347 57.6413 21.2469 57.7176 20.8423C57.7863 20.36 57.9085 19.9009 58.0688 19.4575C58.2291 19.014 58.4733 18.625 58.8016 18.2983C59.1298 17.9638 59.5649 17.707 60.1069 17.5203C60.6489 17.3336 61.3512 17.2402 62.2214 17.2402C62.6184 17.2402 62.9619 17.2869 63.252 17.3803C63.5421 17.4736 63.8321 17.6137 64.1222 17.7926C64.7711 18.1271 65.2901 18.625 65.6718 19.2863C66.0535 19.9476 66.2443 20.6478 66.2443 21.3869V21.9704ZM120.893 21.6359C120.855 20.4767 120.763 19.403 120.618 18.4306C120.473 17.4503 120.26 16.5945 119.97 15.8554C119.679 15.1163 119.283 14.5795 118.779 14.2528C118.015 13.5137 117.115 12.9535 116.069 12.5645C115.015 12.1755 113.916 11.9499 112.756 11.8721C111.992 11.8021 111.283 11.7865 110.611 11.841C109.939 11.8954 109.244 11.8877 108.519 11.8099C107.649 11.8099 106.794 11.8643 105.939 11.9732C105.092 12.0822 104.29 12.2767 103.55 12.5567C102.809 12.829 102.153 13.1713 101.595 13.5759C101.038 13.9805 100.626 14.4628 100.374 15.0152C100.267 15.4197 100.107 15.9643 99.8856 16.649C99.6718 17.3336 99.5421 17.8782 99.5039 18.2827C99.397 18.9829 99.3207 19.6598 99.2901 20.2977C99.252 20.9435 99.2367 21.597 99.2367 22.2583C99.3436 23.4719 99.3741 24.8178 99.3207 26.296C99.2672 27.7742 99.2749 29.2368 99.3512 30.6917C99.4199 32.1465 99.6413 33.5391 100 34.8694C100.359 36.1998 101.031 37.3046 102.008 38.1915C103.275 39.4829 104.832 40.292 106.672 40.6266C107.687 40.6266 108.809 40.6732 110.038 40.7666C111.267 40.86 112.458 40.86 113.618 40.7666C114.779 40.6732 115.855 40.4476 116.847 40.0742C117.84 39.7085 118.649 39.0784 119.26 38.1915C119.618 37.8258 119.901 37.1412 120.099 36.1454C120.298 35.1495 120.458 34.0214 120.588 32.7689C120.718 31.5163 120.802 30.2093 120.863 28.84C120.916 27.4786 120.962 26.2571 121 25.1913C120.962 23.9776 120.931 22.7873 120.893 21.6203V21.6359ZM114.191 26.9417C114.099 28.1398 113.985 29.3302 113.84 30.5127C113.626 31.4385 113.206 32.0453 112.595 32.341C112.122 32.5977 111.527 32.7767 110.802 32.87C110.076 32.9634 109.382 32.9245 108.71 32.7611C108.038 32.5977 107.473 32.2787 107 31.8197C106.527 31.3607 106.313 30.7072 106.351 29.8592C106.42 28.5677 106.458 27.3463 106.458 26.1793C106.458 25.0123 106.527 23.8454 106.672 22.6706C106.779 22.0793 106.947 21.7137 107.16 21.5658C107.634 20.9746 108.244 20.57 109.008 20.3522C110.42 20.0176 111.557 20.1499 112.428 20.7412C113.298 21.3324 113.817 22.2738 114 23.5575C114.214 24.6311 114.283 25.7592 114.191 26.9573V26.9417ZM96.7482 12.759C96.6031 12.689 96.2138 12.6579 95.5802 12.6734C94.9466 12.689 94.252 12.7123 93.4886 12.7279C92.7253 12.7435 91.9924 12.7668 91.2901 12.7824C90.5879 12.7979 90.084 12.7746 89.8016 12.6968C87.8474 12.6968 85.5802 12.7046 82.9924 12.7279C80.4046 12.7435 77.6489 12.759 74.7176 12.759C74.7558 13.5681 74.7558 14.2683 74.7176 14.8596C74.6795 15.4509 74.6566 16.0266 74.6337 16.6023C74.6184 17.178 74.6031 17.8082 74.6031 18.5084C74.6031 19.2085 74.6413 20.0565 74.71 21.0524C75.5039 20.9435 76.4046 20.8345 77.397 20.7178C78.3894 20.6089 79.4352 20.5156 80.5191 20.4378C81.6031 20.3677 82.6871 20.3055 83.7787 20.2744C84.8627 20.2355 85.8779 20.2044 86.8169 20.1655C85.9161 21.2702 84.9161 22.3516 83.8321 23.4019C82.7482 24.4522 81.6413 25.5025 80.5191 26.5528C79.397 27.603 78.313 28.6767 77.2596 29.7581C76.2138 30.8472 75.252 31.9598 74.3817 33.1034C74.3436 33.6558 74.3359 34.1381 74.3512 34.5427C74.3665 34.9473 74.397 35.3907 74.4352 35.8731C74.4734 36.3554 74.4963 36.9233 74.5191 37.5846C74.5344 38.2459 74.5268 39.1173 74.4962 40.1831C76.2291 40.1831 78.0382 40.1753 79.9237 40.152C81.8016 40.1364 83.7024 40.1053 85.6184 40.0664C87.5344 40.0275 89.4275 39.9964 91.2901 39.9575C93.1527 39.9186 94.9161 39.8875 96.5802 39.8486C96.5802 38.5571 96.5649 37.2501 96.5268 35.9197C96.4886 34.5894 96.4733 33.3368 96.4733 32.162C94.5191 32.4577 92.5191 32.551 90.4733 32.4343C88.4275 32.3254 86.5039 32.341 84.6947 32.4888C86.542 30.3882 88.5497 28.311 90.7176 26.2649C92.8856 24.2188 94.8932 22.1805 96.7405 20.1499C96.5955 18.9362 96.5573 17.7459 96.6337 16.5789C96.71 15.412 96.7405 14.1361 96.7405 12.7357L96.7482 12.759Z" fill="#505050"/>
</g>
<defs>
<clipPath id="clip0_80_809">
<rect width="121" height="41" fill="white"/>
</clipPath>
</defs>
</svg>
