<svg width="119" height="54" viewBox="0 0 119 54" fill="none" xmlns="http://www.w3.org/2000/svg">
<path d="M0.0353709 41.5332L13.0059 7.57615H22.172L35.1426 41.5332H26.2773L23.216 33.8358H11.8734L8.86527 41.5332H0H0.0353709ZM13.059 27.554H22.0836L17.5536 15.7513L13.0767 27.554H13.059Z" fill="#505050"/>
<path d="M44.4857 42.064C41.743 42.064 39.7788 41.4624 38.5755 40.2768C37.3723 39.0735 36.7883 37.1625 36.7883 34.5259V6.00128H45.282V33.6765C45.282 34.4905 45.4413 35.039 45.7775 35.3399C46.1137 35.6407 46.6092 35.7822 47.2816 35.7822C48.2371 35.7822 49.0688 35.6584 49.812 35.4106V41.1616C48.998 41.4801 48.2017 41.7101 47.4054 41.8517C46.6091 41.9932 45.6359 42.064 44.4857 42.064Z" fill="#505050"/>
<path d="M62.3045 42.064C60.305 42.064 58.4116 41.9225 56.6067 41.6394C54.8195 41.3562 53.3862 41.0023 52.3422 40.5776V34.0835C53.5631 34.6144 54.9964 35.0214 56.6067 35.3045C58.217 35.5876 59.668 35.7292 60.9243 35.7292C62.4284 35.7292 63.5255 35.6584 64.2156 35.5168C64.9057 35.3753 65.2419 34.986 65.2419 34.3489C65.2419 33.6411 64.6757 33.1103 63.5609 32.7741C62.4284 32.4202 60.8889 31.907 58.9248 31.2523C56.6421 30.4383 54.908 29.5005 53.7224 28.4388C52.5368 27.3594 51.9529 25.7845 51.9529 23.6611C51.9529 21.2014 52.873 19.3081 54.7133 17.9986C56.5536 16.6715 59.5087 16.0168 63.5432 16.0168C65.1181 16.0168 66.6929 16.1406 68.2324 16.3884C69.7719 16.6361 71.0459 16.9192 72.0369 17.2377V23.6257C71.0459 23.1656 69.9311 22.8294 68.6571 22.6171C67.383 22.4047 66.2506 22.2985 65.2243 22.2985C63.9148 22.2985 62.8177 22.3693 61.933 22.5286C61.0305 22.6878 60.5881 23.0594 60.5881 23.6611C60.5881 24.3335 61.0836 24.7936 62.0568 25.059C63.0477 25.3244 64.4634 25.7491 66.3213 26.3507C68.2855 26.9524 69.825 27.5894 70.9044 28.2795C72.0015 28.9696 72.7624 29.7836 73.2225 30.7391C73.6825 31.6947 73.9126 32.8802 73.9126 34.3312C73.9126 36.8263 72.9216 38.7373 70.9575 40.0822C68.9933 41.427 66.0913 42.0817 62.2515 42.0817" fill="#505050"/>
<path d="M76.9739 22.8117H80.6545V41.5332H89.1481V16.5299H77.6994L76.9739 22.8117Z" fill="#505050"/>
<path d="M102.384 42.064C100.809 42.064 99.3405 41.7809 97.978 41.2147C96.6332 40.6484 95.5361 39.7814 94.7398 38.5958C93.9258 37.4102 93.5188 35.9592 93.5188 34.1897C93.5188 31.6239 94.3859 29.6066 96.12 28.1556C97.8541 26.7046 100.473 25.9614 103.941 25.9614H110.895V25.3775C110.895 24.1034 110.471 23.201 109.621 22.6701C108.772 22.1216 107.197 21.8561 104.879 21.8561C102.03 21.8561 99.2344 22.2985 96.4916 23.1656V17.6801C97.7303 17.1846 99.2167 16.7776 101.004 16.4591C102.773 16.1406 104.649 15.9814 106.613 15.9814C110.488 15.9814 113.514 16.7776 115.709 18.3525C117.903 19.9274 119 22.4401 119 25.8907V41.4978H111.568L111.143 39.3921C110.223 40.2414 109.055 40.8785 107.64 41.3385C106.224 41.7986 104.454 42.0286 102.349 42.0286M105.038 36.8086C106.366 36.8086 107.533 36.5785 108.524 36.1185C109.515 35.6584 110.294 35.0744 110.895 34.3843V30.8453H104.879C102.384 30.8453 101.128 31.8539 101.128 33.8535C101.128 34.7736 101.446 35.4814 102.083 36.0123C102.72 36.5431 103.694 36.8086 105.038 36.8086Z" fill="#505050"/>
<path d="M4.88365 52.1149H2.15861L1.69852 53.442H0.58374L2.91949 46.9125H4.15814L6.49392 53.442H5.36143L4.90134 52.1149H4.88365ZM4.58284 51.2478L3.52112 48.2219L2.45942 51.2478H4.58284Z" fill="#505050"/>
<path d="M17.8189 48.8059C17.6419 48.4874 17.4119 48.2396 17.1111 48.0627C16.8103 47.9034 16.4564 47.815 16.0671 47.815C15.6424 47.815 15.2531 47.9034 14.9169 48.0981C14.5807 48.2927 14.3152 48.5582 14.1206 48.9297C13.9259 49.2837 13.8375 49.6907 13.8375 50.1684C13.8375 50.6462 13.9259 51.0532 14.1206 51.4071C14.3152 51.761 14.5807 52.0441 14.9169 52.2388C15.2531 52.4334 15.6424 52.5219 16.0671 52.5219C16.651 52.5219 17.1111 52.3626 17.4827 52.0264C17.8366 51.7079 18.0666 51.2655 18.1551 50.6993H15.7131V49.8499H19.3053V50.6816C19.2345 51.1947 19.0576 51.6548 18.7744 52.0795C18.4913 52.5042 18.102 52.8404 17.6419 53.0881C17.1819 53.3358 16.651 53.4597 16.0848 53.4597C15.4654 53.4597 14.9169 53.3182 14.4037 53.035C13.8906 52.7519 13.5013 52.3626 13.2004 51.8495C12.8996 51.3363 12.7581 50.77 12.7581 50.133C12.7581 49.496 12.8996 48.9297 13.2004 48.4166C13.5013 47.9034 13.9083 47.5141 14.4037 47.231C14.9169 46.9479 15.4654 46.8063 16.0848 46.8063C16.7749 46.8063 17.3942 46.9833 17.9428 47.3195C18.4913 47.6557 18.8806 48.1512 19.1106 48.7705H17.8189V48.8059Z" fill="#505050"/>
<path d="M29.3561 53.442L27.852 50.8408H27.038V53.442H25.9763V46.9302H28.2236C28.7191 46.9302 29.1438 47.0187 29.4977 47.1956C29.8516 47.3726 30.0993 47.6026 30.2763 47.9034C30.4532 48.2043 30.5417 48.5228 30.5417 48.8944C30.5417 49.3191 30.4178 49.7084 30.1701 50.0446C29.9223 50.3985 29.5507 50.6285 29.0376 50.7524L30.6478 53.4597H29.3738L29.3561 53.442ZM27.038 49.9915H28.2236C28.6306 49.9915 28.9314 49.8853 29.1261 49.6906C29.3207 49.496 29.4269 49.2306 29.4269 48.8767C29.4269 48.5228 29.3207 48.275 29.1261 48.0804C28.9314 47.8857 28.6306 47.7973 28.2236 47.7973H27.038V49.9738V49.9915Z" fill="#505050"/>
<path d="M38.5932 46.9302H37.5315V53.442H38.5932V46.9302Z" fill="#505050"/>
<path d="M45.7065 48.4697C46.0074 47.9565 46.4143 47.5672 46.9098 47.2841C47.423 47.001 47.9715 46.8594 48.5908 46.8594C49.2809 46.8594 49.9003 47.0364 50.4488 47.3726C50.9974 47.7088 51.3867 48.2042 51.6167 48.8236H50.325C50.148 48.4874 49.918 48.2219 49.6172 48.0627C49.3163 47.9034 48.9624 47.8149 48.5731 47.8149C48.1485 47.8149 47.7592 47.9034 47.4229 48.0981C47.0867 48.2927 46.8213 48.5758 46.6267 48.9297C46.432 49.3013 46.3436 49.7083 46.3436 50.2038C46.3436 50.6993 46.432 51.1062 46.6267 51.4778C46.8213 51.8494 47.0867 52.1149 47.4229 52.3095C47.7592 52.5042 48.1485 52.6103 48.5731 52.6103C48.9624 52.6103 49.3163 52.5219 49.6172 52.3626C49.918 52.1857 50.148 51.9379 50.325 51.6017H51.6167C51.369 52.221 50.9797 52.6988 50.4488 53.0527C49.9003 53.3889 49.2986 53.5659 48.5908 53.5659C47.9715 53.5659 47.423 53.4243 46.9098 53.1412C46.3966 52.8581 46.0074 52.4688 45.7065 51.9556C45.4057 51.4424 45.2642 50.8762 45.2642 50.2392C45.2642 49.6021 45.4057 49.0359 45.7065 48.5228" fill="#505050"/>
<path d="M59.5443 46.9302V51.0886C59.5443 51.584 59.6681 51.9556 59.9335 52.2034C60.199 52.4511 60.5529 52.575 61.013 52.575C61.473 52.575 61.8446 52.4511 62.11 52.2034C62.3755 51.9556 62.4993 51.584 62.4993 51.0886V46.9302H63.5611V51.0709C63.5611 51.6017 63.4372 52.0441 63.2072 52.4157C62.9771 52.7873 62.6586 53.0527 62.287 53.2474C61.8977 53.4243 61.473 53.5128 60.9953 53.5128C60.5175 53.5128 60.0928 53.4243 59.7212 53.2474C59.3319 53.0704 59.0311 52.7873 58.8011 52.4157C58.571 52.0441 58.4648 51.6017 58.4648 51.0709V46.9302H59.5266H59.5443Z" fill="#505050"/>
<path d="M71.6476 52.5927H73.8595V53.442H70.5859V46.9302H71.6476V52.5927Z" fill="#505050"/>
<path d="M84.5828 46.9302V47.815H82.8487V53.442H81.7693V47.815H80.0352V46.9302H84.5828Z" fill="#505050"/>
<path d="M92.3333 46.9302V51.0886C92.3333 51.584 92.4572 51.9556 92.7226 52.2034C92.988 52.4511 93.3419 52.575 93.802 52.575C94.2621 52.575 94.6337 52.4511 94.8991 52.2034C95.1645 51.9556 95.2884 51.584 95.2884 51.0886V46.9302H96.3501V51.0709C96.3501 51.6017 96.2263 52.0441 95.9962 52.4157C95.7662 52.7873 95.4477 53.0527 95.0761 53.2474C94.6868 53.4243 94.2621 53.5128 93.7843 53.5128C93.3066 53.5128 92.8819 53.4243 92.5103 53.2474C92.121 53.0704 91.8202 52.7873 91.5901 52.4157C91.3601 52.0441 91.2539 51.6017 91.2539 51.0709V46.9302H92.3156H92.3333Z" fill="#505050"/>
<path d="M106.755 53.442L105.251 50.8408H104.437V53.442H103.375V46.9302H105.623C106.118 46.9302 106.543 47.0187 106.897 47.1956C107.25 47.3726 107.498 47.6026 107.675 47.9034C107.852 48.2043 107.941 48.5228 107.941 48.8944C107.941 49.3191 107.817 49.7084 107.569 50.0446C107.321 50.3985 106.95 50.6285 106.437 50.7524L108.047 53.4597H106.773L106.755 53.442ZM104.437 49.9915H105.623C106.03 49.9915 106.33 49.8853 106.525 49.6906C106.72 49.496 106.826 49.2306 106.826 48.8767C106.826 48.5228 106.72 48.275 106.525 48.0804C106.33 47.8857 106.03 47.7973 105.623 47.7973H104.437V49.9738V49.9915Z" fill="#505050"/>
<path d="M115.992 47.7973V49.7083H118.239V50.5754H115.992V52.575H118.522V53.442H114.912V46.9302H118.522V47.7973H115.992Z" fill="#505050"/>
<path fill-rule="evenodd" clip-rule="evenodd" d="M83.3086 12.7254C83.5917 9.5757 84.9365 6.51444 87.3431 4.0902C90.1389 1.29436 93.8195 -0.0681592 97.4824 0.00262151C97.5532 3.66552 96.1907 7.34612 93.3948 10.142C90.9175 12.6193 87.7501 13.9641 84.5295 14.1941L93.1294 4.19637L83.3086 12.7078V12.7254Z" fill="#505050"/>
<path fill-rule="evenodd" clip-rule="evenodd" d="M82.6186 12.9555C82.3886 10.7967 81.433 8.69095 79.7697 7.02761C77.7878 5.04575 75.1689 4.07252 72.5677 4.1256C72.5146 6.72679 73.4879 9.34568 75.4697 11.3275C77.1685 13.0263 79.345 13.9818 81.5746 14.1942L76.5137 8.35475L82.477 13.4863L82.6363 12.9555H82.6186Z" fill="#505050"/>
</svg>
