<svg width="231" height="46" viewBox="0 0 231 46" fill="none" xmlns="http://www.w3.org/2000/svg">
<path fill-rule="evenodd" clip-rule="evenodd" d="M62.7189 28.4517C62.6431 27.9781 62.6052 27.5046 62.6052 27.031C62.6052 26.5574 62.6431 26.0839 62.7189 25.6103C63.4008 21.4808 66.9999 18.45 71.1862 18.45C73.4782 18.45 75.6377 19.3403 77.2478 20.9694L77.8919 21.6134C78.0055 21.7271 78.176 21.7271 78.2896 21.6134L81.8698 18.0333C81.9835 17.9196 81.9835 17.7492 81.8698 17.6355L81.2258 16.9915C78.5549 14.3206 74.9558 12.8241 71.1673 12.8241C64.007 12.8241 57.9264 18.1659 57.0551 25.2883C56.9793 25.8755 56.9414 26.4627 56.9414 27.0499C56.9414 27.6372 56.9793 28.2244 57.0551 28.8116C57.9264 35.934 64.007 41.2758 71.1673 41.2758C74.9558 41.2758 78.5549 39.7793 81.2258 37.1084L81.8698 36.4644C81.9835 36.3507 81.9835 36.1803 81.8698 36.0666L78.2896 32.4865C78.176 32.3728 78.0055 32.3728 77.8919 32.4865L77.2478 33.1305C75.6377 34.7406 73.4593 35.6499 71.1862 35.6499C66.9999 35.6499 63.4008 32.6191 62.7189 28.4896V28.4517Z" fill="#505050"/>
<path fill-rule="evenodd" clip-rule="evenodd" d="M178.932 28.4517C178.856 27.9781 178.818 27.5046 178.818 27.031C178.818 26.5574 178.856 26.0839 178.932 25.6103C179.613 21.4808 183.213 18.45 187.399 18.45C189.691 18.45 191.85 19.3403 193.46 20.9694L194.105 21.6134C194.218 21.7271 194.389 21.7271 194.502 21.6134L198.082 18.0333C198.196 17.9196 198.196 17.7492 198.082 17.6355L197.438 16.9915C194.768 14.3206 191.168 12.8241 187.38 12.8241C180.22 12.8241 174.139 18.1659 173.268 25.2883C173.192 25.8755 173.154 26.4627 173.154 27.0499C173.154 27.6372 173.192 28.2244 173.268 28.8116C174.139 35.934 180.22 41.2758 187.38 41.2758C191.168 41.2758 194.768 39.7793 197.438 37.1084L198.082 36.4644C198.196 36.3507 198.196 36.1803 198.082 36.0666L194.502 32.4865C194.389 32.3728 194.218 32.3728 194.105 32.4865L193.46 33.1305C191.85 34.7406 189.672 35.6499 187.399 35.6499C183.213 35.6499 179.613 32.6191 178.932 28.4896V28.4517Z" fill="#505050"/>
<path fill-rule="evenodd" clip-rule="evenodd" d="M138.622 17.5976C136.387 15.1351 133.204 13.7144 129.87 13.7144C123.373 13.7144 118.05 19.0373 118.05 25.5345V40.9917C118.05 41.1432 118.183 41.2758 118.334 41.2758H123.411C123.563 41.2758 123.695 41.1432 123.695 40.9917V25.5345C123.695 22.1438 126.48 19.3593 129.87 19.3593C133.261 19.3593 136.046 22.1438 136.046 25.5345V40.9917C136.046 41.1432 136.178 41.2758 136.33 41.2758H141.406C141.558 41.2758 141.691 41.1432 141.691 40.9917V25.5345C141.691 22.1438 144.475 19.3593 147.866 19.3593C151.257 19.3593 154.041 22.1438 154.041 25.5345V40.9917C154.041 41.1432 154.174 41.2758 154.325 41.2758H159.402C159.553 41.2758 159.686 41.1432 159.686 40.9917V25.5345C159.686 19.0373 154.382 13.7144 147.866 13.7144C144.532 13.7144 141.35 15.1351 139.114 17.5976C139.058 17.6734 138.963 17.7113 138.868 17.7113C138.773 17.7113 138.679 17.6734 138.622 17.5976Z" fill="#505050"/>
<path fill-rule="evenodd" clip-rule="evenodd" d="M163.834 13.7144C163.683 13.7144 163.55 13.847 163.55 13.9985V40.9727C163.55 41.1243 163.683 41.2569 163.834 41.2569H168.911C169.062 41.2569 169.195 41.1243 169.195 40.9727V13.9985C169.195 13.847 169.062 13.7144 168.911 13.7144H163.834ZM166.373 4.29994C164.516 4.29994 163.02 5.7964 163.02 7.65277C163.02 9.50914 164.516 11.0056 166.373 11.0056C168.229 11.0056 169.725 9.50914 169.725 7.65277C169.725 5.7964 168.229 4.29994 166.373 4.29994Z" fill="#505050"/>
<path fill-rule="evenodd" clip-rule="evenodd" d="M98.274 12.9377C91.1516 13.8091 85.8098 19.8897 85.8098 27.0499C85.8098 34.2102 91.1516 40.2908 98.274 41.1621C98.8613 41.2379 99.4485 41.2758 100.036 41.2758C100.623 41.2758 101.21 41.2379 101.797 41.1621C103.066 41.0106 104.317 40.6696 105.491 40.1771C105.605 40.1393 105.662 40.0256 105.662 39.9119V34.1155C105.662 34.0019 105.605 33.9072 105.51 33.8503C105.415 33.7935 105.302 33.8124 105.207 33.8882C104.108 34.7217 102.82 35.29 101.437 35.5173C100.964 35.593 100.49 35.6309 100.017 35.6309C99.5432 35.6309 99.0696 35.593 98.596 35.5173H98.4824C94.4097 34.7596 91.4358 31.1984 91.4358 27.0499C91.4358 22.9015 94.4666 19.2646 98.596 18.5826C99.0696 18.5069 99.5432 18.469 100.017 18.469C100.49 18.469 100.964 18.5069 101.437 18.5826H101.551C105.624 19.3214 108.598 22.9015 108.598 27.0499V40.537C108.598 40.6886 108.73 40.8212 108.882 40.8212H113.958C114.11 40.8212 114.243 40.6886 114.243 40.537V27.0499C114.243 19.8897 108.901 13.8091 101.778 12.9377C101.191 12.862 100.604 12.8241 100.017 12.8241C99.4295 12.8241 98.8423 12.862 98.2551 12.9377H98.274Z" fill="#505050"/>
<path fill-rule="evenodd" clip-rule="evenodd" d="M214.619 41.1432C215.206 41.219 215.794 41.2569 216.381 41.2569C216.968 41.2569 217.555 41.219 218.143 41.1432C225.265 40.2719 230.607 34.1913 230.607 27.031C230.607 19.8707 225.265 13.7902 218.143 12.9188C217.555 12.843 216.968 12.8052 216.381 12.8052C215.794 12.8052 215.206 12.843 214.619 12.9188C207.497 13.7902 202.155 19.8707 202.155 27.031C202.155 34.1913 207.497 40.2719 214.619 41.1432ZM217.915 35.4794H217.802C217.328 35.5741 216.854 35.612 216.381 35.612C215.907 35.612 215.434 35.5741 214.96 35.4983C210.831 34.8164 207.8 31.2173 207.8 27.031C207.8 22.8447 210.774 19.3214 214.847 18.5826H214.96C215.434 18.4879 215.907 18.45 216.381 18.45C216.854 18.45 217.328 18.4879 217.802 18.5637C221.931 19.2456 224.962 22.8447 224.962 27.031C224.962 31.2173 221.988 34.7406 217.915 35.4794Z" fill="#505050"/>
<path d="M38.908 6.66778C34.6081 2.36782 28.8874 0 22.7879 0C16.6884 0 10.9867 2.36782 6.66776 6.66778C2.3678 10.9677 0 16.6884 0 22.7879C0 28.8874 2.3678 34.5891 6.66776 38.908C10.9677 43.208 16.6884 45.5758 22.7879 45.5758C28.8874 45.5758 34.5891 43.208 38.908 38.908C43.208 34.608 45.5758 28.8874 45.5758 22.7879C45.5758 16.6884 43.208 10.9867 38.908 6.66778ZM22.7879 41.9956C17.6545 41.9956 12.8241 39.9877 9.18715 36.3697C6.87616 34.0587 5.2092 31.2173 4.3189 28.1297C4.84929 28.1297 5.39862 28.0918 5.96689 28.035C6.93296 30.1755 8.22108 31.994 9.77436 33.4147C12.1801 35.6499 15.4003 37.2032 18.8289 37.7904C19.8897 37.9798 20.9126 38.0745 21.9355 38.0745C24.398 38.0745 26.8795 37.582 29.0957 36.6349C32.4675 35.1953 35.1952 32.5812 36.7864 29.2473C37.4494 27.8456 37.9419 26.4438 38.245 25.0799C38.2829 24.8905 38.3208 24.7011 38.3587 24.5117C38.9269 24.3791 39.5142 24.1896 40.0825 23.9623C40.7454 23.6971 41.3705 23.3941 42.0335 23.0341C41.9578 28.0729 39.9688 32.7896 36.4076 36.3697C32.7706 40.0067 27.9592 41.9956 22.8258 41.9956H22.7879ZM8.37258 24.4359C8.22104 24.5306 8.06954 24.6064 7.82328 24.7011V24.6064C7.76646 24.3601 7.72856 24.1328 7.69067 23.8866C7.65279 23.5267 7.65279 23.1857 7.69067 22.8637C7.80433 22.087 8.14529 21.3293 8.69462 20.78C8.73251 20.7421 8.77037 20.7042 8.78932 20.6853C8.80826 20.7042 8.84618 20.7421 8.88406 20.7989C9.39551 21.6324 9.50913 22.6553 9.26288 23.5645C9.24394 23.6214 9.20609 23.6782 9.13033 23.7918C9.0735 23.8676 9.03558 23.9434 9.03558 23.9434C8.99769 23.9813 8.90301 24.057 8.77041 24.1707C8.63781 24.2654 8.50517 24.3601 8.37258 24.4359ZM32.2592 19.2456H32.2213C32.2213 19.2456 32.1455 19.0752 32.1266 18.9994C31.7666 17.8818 31.975 16.5747 32.6191 15.6087C32.9032 15.1919 33.4147 14.7562 33.8125 14.7562C33.8693 14.7562 33.9451 14.7562 34.0398 14.8131L34.1913 14.9646C34.3428 15.1351 34.5512 15.4571 34.7028 15.817C34.9111 16.3095 35.0627 16.8399 35.1763 17.3324C35.5552 18.8668 35.6499 20.3822 35.7067 21.8408C35.5931 21.8218 35.4794 21.8029 35.3657 21.7839C35.1763 21.7461 34.9869 21.7271 34.8164 21.6703C34.3997 21.5377 33.9829 21.3293 33.623 21.0452C33.0926 20.6474 32.657 20.1359 32.3728 19.5866V19.5487L32.2592 19.2456ZM39.0406 21.2346C38.889 21.2914 38.7375 21.3483 38.586 21.4051C38.586 20.458 38.5102 19.4729 38.3587 18.469C38.0935 16.6884 37.7336 15.3814 37.1653 14.2448C36.6538 13.203 35.9529 12.4642 35.1384 12.0854C34.7217 11.8959 34.286 11.8012 33.8314 11.8012C31.5962 11.8012 29.8345 14.1122 29.2852 15.7602C28.6411 17.7113 29.0389 19.9655 30.346 21.7839C31.312 23.1478 32.638 24.076 34.1534 24.4927C34.5133 24.5874 34.8922 24.6632 35.271 24.7011C35.1195 25.3262 34.9111 25.9702 34.6459 26.6711C34.0398 28.3002 33.1684 29.7777 32.0887 30.9521C31.1037 32.0319 30.1186 32.7896 28.7926 33.4904C28.4896 33.642 28.1865 33.7935 27.8077 33.964C27.8077 33.964 27.2962 34.1724 27.1447 34.2292C26.5764 34.4376 26.0081 34.5891 25.4209 34.7217C25.1367 34.7785 24.8716 34.8354 24.5875 34.8922L24.0002 34.9869C23.5456 35.0437 23.0909 35.0816 22.6363 35.1006C22.409 35.1006 22.1628 35.1006 21.9355 35.1006C21.3672 35.1006 20.8179 35.0627 20.2496 35.0248L19.8518 34.968L19.7571 35.5552L19.6813 34.9301L19.3214 34.8732C18.772 34.7785 18.2417 34.6459 17.7113 34.4944C17.1051 34.3239 16.3663 34.0777 15.8359 33.8503C15.2108 33.5851 14.4342 33.1874 13.8091 32.8085C12.2748 31.8614 11.0056 30.6869 10.0017 29.3041C9.56599 28.698 9.18711 28.0539 8.84614 27.353C9.47124 27.0879 10.1532 26.6711 10.1721 26.6711C10.873 26.2165 11.4034 25.6482 11.7823 24.9852C12.7673 23.2046 12.0095 20.7042 11.6307 19.7192C11.4223 19.1888 11.0814 18.4122 10.3994 17.9386C9.98271 17.6545 9.49022 17.5029 8.94089 17.5029C8.54309 17.5029 8.12637 17.5787 7.76646 17.7492C7.06558 18.0523 6.42154 18.6205 5.92903 19.4161C5.47441 20.1359 4.88716 21.2725 4.7735 22.5038C4.7735 22.5227 4.73565 24.057 4.92508 25.1368C4.69776 25.1368 4.45148 25.1368 4.18629 25.1368C4.18629 25.1368 3.86426 25.1368 3.71272 25.1368C3.61801 24.3412 3.56121 23.5267 3.56121 22.7311C3.56121 17.5976 5.56912 12.7673 9.18715 9.14925C12.8052 5.53123 17.6355 3.52331 22.7879 3.52331C27.9403 3.52331 32.7516 5.53123 36.3697 9.14925C39.2679 12.0475 41.1432 15.7034 41.7683 19.7381C40.7265 20.4201 39.8741 20.8747 39.0406 21.2157V21.2346Z" fill="#505050"/>
</svg>
