<svg width="97" height="39" viewBox="0 0 97 39" fill="none" xmlns="http://www.w3.org/2000/svg">
<g clip-path="url(#clip0_80_421)">
<path d="M23.2056 39C22.7067 39 22.2078 39 21.7042 38.9924C20.1283 38.9771 18.557 38.9695 16.9811 38.9695C15.6336 38.9695 14.2814 38.9733 12.934 38.9771C11.5818 38.9809 10.2297 38.9847 8.87752 38.9847H7.96832C7.41348 38.9847 6.8633 38.9504 6.33176 38.92C6.08931 38.9047 5.84686 38.8933 5.59508 38.8818L4.27557 38.8209V35.6353L5.57176 35.5591C5.80023 35.5439 6.02403 35.5286 6.23851 35.5134C6.72342 35.4753 7.22698 35.441 7.74452 35.4372H8.62574C10.0572 35.4372 11.4886 35.441 12.92 35.4486C14.3467 35.4562 15.7735 35.4601 17.2002 35.4601C19.6807 35.4601 21.7042 35.441 23.5599 35.4029C26.3621 35.3457 29.2343 35.0904 32.0085 34.8428L33.1322 34.7437C34.9133 34.5875 36.811 34.3398 38.9371 33.9854C39.6971 33.8597 40.527 33.612 41.4036 33.25C42.7371 32.6975 43.5763 31.802 43.7069 30.7846C43.8374 29.7787 43.25 28.7651 42.0936 28.0068C40.9979 27.2866 39.6644 26.5893 38.0186 25.8768C34.1673 24.2078 29.943 23.0266 25.8586 21.8834C24.7862 21.5824 23.7138 21.2814 22.6461 20.9727L21.3079 20.5879C17.769 19.5667 14.1089 18.515 10.6073 17.2385C8.1082 16.3316 5.83287 15.0551 3.6368 13.8243L3.25447 13.6109C1.11902 12.403 0.517545 10.4139 0.0792636 8.96216L0 8.70305L0.0699385 8.44013C0.135214 8.20388 0.191165 7.96001 0.247116 7.71995C0.578158 6.32152 0.988464 4.58014 2.96073 3.41414C4.06576 2.76255 5.27802 2.09572 6.63483 1.65752C8.84489 0.941156 11.1529 0.670614 13.3816 0.411503L13.9411 0.346725C16.5008 0.0418887 19.0559 0.00378418 21.21 0.00378418C21.942 0.00378418 22.6694 0.00759463 23.4014 0.0152155C24.1241 0.019026 24.8468 0.0266469 25.5648 0.0266469H25.9751C29.929 0.0152155 33.8875 0.00759463 37.8414 0.00759463C44.9005 -2.62745e-05 51.4654 0.0228364 57.9277 0.060941C62.4317 0.0876142 67.2528 0.156202 71.962 0.47247L73.3888 0.563921C77.4499 0.826842 81.6508 1.09738 85.7306 1.98141C88.4022 2.5606 91.4888 3.40652 94.1605 5.31556C95.5593 6.3139 96.4498 8.06289 96.5384 9.98717C96.6363 12.0181 95.853 13.8815 94.3936 15.097C92.2861 16.8536 89.6145 18.0196 86.2155 18.6674C85.7539 18.755 85.297 18.8351 84.8354 18.9151C86.1362 19.1894 87.4511 19.5133 88.7752 19.8905C90.934 20.5002 92.827 21.4719 94.5568 22.8551C96.1887 24.1583 97.0933 26.2311 96.9814 28.4031C96.8648 30.716 95.6339 32.7813 93.5171 34.2102C90.7755 36.0621 87.5443 36.8242 84.453 37.3729C80.8675 38.0093 77.1934 38.2798 73.6406 38.5389L72.1159 38.6532C68.5117 38.9238 64.9635 38.9619 61.9702 38.9619C60.7999 38.9619 59.6342 38.9542 58.4639 38.9504C57.3029 38.9428 56.1373 38.939 54.9763 38.939C53.3024 38.939 51.9223 38.9504 50.6308 38.9809H50.5562C50.2298 38.9809 49.9501 38.939 49.7216 38.9009C49.6563 38.8895 49.5864 38.878 49.5258 38.8704L48.6259 38.7675L48.3788 38.0512C48.1783 37.472 48.0477 35.2314 47.9825 32.4346C47.2831 33.8749 45.903 35.1857 44.0379 36.1231C42.0517 37.1214 39.739 37.773 36.7597 38.1693C32.5913 38.7256 28.1619 39 23.2056 39ZM52.9108 35.441C53.1579 35.441 53.3957 35.441 53.6288 35.4296C54.6033 35.3953 55.5778 35.3496 56.5476 35.3038C58.4173 35.2162 60.3522 35.1247 62.2732 35.1247H63.1405C69.9664 35.1247 76.0185 34.7285 81.6322 33.913C84.7841 33.4558 87.5816 32.9604 89.9455 31.562C91.377 30.7122 92.1929 29.4357 92.1882 28.0525C92.1882 26.6693 91.3536 25.389 89.9129 24.5431C87.4417 23.0951 84.4484 22.5731 81.8373 22.1997C79.0258 21.7958 76.0651 21.5786 73.4587 21.3881C69.9991 21.1366 65.9706 20.8546 61.9748 20.706C60.8558 20.6641 59.6482 20.645 58.1795 20.645C57.2097 20.645 56.2352 20.6526 55.2607 20.6603C54.4961 20.6679 53.7314 20.6717 52.9621 20.6755C52.8968 20.6755 52.8315 20.6755 52.7616 20.6831V35.4334C52.8082 35.4334 52.8548 35.4334 52.9015 35.4334L52.9108 35.441ZM17.3867 3.93236C14.426 3.93236 11.386 4.3477 8.35065 5.16314C7.83311 5.30032 7.3109 5.50989 6.78869 5.77662C5.73496 6.31771 5.09152 7.10647 4.97496 8.00193C4.85839 8.88976 5.28269 9.76617 6.16391 10.4673C7.82845 11.7971 9.91261 12.8679 12.3465 13.6528C14.9762 14.4988 17.6804 15.3142 20.2961 16.103C22.7487 16.8422 25.2898 17.6081 27.7702 18.4007C32.8431 20.0201 36.6991 21.3385 40.2659 22.676C41.8652 23.2742 43.4924 24.1583 45.3994 25.4614C46.6909 26.3455 47.4742 27.2523 47.9312 28.1097C47.9172 23.5067 48.0337 18.8579 48.2529 17.8939L48.4394 17.0632L49.4651 16.9641C49.6004 16.9527 49.7402 16.9336 49.8801 16.9184C50.2485 16.8765 50.6728 16.8269 51.1157 16.8193C51.484 16.8117 51.8524 16.8117 52.2161 16.8117H53.6941C54.0764 16.8117 54.4588 16.8117 54.8411 16.8041C56.6735 16.766 58.5059 16.7393 60.3336 16.7088C64.847 16.6402 69.5142 16.5678 74.0788 16.3354C78.098 16.1296 82.7838 15.741 87.0548 14.3882C88.3136 13.992 89.5492 13.2451 90.6076 12.5783C91.8059 11.8238 91.8898 10.7112 91.8339 10.1129C91.7127 8.85166 90.8035 7.63231 89.5725 7.0798C86.9662 5.9138 84.094 5.39939 81.6322 5.05264C77.9861 4.53822 74.1907 4.40105 70.5213 4.26387L68.8708 4.2029C62.2406 3.94379 55.2234 3.82948 46.1314 3.82948C41.8139 3.82948 37.4264 3.85615 33.1788 3.87902C28.9266 3.90569 24.5344 3.92855 20.2076 3.92855C19.2984 3.92855 18.3845 3.92855 17.4753 3.92855H17.3867V3.93236Z" fill="white"/>
</g>
<defs>
<clipPath id="clip0_80_421">
<rect width="97" height="39" fill="white"/>
</clipPath>
</defs>
</svg>
