<svg width="179" height="37" viewBox="0 0 179 37" fill="none" xmlns="http://www.w3.org/2000/svg">
<path fill-rule="evenodd" clip-rule="evenodd" d="M16.867 5.71231H22.5625V0.0167542H16.867V5.71231ZM5.62795 8.11222V0.0167542H0V23.6947H5.62795V15.7345C5.62795 14.4669 6.6927 13.4022 7.96026 13.4022H14.6023C15.8698 13.4022 16.9346 14.4669 16.9346 15.7345V23.6947H22.5625V15.7345C22.5625 12.1684 20.1795 9.12626 16.9346 8.12912C16.1909 7.90941 15.4135 7.7742 14.6023 7.7742H7.96026C7.14902 7.7742 6.37158 7.89251 5.62795 8.12912" fill="#505050"/>
<path d="M42.59 0.0168915C43.4519 0.0168915 44.1618 0.185895 44.7533 0.540811C45.3448 0.895727 45.9195 1.57176 46.4772 2.58581L57.6655 22.9174C57.7838 23.1371 57.8007 23.323 57.75 23.4751C57.6993 23.6272 57.5303 23.6949 57.2599 23.6949H52.9671C52.5783 23.6949 52.3248 23.5427 52.1896 23.2554L49.7897 18.895H33.8861L31.5538 23.2554C31.4017 23.5427 31.1313 23.6949 30.7764 23.6949H26.3822C26.0949 23.6949 25.909 23.6272 25.8582 23.4751C25.8075 23.323 25.8244 23.1371 25.9428 22.9174L37.0296 2.58581C37.5874 1.57176 38.1451 0.895727 38.6859 0.540811C39.2268 0.185895 39.8521 0.0168915 40.5788 0.0168915H42.5731H42.59ZM36.0325 14.9741H47.6602L42.2858 5.07021C42.2013 4.91811 42.0661 4.83361 41.914 4.83361H41.7112C41.5591 4.83361 41.4238 4.91811 41.3393 5.07021L36.0325 14.9741Z" fill="#505050"/>
<path d="M67.0621 0.0168915C67.6029 0.0168915 68.0592 0.0337938 68.4141 0.0844961C68.7691 0.135198 69.0902 0.219699 69.3606 0.371806C69.631 0.523913 69.8845 0.726723 70.138 0.980234C70.3915 1.23375 70.662 1.58866 70.9831 2.01118L83.5572 18.5232C83.6417 18.6753 83.7938 18.7598 83.9966 18.7598H84.3009C84.4868 18.7598 84.5713 18.6415 84.5713 18.4218V0.760523C84.5713 0.270401 84.8248 0.0168915 85.3149 0.0168915H88.8641C89.3542 0.0168915 89.6077 0.270401 89.6077 0.760523V20.1795C89.6077 21.5485 89.3542 22.478 88.8641 22.9681C88.374 23.4582 87.5965 23.6949 86.5656 23.6949H83.6586C83.1347 23.6949 82.7122 23.678 82.3573 23.6273C82.0024 23.5766 81.6981 23.492 81.4277 23.3568C81.1573 23.2216 80.8869 23.0188 80.6334 22.7653C80.3799 22.5118 80.0757 22.1569 79.7377 21.7006L67.1297 5.18852C66.9945 5.03641 66.8424 4.95191 66.6903 4.95191H66.3861C66.2001 4.95191 66.1156 5.07022 66.1156 5.28993V22.9512C66.1156 23.4413 65.8621 23.6949 65.372 23.6949H61.8229C61.2989 23.6949 61.0454 23.4413 61.0454 22.9512V3.53225C61.0454 2.16328 61.2989 1.23375 61.789 0.743625C62.2792 0.253503 63.0566 0.0168915 64.0876 0.0168915H67.0621Z" fill="#505050"/>
<path d="M120.063 0.0168915C120.587 0.0168915 120.84 0.270401 120.84 0.760523V4.07307C120.84 4.59699 120.587 4.85051 120.063 4.85051H109.449V22.9512C109.449 23.4413 109.196 23.6949 108.706 23.6949H105.021C104.531 23.6949 104.278 23.4413 104.278 22.9512V4.85051H93.6639C93.14 4.85051 92.8865 4.59699 92.8865 4.07307V0.760523C92.8865 0.270401 93.14 0.0168915 93.6639 0.0168915H120.08H120.063Z" fill="#505050"/>
<path d="M148.457 0.0168915C148.98 0.0168915 149.234 0.270401 149.234 0.760523V3.97167C149.234 4.46179 148.98 4.7153 148.457 4.7153H133.668C132.79 4.7153 132.063 4.78291 131.488 4.93501C130.914 5.08712 130.457 5.32373 130.102 5.67864C129.747 6.03356 129.511 6.50678 129.376 7.09831C129.24 7.68983 129.173 8.43347 129.173 9.31231V9.65033H148.288C148.778 9.65033 149.031 9.90384 149.031 10.394V13.0643C149.031 13.5544 148.778 13.8079 148.288 13.8079H129.173V14.3825C129.173 15.2614 129.24 16.005 129.376 16.5965C129.511 17.1881 129.747 17.6613 130.102 18.0162C130.457 18.3711 130.914 18.6077 131.488 18.7598C132.063 18.9119 132.79 18.9795 133.668 18.9795H148.457C148.98 18.9795 149.234 19.2331 149.234 19.7232V22.9343C149.234 23.4244 148.98 23.678 148.457 23.678H133.567C131.86 23.678 130.407 23.5259 129.207 23.2047C128.007 22.8836 127.043 22.3766 126.283 21.6668C125.522 20.9569 124.981 20.0274 124.626 18.895C124.272 17.7627 124.103 16.3768 124.103 14.7544V8.94049C124.103 7.31802 124.272 5.94906 124.626 4.81671C124.981 3.68436 125.522 2.77171 126.283 2.06188C127.043 1.35205 128.007 0.828129 129.207 0.507015C130.407 0.185901 131.86 0.0168915 133.567 0.0168915H148.457Z" fill="#505050"/>
<path d="M156.924 0.0169044C157.414 0.0169044 157.667 0.270413 157.667 0.760535V9.75174H162.433C162.974 9.75174 163.43 9.75174 163.785 9.70104C164.14 9.66724 164.461 9.59963 164.732 9.48133C165.002 9.36302 165.256 9.21092 165.475 9.00811C165.695 8.8053 165.932 8.55179 166.185 8.23067L171.999 0.456321C172.117 0.304214 172.219 0.185908 172.337 0.118305C172.455 0.0507018 172.658 0.0169044 172.979 0.0169044H177.171C177.458 0.0169044 177.644 0.118306 177.695 0.304214C177.745 0.490123 177.728 0.676033 177.61 0.82814L171.053 9.31232C170.664 9.83625 170.309 10.2757 169.988 10.6306C169.667 10.9855 169.346 11.3066 169.025 11.577C169.903 12.1178 170.765 12.9291 171.593 14.0107L178.523 22.7991C178.607 22.9174 178.641 23.0864 178.624 23.3231C178.607 23.5597 178.421 23.678 178.083 23.678H173.757C173.469 23.678 173.267 23.6442 173.148 23.5766C173.03 23.509 172.929 23.3906 172.81 23.2385L166.591 15.1938C166.135 14.6023 165.661 14.2135 165.137 13.9938C164.613 13.7741 163.836 13.6727 162.805 13.6727H157.667V22.9343C157.667 23.4245 157.414 23.678 156.924 23.678H153.273C152.749 23.678 152.496 23.4245 152.496 22.9343V0.743638C152.496 0.253516 152.749 0 153.273 0H156.924V0.0169044Z" fill="#505050"/>
<path d="M1.3013 36.6747C0.760476 36.5225 0.33796 36.3197 0.0168457 36.0662L0.591472 34.7987C0.895686 35.0353 1.2675 35.2043 1.70692 35.3564C2.12944 35.4916 2.56886 35.5592 2.99138 35.5592C3.4646 35.5592 3.81952 35.4916 4.05613 35.3395C4.27584 35.2043 4.39414 35.0015 4.39414 34.7818C4.39414 34.6128 4.32654 34.4606 4.19134 34.3592C4.05613 34.2409 3.88712 34.1564 3.66741 34.0888C3.4646 34.0212 3.17729 33.9367 2.80547 33.8691C2.24775 33.7339 1.80832 33.5987 1.45341 33.4804C1.09849 33.3452 0.794283 33.1424 0.540772 32.8551C0.28726 32.5678 0.168953 32.179 0.168953 31.6889C0.168953 31.2664 0.287259 30.8777 0.506969 30.5397C0.74358 30.2017 1.0816 29.9312 1.53792 29.7284C1.99424 29.5256 2.55196 29.4242 3.22799 29.4242C3.68431 29.4242 4.14063 29.4749 4.58005 29.5932C5.01947 29.7115 5.40819 29.8636 5.7462 30.0664L5.22228 31.334C4.54625 30.9622 3.88712 30.7594 3.21109 30.7594C2.73787 30.7594 2.39985 30.8439 2.16324 30.9791C1.94353 31.1312 1.82523 31.334 1.82523 31.5875C1.82523 31.841 1.96043 32.0269 2.21394 32.1452C2.46745 32.2636 2.87307 32.3819 3.397 32.5002C3.95472 32.6354 4.39414 32.7706 4.74906 32.8889C5.10397 33.0241 5.40819 33.2269 5.6617 33.5142C5.91521 33.8015 6.03352 34.1733 6.03352 34.6635C6.03352 35.086 5.91521 35.4578 5.6786 35.7958C5.44199 36.1338 5.10397 36.4042 4.63075 36.607C4.17443 36.8099 3.59981 36.9113 2.94068 36.9113C2.36605 36.9113 1.80833 36.8268 1.2844 36.6747H1.3013Z" fill="#505050"/>
<path d="M23.1877 36.4211C22.5792 36.1 22.106 35.6437 21.768 35.086C21.43 34.5113 21.261 33.8691 21.261 33.1593C21.261 32.4495 21.43 31.8072 21.768 31.2326C22.106 30.658 22.5792 30.2186 23.1877 29.8974C23.7961 29.5763 24.4721 29.4073 25.2158 29.4073C25.9594 29.4073 26.6523 29.5763 27.2439 29.8974C27.8523 30.2186 28.3255 30.6749 28.6635 31.2326C29.0015 31.8072 29.1874 32.4495 29.1874 33.1593C29.1874 33.8691 29.0184 34.5113 28.6635 35.086C28.3255 35.6606 27.8523 36.1 27.2439 36.4211C26.6354 36.7422 25.9594 36.9113 25.2158 36.9113C24.4721 36.9113 23.7792 36.7422 23.1877 36.4211ZM26.3819 35.1874C26.7199 34.9846 26.9903 34.7142 27.1932 34.3592C27.396 34.0043 27.4805 33.5987 27.4805 33.1593C27.4805 32.7199 27.3791 32.3143 27.1932 31.9593C26.9903 31.6044 26.7199 31.334 26.3819 31.1312C26.0439 30.9284 25.6552 30.8439 25.2158 30.8439C24.7763 30.8439 24.4045 30.9453 24.0496 31.1312C23.7116 31.334 23.4412 31.6044 23.2384 31.9593C23.0356 32.3143 22.9511 32.7199 22.9511 33.1593C22.9511 33.5987 23.0525 34.0043 23.2384 34.3592C23.4412 34.7142 23.7116 34.9846 24.0496 35.1874C24.3876 35.3902 24.7763 35.4747 25.2158 35.4747C25.6552 35.4747 26.027 35.3733 26.3819 35.1874Z" fill="#505050"/>
<path d="M44.973 29.5256H46.6461V35.4071H50.2798V36.7761H44.9561V29.5256H44.973Z" fill="#505050"/>
<path d="M66.4537 36.0493C65.8791 35.4747 65.5918 34.6635 65.5918 33.5987V29.5425H67.265V33.548C67.265 34.8494 67.8058 35.4916 68.8874 35.4916C69.4114 35.4916 69.817 35.3395 70.0874 35.0184C70.3578 34.6973 70.5099 34.2071 70.5099 33.548V29.5425H72.1662V33.5987C72.1662 34.6635 71.8789 35.4747 71.3042 36.0493C70.7296 36.6239 69.9184 36.9113 68.8874 36.9113C67.8565 36.9113 67.0453 36.6239 66.4706 36.0493H66.4537Z" fill="#505050"/>
<path d="M89.7092 30.8946H87.3938V29.5256H93.7147V30.8946H91.3993V36.7761H89.7261V30.8946H89.7092Z" fill="#505050"/>
<path d="M109.128 29.5256H110.801V36.7761H109.128V29.5256Z" fill="#505050"/>
<path d="M128.513 36.4211C127.905 36.1 127.432 35.6437 127.094 35.086C126.756 34.5113 126.587 33.8691 126.587 33.1593C126.587 32.4495 126.756 31.8072 127.094 31.2326C127.432 30.658 127.905 30.2186 128.513 29.8974C129.122 29.5763 129.798 29.4073 130.558 29.4073C131.319 29.4073 131.995 29.5763 132.586 29.8974C133.195 30.2186 133.668 30.6749 134.006 31.2326C134.344 31.8072 134.53 32.4495 134.53 33.1593C134.53 33.8691 134.361 34.5113 134.006 35.086C133.668 35.6606 133.195 36.1 132.586 36.4211C131.978 36.7422 131.302 36.9113 130.558 36.9113C129.815 36.9113 129.122 36.7422 128.513 36.4211ZM131.708 35.1874C132.046 34.9846 132.316 34.7142 132.519 34.3592C132.722 34.0043 132.806 33.5987 132.806 33.1593C132.806 32.7199 132.705 32.3143 132.519 31.9593C132.316 31.6044 132.046 31.334 131.708 31.1312C131.37 30.9284 130.981 30.8439 130.541 30.8439C130.102 30.8439 129.73 30.9453 129.375 31.1312C129.037 31.334 128.767 31.6044 128.564 31.9593C128.361 32.3143 128.277 32.7199 128.277 33.1593C128.277 33.5987 128.378 34.0043 128.564 34.3592C128.767 34.7142 129.037 34.9846 129.375 35.1874C129.713 35.3902 130.102 35.4747 130.541 35.4747C130.981 35.4747 131.353 35.3733 131.708 35.1874Z" fill="#505050"/>
<path d="M156.941 29.5256V36.7761H155.555L151.938 32.365V36.7761H150.282V29.5256H151.668L155.267 33.9367V29.5256H156.924H156.941Z" fill="#505050"/>
<path d="M173.909 36.6747C173.368 36.5225 172.946 36.3197 172.625 36.0662L173.199 34.7987C173.503 35.0353 173.875 35.2043 174.315 35.3564C174.737 35.4916 175.177 35.5592 175.599 35.5592C176.072 35.5592 176.427 35.4916 176.664 35.3395C176.884 35.2043 177.002 35.0015 177.002 34.7818C177.002 34.6128 176.934 34.4606 176.799 34.3592C176.664 34.2578 176.495 34.1564 176.275 34.0888C176.072 34.0212 175.785 33.9367 175.413 33.8691C174.855 33.7339 174.416 33.5987 174.061 33.4804C173.706 33.3452 173.402 33.1424 173.148 32.8551C172.895 32.5678 172.777 32.179 172.777 31.6889C172.777 31.2664 172.895 30.8777 173.115 30.5397C173.351 30.2017 173.689 29.9312 174.146 29.7284C174.602 29.5256 175.16 29.4242 175.836 29.4242C176.292 29.4242 176.748 29.4749 177.188 29.5932C177.627 29.7115 178.016 29.8636 178.354 30.0664L177.83 31.334C177.154 30.9622 176.495 30.7594 175.819 30.7594C175.346 30.7594 175.008 30.8439 174.771 30.9791C174.551 31.1312 174.433 31.334 174.433 31.5875C174.433 31.841 174.568 32.0269 174.822 32.1452C175.075 32.2636 175.481 32.3819 176.005 32.5002C176.562 32.6354 177.002 32.7706 177.357 32.8889C177.712 33.0241 178.016 33.2269 178.269 33.5142C178.523 33.8015 178.641 34.1733 178.641 34.6635C178.641 35.086 178.523 35.4578 178.286 35.7958C178.05 36.1338 177.712 36.4042 177.238 36.607C176.782 36.8099 176.207 36.9113 175.548 36.9113C174.974 36.9113 174.416 36.8268 173.892 36.6747H173.909Z" fill="#505050"/>
</svg>
