<svg width="182" height="39" viewBox="0 0 182 39" fill="none" xmlns="http://www.w3.org/2000/svg">
<path d="M44.2185 12.4841C44.2185 10.2258 45.0773 8.11068 46.5722 6.2818C41.34 8.44465 37.8254 12.4523 37.8254 17.0324C37.8254 23.9185 45.7612 29.5006 55.5735 29.5006C62.1575 29.5006 67.8985 26.9879 70.9679 23.2347C68.3279 24.332 65.2586 24.9523 61.9666 24.9523C52.1702 24.9523 44.2185 19.3702 44.2185 12.4841ZM65.2745 6.58396L69.7592 1.28817C67.4055 0.477099 64.7497 0.0159033 61.9507 0.0159033C55.3667 0.0159033 49.6257 2.52862 46.5563 6.2818C49.1963 5.18447 52.2656 4.56424 55.5576 4.56424C59.1358 4.56424 62.4755 5.3117 65.2745 6.59987V6.58396ZM13.1117 0.683842L15.1155 4.16666L8.77012 15.1399H3.98322L2.02712 18.5273H6.814L0.88208 28.8009H6.11425L6.44823 28.2124C4.53984 28.2124 3.36298 26.1609 4.30128 24.5229L5.60536 22.2646C6.52775 20.6584 7.40242 19.1317 7.75229 18.5432H14.4476C16.2765 18.5432 17.835 19.1158 19.2345 20.2926L29.349 28.8168H38.3979L22.1607 0.699745H13.1117V0.683842ZM14.4953 15.1399H9.75612L15.6244 5.02544L28.2675 26.7493L14.5112 15.1399H14.4953ZM87.9367 11.9434L90.7675 7.95164C91.7535 6.55216 92.8985 6.23409 94.2821 6.23409H102.997L107.021 0.683842H94.95L83.4361 16.8734V2.97391C83.4361 2.06743 84.1676 1.31997 85.0741 1.30407L84.7401 0.715648H74.2281L73.8941 1.30407C74.8006 1.31997 75.5321 2.06743 75.5321 2.97391V26.5585C75.5321 27.465 74.8006 28.2124 73.8941 28.2283L74.2281 28.8168H84.7401L85.0741 28.2283C84.1676 28.2124 83.4361 27.465 83.4361 26.5585V18.2729L86.0601 14.5833L86.2191 14.7742L96.3018 28.8327H107.132L95.0296 11.9593H87.9367V11.9434ZM174.053 11.7684C169.759 10.528 164.479 9.31933 160.885 7.90393C151.327 4.18256 159.804 -2.22646 171.397 3.53053C173.449 4.54834 175.246 5.8206 176.534 6.94974L180.414 1.79707C175.341 0.190839 171.588 0 166.213 0C163.827 0 161.14 0.222646 158.706 0.906487C150.182 3.29198 148.56 11.8161 156.623 15.1876C161.33 17.1596 167.517 18.2252 172.654 20.2449C181.75 23.8231 174.848 32.5063 161.664 25.4771C159.247 24.1889 156.687 22.2487 154.126 19.5292L149.546 25.6043C154.253 28.2601 160.185 29.4847 165.895 29.4847C172.288 29.4847 181.273 27.6717 181.702 20.3721C181.973 15.7602 178.522 13.0407 174.069 11.7525L174.053 11.7684ZM130.351 0.0159033C123.767 0.0159033 118.026 2.52862 114.956 6.2818C117.596 5.18447 120.666 4.56424 123.958 4.56424C133.754 4.56424 141.706 10.1463 141.706 17.0324C141.706 19.2907 140.847 21.4058 139.352 23.2347C144.584 21.0719 148.099 17.0642 148.099 12.4841C148.099 5.59796 140.163 0.0159033 130.351 0.0159033ZM112.603 12.4841C112.603 10.2258 113.461 8.11068 114.956 6.2818C109.724 8.44465 106.21 12.4523 106.21 17.0324C106.21 23.9185 114.145 29.5006 123.958 29.5006C130.542 29.5006 136.283 26.9879 139.352 23.2347C136.712 24.332 133.643 24.9523 130.351 24.9523C120.554 24.9523 112.603 19.3702 112.603 12.4841Z" fill="#505050"/>
<path d="M54.4444 38.2633L53.3311 36.6889C53.188 36.6889 53.0926 36.6889 53.0131 36.6889H51.7408V38.2474H51.0093V33.1106H53.0131C53.681 33.1106 54.2058 33.2697 54.5875 33.5877C54.9692 33.9058 55.16 34.3511 55.16 34.9077C55.16 35.3053 55.0646 35.6393 54.8738 35.9255C54.6829 36.2118 54.3967 36.4026 54.0309 36.5299L55.2555 38.2633H54.4603H54.4444ZM54.0627 35.7665C54.3013 35.5597 54.4285 35.2735 54.4285 34.9077C54.4285 34.5419 54.3013 34.2557 54.0627 34.0489C53.8242 33.8581 53.4584 33.7468 52.9972 33.7468H51.7408V36.0687H52.9972C53.4584 36.0687 53.8242 35.9732 54.0627 35.7665Z" fill="#505050"/>
<path d="M67.4372 37.6272V38.2633H63.7V33.1265H67.3259V33.7627H64.4315V35.3371H67.0078V35.9573H64.4315V37.6113H67.4213L67.4372 37.6272Z" fill="#505050"/>
<path d="M76.8522 37.9929C76.4387 37.7703 76.1207 37.4522 75.8821 37.0546C75.6436 36.6571 75.5322 36.2118 75.5322 35.7029C75.5322 35.194 75.6436 34.7487 75.8821 34.3511C76.1207 33.9535 76.4387 33.6354 76.8522 33.4128C77.2657 33.1901 77.7269 33.0788 78.2517 33.0788C78.6493 33.0788 79.015 33.1424 79.349 33.2856C79.683 33.4128 79.9692 33.6195 80.2078 33.8899L79.7307 34.3511C79.349 33.9376 78.856 33.7468 78.2835 33.7468C77.9018 33.7468 77.5519 33.8263 77.2498 34.0012C76.9476 34.1762 76.6932 34.4147 76.5182 34.7169C76.3433 35.019 76.2638 35.353 76.2638 35.7347C76.2638 36.1164 76.3433 36.4503 76.5182 36.7525C76.6932 37.0546 76.9317 37.2932 77.2498 37.4681C77.5519 37.6431 77.9018 37.7226 78.2835 37.7226C78.856 37.7226 79.3331 37.5158 79.7307 37.1024L80.2078 37.5636C79.9692 37.8339 79.683 38.0247 79.349 38.1679C79.015 38.311 78.6493 38.3746 78.2358 38.3746C77.7269 38.3746 77.2498 38.2633 76.8363 38.0407L76.8522 37.9929Z" fill="#505050"/>
<path d="M89.4155 37.9929C89.002 37.7703 88.668 37.4522 88.4295 37.0546C88.1909 36.6571 88.0796 36.2118 88.0796 35.7029C88.0796 35.194 88.1909 34.7646 88.4295 34.3511C88.668 33.9535 88.9861 33.6354 89.4155 33.4128C89.8289 33.1901 90.3061 33.0788 90.815 33.0788C91.3239 33.0788 91.8009 33.1901 92.2144 33.4128C92.6279 33.6354 92.9619 33.9535 93.1845 34.3511C93.4231 34.7487 93.5344 35.194 93.5344 35.7029C93.5344 36.2118 93.4231 36.6571 93.1845 37.0546C92.946 37.4522 92.6279 37.7703 92.2144 37.9929C91.8009 38.2156 91.3398 38.3269 90.815 38.3269C90.2901 38.3269 89.8289 38.2156 89.4155 37.9929ZM91.8328 37.4204C92.1349 37.2455 92.3735 37.0069 92.5484 36.7048C92.7233 36.4026 92.8029 36.0686 92.8029 35.687C92.8029 35.3053 92.7233 34.9713 92.5484 34.6692C92.3735 34.367 92.1349 34.1284 91.8328 33.9535C91.5306 33.7786 91.1966 33.6991 90.815 33.6991C90.4333 33.6991 90.0993 33.7786 89.7971 33.9535C89.495 34.1284 89.2564 34.367 89.0815 34.6692C88.9066 34.9713 88.827 35.3053 88.827 35.687C88.827 36.0686 88.9066 36.4026 89.0815 36.7048C89.2564 37.0069 89.495 37.2455 89.7971 37.4204C90.0993 37.5954 90.4492 37.6749 90.815 37.6749C91.1807 37.6749 91.5306 37.5954 91.8328 37.4204Z" fill="#505050"/>
<path d="M105.446 38.2633L104.333 36.6889C104.19 36.6889 104.094 36.6889 104.015 36.6889H102.743V38.2474H102.011V33.1106H104.015C104.683 33.1106 105.208 33.2697 105.589 33.5877C105.971 33.9058 106.162 34.3511 106.162 34.9077C106.162 35.3053 106.066 35.6393 105.875 35.9255C105.685 36.2118 105.398 36.4026 105.033 36.5299L106.257 38.2633H105.462H105.446ZM105.064 35.7665C105.303 35.5597 105.43 35.2735 105.43 34.9077C105.43 34.5419 105.303 34.2557 105.064 34.0489C104.826 33.8581 104.46 33.7468 103.999 33.7468H102.743V36.0687H103.999C104.46 36.0687 104.826 35.9732 105.064 35.7665Z" fill="#505050"/>
<path d="M114.702 33.1265H116.865C117.405 33.1265 117.898 33.2379 118.312 33.4446C118.725 33.6673 119.059 33.9694 119.298 34.3511C119.536 34.7328 119.648 35.194 119.648 35.687C119.648 36.18 119.536 36.6412 119.298 37.0229C119.059 37.4045 118.741 37.7226 118.312 37.9293C117.898 38.152 117.405 38.2474 116.865 38.2474H114.702V33.1106V33.1265ZM116.833 37.6272C117.246 37.6272 117.612 37.5477 117.93 37.3886C118.248 37.2296 118.487 37.0069 118.662 36.7048C118.837 36.4185 118.916 36.0846 118.916 35.687C118.916 35.2894 118.837 34.9713 118.662 34.6692C118.487 34.3829 118.248 34.1444 117.93 33.9853C117.612 33.8263 117.246 33.7468 116.833 33.7468H115.449V37.6113H116.833V37.6272Z" fill="#505050"/>
<path d="M128.49 38.152C128.124 38.0247 127.854 37.8816 127.647 37.6908L127.917 37.1183C128.108 37.2932 128.363 37.4363 128.665 37.5477C128.967 37.659 129.285 37.7067 129.603 37.7067C130.032 37.7067 130.351 37.6272 130.557 37.484C130.764 37.3409 130.875 37.1501 130.875 36.9115C130.875 36.7366 130.812 36.5935 130.7 36.4821C130.589 36.3708 130.446 36.2913 130.271 36.2277C130.096 36.1641 129.858 36.1004 129.555 36.0368C129.174 35.9414 128.856 35.846 128.617 35.7506C128.379 35.6552 128.172 35.512 128.013 35.3212C127.838 35.1304 127.758 34.86 127.758 34.5419C127.758 34.2716 127.838 34.0171 127.981 33.7945C128.124 33.5718 128.347 33.3969 128.633 33.2697C128.919 33.1424 129.285 33.0788 129.73 33.0788C130.032 33.0788 130.335 33.1106 130.621 33.1901C130.907 33.2697 131.162 33.381 131.384 33.5241L131.146 34.1125C130.923 33.9694 130.7 33.874 130.462 33.7945C130.223 33.7309 129.985 33.6832 129.746 33.6832C129.333 33.6832 129.015 33.7627 128.808 33.9058C128.601 34.0648 128.49 34.2557 128.49 34.4942C128.49 34.6692 128.553 34.8123 128.665 34.9236C128.776 35.0349 128.935 35.1144 129.094 35.1781C129.269 35.2417 129.508 35.3053 129.81 35.3689C130.191 35.4643 130.51 35.5597 130.748 35.6552C130.987 35.7506 131.177 35.8937 131.352 36.0845C131.527 36.2754 131.607 36.5298 131.607 36.8638C131.607 37.1342 131.527 37.3727 131.384 37.5954C131.241 37.818 131.018 37.9929 130.716 38.1202C130.414 38.2474 130.048 38.311 129.619 38.311C129.237 38.311 128.856 38.2474 128.506 38.1361L128.49 38.152Z" fill="#505050"/>
</svg>
