<svg width="115" height="46" viewBox="0 0 115 46" fill="none" xmlns="http://www.w3.org/2000/svg">
<g clip-path="url(#clip0_80_803)">
<path d="M0 31.4476V0.217197H8.5858V12.0857L18.0876 0.217197H27.7758L16.4264 14.1956L28.5676 31.432H18.7087L10.9613 19.9514L8.5858 22.4182V31.432H0V31.4476ZM52.6326 23.9696V31.4476H30.3686V0.217197H52.2445V7.69511H38.9544V12.0857H50.3038V19.0361H38.9544V23.9696H52.6482H52.6326ZM62.6779 0.217197L68.7951 21.5494L74.8191 0.217197H83.8396L73.0491 31.4476H64.5099L53.6108 0.217197H62.6779ZM99.0705 31.6648C96.695 31.6648 94.5369 31.2148 92.5962 30.3305C90.6555 29.4307 88.9942 28.2361 87.5969 26.7312C86.1995 25.2263 85.1283 23.5197 84.383 21.627C83.6378 19.7342 83.2652 17.7794 83.2652 15.7626C83.2652 13.7457 83.6688 11.6978 84.4606 9.82057C85.2525 7.94334 86.3548 6.26779 87.7832 4.77841C89.2116 3.30455 90.8883 2.12546 92.8446 1.28769C94.8009 0.434398 96.9279 0.0155106 99.2413 0.0155106C101.555 0.0155106 103.775 0.465426 105.716 1.34974C107.656 2.24957 109.302 3.45969 110.684 4.9801C112.066 6.5005 113.121 8.20708 113.882 10.0998C114.627 11.9926 115 13.9319 115 15.9332C115 17.9346 114.612 19.9514 113.836 21.8287C113.059 23.7059 111.957 25.3814 110.529 26.8708C109.1 28.3447 107.423 29.5238 105.483 30.3926C103.542 31.2614 101.399 31.6958 99.0549 31.6958L99.0705 31.6648ZM91.9907 15.8246C91.9907 16.8796 92.1304 17.9035 92.4254 18.8809C92.7204 19.8583 93.1551 20.7427 93.7451 21.5184C94.3351 22.2941 95.0648 22.9147 95.9653 23.3646C96.8658 23.8145 97.9216 24.0472 99.1636 24.0472C100.406 24.0472 101.461 23.8145 102.377 23.3491C103.294 22.8836 104.023 22.2476 104.598 21.4408C105.172 20.6341 105.591 19.7342 105.871 18.7568C106.15 17.7794 106.29 16.771 106.29 15.747C106.29 14.7231 106.15 13.6836 105.855 12.7062C105.56 11.7443 105.126 10.86 104.536 10.0843C103.946 9.3086 103.2 8.70354 102.284 8.25362C101.368 7.81922 100.313 7.58651 99.1171 7.58651C97.9216 7.58651 96.8192 7.81922 95.9187 8.28465C95.0182 8.75008 94.2885 9.37065 93.6985 10.1464C93.1085 10.9221 92.6738 11.8064 92.3944 12.7838C92.1149 13.7612 91.9752 14.7696 91.9752 15.7936L91.9907 15.8246Z" fill="#505050"/>
<path d="M31.0829 38.3204H28.1174V45.9379H27.0306V38.3204H24.0652V37.3585H31.0829V38.3204Z" fill="#505050"/>
<path d="M50.2572 44.9761V45.9379H44.4194V37.3585H50.1485V38.3204H45.5062V41.0975H49.543V41.9973H45.5062V44.9605H50.2572V44.9761Z" fill="#505050"/>
<path d="M63.1127 41.5784C63.1127 41.0509 63.2059 40.539 63.3922 40.0425C63.5785 39.546 63.8424 39.0806 64.184 38.6617C64.5411 38.2428 64.9603 37.917 65.4726 37.6688C65.985 37.4206 66.5594 37.2965 67.196 37.2965C67.9568 37.2965 68.6244 37.4671 69.1678 37.8239C69.7112 38.1808 70.1304 38.6307 70.3943 39.1737L69.5404 39.7322C69.3696 39.3754 69.1523 39.0806 68.8883 38.8634C68.6244 38.6462 68.3449 38.4911 68.0344 38.4135C67.7394 38.3204 67.4289 38.2739 67.1494 38.2739C66.6681 38.2739 66.2489 38.367 65.8918 38.5686C65.5192 38.7548 65.2087 39.0186 64.9603 39.3444C64.7119 39.6702 64.5255 40.027 64.4013 40.4304C64.2771 40.8337 64.215 41.2371 64.215 41.6405C64.215 42.0904 64.2927 42.5093 64.4324 42.9282C64.5877 43.3471 64.7895 43.7039 65.0534 44.0142C65.3174 44.3245 65.6279 44.5727 66.0005 44.7589C66.3576 44.945 66.7613 45.0381 67.1805 45.0381C67.4755 45.0381 67.786 44.9916 68.0965 44.883C68.407 44.7744 68.702 44.6192 68.9815 44.3865C69.2609 44.1693 69.4783 43.8745 69.6336 43.5177L70.5341 44.0142C70.3633 44.4486 70.0838 44.8054 69.7112 45.1002C69.3386 45.3949 68.9194 45.6277 68.4691 45.7828C68.0189 45.9379 67.5686 46.0155 67.1184 46.0155C66.5284 46.0155 65.985 45.8914 65.5037 45.6277C65.0068 45.3794 64.5876 45.0381 64.2306 44.6192C63.8735 44.2003 63.594 43.7194 63.3922 43.1919C63.1903 42.6644 63.0972 42.1369 63.0972 41.5939L63.1127 41.5784Z" fill="#505050"/>
<path d="M90.9505 37.3585V45.9379H89.8637V42.0283H85.1283V45.9379H84.0415V37.3585H85.1283V41.0664H89.8637V37.3585H90.9505Z" fill="#505050"/>
</g>
<defs>
<clipPath id="clip0_80_803">
<rect width="115" height="46" fill="white"/>
</clipPath>
</defs>
</svg>
