<svg width="159" height="45" viewBox="0 0 159 45" fill="none" xmlns="http://www.w3.org/2000/svg">
<path d="M26.8557 17.4141C29.2412 17.4141 31.1814 15.4739 31.1814 13.0884C31.1814 15.4739 33.1216 17.4141 35.5071 17.4141C33.1216 17.4141 31.1814 19.3543 31.1814 21.7398C31.1814 19.3543 29.2412 17.4141 26.8557 17.4141ZM23.0867 11.8957C24.4543 11.8957 25.5517 12.993 25.5517 14.3607C25.5517 12.993 26.6649 11.8957 28.0167 11.8957C26.649 11.8957 25.5517 10.7824 25.5517 9.43066C25.5517 10.7983 24.4384 11.8957 23.0867 11.8957ZM45.3195 22.2169C45.3195 28.3874 42.8067 33.9694 38.7355 38.0089C34.712 42.0006 29.1776 44.4656 23.0707 44.4656C23.023 44.4656 22.9913 44.4656 22.9435 44.4656C22.8322 44.4656 22.7209 44.4656 22.6096 44.4656C22.5142 44.4656 22.4187 44.4656 22.3233 44.4656C22.2756 44.4656 22.2279 44.4656 22.1802 44.4656C17.5523 44.2907 13.2902 42.6844 9.80741 40.1081L5.05234 43.8136C4.57524 44.1793 4.00273 44.402 3.4143 44.4656C3.30298 44.4815 3.17575 44.4974 3.06443 44.4974C2.74636 44.4974 2.4283 44.4338 2.14204 44.3225C1.55361 44.1316 1.0447 43.7659 0.663018 43.2729C0.154112 42.6208 -0.0844274 41.7938 0.0268956 40.9669C0.122315 40.1399 0.551713 39.3925 1.20375 38.8835L5.32269 35.6711C2.76226 32.2837 1.14013 28.1488 0.853873 23.6482C0.853873 23.5051 0.837955 23.3778 0.837955 23.2347C0.837955 23.1393 0.837955 23.028 0.837955 22.9326C0.837955 22.8848 0.837955 22.8371 0.837955 22.8053C0.837955 22.6463 0.837955 22.4714 0.837955 22.3123C0.837955 22.3123 0.837955 22.3123 0.837955 22.2964C0.837955 22.2487 0.837955 22.2169 0.837955 22.1692C0.837955 22.0579 0.837955 21.9465 0.837955 21.8352C0.837955 21.7398 0.837955 21.6603 0.837955 21.5649C0.837955 21.5172 0.837955 21.4694 0.837955 21.4217C0.837955 21.2468 0.837961 21.0719 0.869768 20.8969C1.60132 9.27162 11.2546 0.0795212 23.0549 0.0795212C23.2139 0.0795212 23.3729 0.0795212 23.532 0.0795212C23.5797 0.0795212 23.6274 0.0795212 23.6751 0.0795212C23.7864 0.0795212 23.8977 0.0795212 24.009 0.0795212C24.0567 0.0795212 24.1204 0.0795212 24.1681 0.0795212C24.2794 0.0795212 24.3907 0.0795246 24.4862 0.0954279C24.5339 0.0954279 24.5816 0.0954279 24.6452 0.0954279C24.7724 0.0954279 24.8996 0.111332 25.0269 0.127235C25.0587 0.127235 25.0746 0.127235 25.1064 0.127235C25.2654 0.127235 25.4245 0.15904 25.5835 0.174943C25.6153 0.174943 25.6471 0.174943 25.6789 0.174943C25.8061 0.174943 25.9175 0.206748 26.0447 0.222651C26.0924 0.222651 26.1401 0.222654 26.1878 0.238558C26.2992 0.238558 26.4105 0.270362 26.5218 0.286266C26.5695 0.286266 26.6172 0.286263 26.6649 0.302166C26.7921 0.31807 26.9035 0.349878 27.0307 0.365781C27.0625 0.365781 27.0943 0.365784 27.1261 0.381688C27.4283 0.445301 27.7463 0.508912 28.0485 0.572525C28.0803 0.572525 28.1121 0.572523 28.1439 0.588426C28.2552 0.620233 28.3825 0.652044 28.4938 0.667947C28.5256 0.667947 28.5733 0.683845 28.6051 0.699749C28.7323 0.731555 28.8437 0.763364 28.9709 0.79517C29.0027 0.79517 29.0186 0.795174 29.0504 0.811077C29.3526 0.890594 29.6547 0.98601 29.9569 1.08143H29.9887C30.1318 1.12914 30.259 1.17685 30.3863 1.22456C30.4181 1.22456 30.434 1.24046 30.4658 1.25637C30.593 1.30408 30.7203 1.35179 30.8475 1.3995C30.8634 1.3995 30.8952 1.39949 30.9111 1.4154C31.3564 1.59033 31.8017 1.76527 32.2311 1.95611C32.2311 1.95611 32.2469 1.95611 32.2628 1.95611C32.406 2.01972 32.5332 2.08334 32.6604 2.14695C32.6604 2.14695 32.6764 2.14695 32.6923 2.16285C33.2648 2.44911 33.8373 2.75128 34.378 3.06934C36.4931 4.3257 38.3856 5.93194 39.976 7.79262C39.976 7.79262 39.976 7.79262 39.976 7.80852C40.1032 7.95165 40.2145 8.09478 40.3417 8.23791C40.4531 8.38104 40.5803 8.52417 40.6916 8.6832C40.6916 8.6832 40.7075 8.71501 40.7234 8.73091C40.8347 8.87404 40.9302 9.00127 41.0256 9.1444C41.0256 9.1444 41.0415 9.1762 41.0574 9.19211C41.1687 9.33523 41.2641 9.47837 41.3595 9.6374C41.3754 9.66921 41.3913 9.68511 41.4072 9.71692C41.4868 9.84414 41.5822 9.97137 41.6617 10.0986C41.6776 10.1304 41.6935 10.1463 41.7094 10.1781C41.8048 10.3212 41.8844 10.4644 41.9798 10.6075C42.0116 10.6552 42.0275 10.687 42.0593 10.7347C42.1229 10.846 42.2024 10.9574 42.266 11.0846C42.2978 11.1323 42.3138 11.1641 42.3456 11.2118C42.4251 11.355 42.5046 11.4822 42.5841 11.6253C42.6159 11.6889 42.6477 11.7366 42.6795 11.8003C42.7272 11.8957 42.7749 11.9911 42.8227 12.0865C42.8545 12.1501 42.8863 12.2137 42.9181 12.2614C42.9817 12.3887 43.0453 12.5318 43.1089 12.659C43.1407 12.7385 43.1725 12.8022 43.2202 12.8817C43.2202 12.9135 43.252 12.9453 43.2679 12.9771C44.5402 15.792 45.2559 18.909 45.2559 22.1851L45.3195 22.2169ZM39.6102 22.2169C39.6102 14.8855 34.8392 8.6673 28.2234 6.50445C26.6013 5.97964 24.8837 5.69339 23.0867 5.69339C22.9753 5.69339 22.8799 5.69339 22.7686 5.69339C22.6732 5.69339 22.5937 5.69339 22.4983 5.69339C22.4983 5.69339 22.4187 5.69339 22.3869 5.69339H22.1007C14.4671 6.15458 8.23301 11.7843 6.84942 19.1317C6.84942 19.1476 6.84942 19.1794 6.84942 19.1953C6.83352 19.2907 6.81759 19.3861 6.80169 19.4815C6.80169 19.5292 6.8017 19.5611 6.78579 19.6088C6.78579 19.6883 6.75398 19.7678 6.75398 19.8473C6.75398 19.895 6.75399 19.9586 6.73809 20.0063C6.73809 20.0859 6.72218 20.1654 6.70627 20.229C6.70627 20.2767 6.70628 20.3403 6.69038 20.388C6.69038 20.4675 6.67447 20.5471 6.65856 20.6266C6.65856 20.6743 6.65856 20.7061 6.65856 20.7538C6.65856 20.8492 6.64267 20.9446 6.64267 21.0401C6.64267 21.0401 6.64267 21.0401 6.64267 21.056C6.61086 21.4217 6.61086 21.8034 6.61086 22.1851C6.61086 22.3123 6.61086 22.4236 6.61086 22.5509C6.61086 22.6304 6.61086 22.7099 6.61086 22.7735C6.61086 22.7735 6.61086 22.8848 6.61086 22.9326V23.0916V23.1552C6.8017 26.4949 7.99446 29.5642 9.88695 32.0928L13.497 29.278C14.0536 28.8486 14.7215 28.61 15.4213 28.61C15.5485 28.61 15.6758 28.61 15.803 28.6418C16.6299 28.7373 17.3774 29.1666 17.8863 29.8187C18.3952 30.4707 18.6178 31.2977 18.5224 32.1247C18.427 32.9516 17.9976 33.6991 17.3456 34.208L14.6102 36.339C16.789 37.659 19.3017 38.486 21.9893 38.6609C22.3551 38.6768 22.7368 38.6927 23.1185 38.6927C29.114 38.6927 34.3462 35.512 37.2565 30.7411C38.7673 28.2442 39.642 25.3021 39.642 22.1692L39.6102 22.2169Z" fill="#505050"/>
<path fill-rule="evenodd" clip-rule="evenodd" d="M23.0868 5.69339C32.2153 5.69339 39.6103 13.0884 39.6103 22.2169H45.3196C45.3196 18.9408 44.604 15.8238 43.3317 13.0248C39.3559 5.70929 31.1975 1.71757 22.9914 3.05345C14.8012 4.38932 8.34445 10.7506 6.88135 18.9249C8.40806 11.4027 15.0556 5.69339 23.0868 5.69339Z" fill="#505050"/>
<path d="M55.6248 19.1158V1.00191C55.6248 0.365777 56.0064 0 56.6267 0H59.0122C59.7914 0 60.189 0.0636153 60.6184 0.493004L71.5122 11.8002C71.6235 11.9116 71.7984 11.9116 71.9098 11.8002L82.8035 0.493004C83.2329 0.0636153 83.6305 0 84.4097 0H86.7952C87.4313 0 87.7971 0.381681 87.7971 1.00191V19.1158C87.7971 19.7519 87.4154 20.1177 86.7952 20.1177H84.4097C83.7736 20.1177 83.4078 19.736 83.4078 19.1158V6.15457C83.4078 5.90012 83.2965 5.8047 83.0579 6.01144L73.0866 16.1577C72.6572 16.5871 72.1642 16.5871 71.703 16.5871C71.2736 16.5871 70.7488 16.5871 70.3194 16.1577L60.348 6.01144C60.1254 5.8047 59.9982 5.90012 59.9982 6.15457V19.1158C59.9982 19.7519 59.6165 20.1177 58.9962 20.1177H56.6108C55.9746 20.1177 55.6089 19.736 55.6089 19.1158H55.6248Z" fill="#505050"/>
<path d="M91.1367 12.7863C91.1367 8.09479 94.047 5.27991 101.49 5.27991C108.932 5.27991 111.906 8.09479 111.875 12.7863C111.843 17.5095 108.964 20.3244 101.49 20.3244C94.0152 20.3244 91.1367 17.5095 91.1367 12.7863ZM107.756 12.7863C107.756 9.73283 105.911 8.66731 101.49 8.66731C97.0686 8.66731 95.2557 9.73283 95.2557 12.7863C95.2557 15.8397 97.1004 16.9211 101.49 16.9211C105.879 16.9211 107.756 15.8556 107.756 12.7863Z" fill="#505050"/>
<path d="M114.165 12.7863C114.165 8.09479 117.075 5.27991 124.518 5.27991C131.961 5.27991 134.935 8.09479 134.903 12.7863C134.871 17.5095 131.992 20.3244 124.518 20.3244C117.043 20.3244 114.165 17.5095 114.165 12.7863ZM130.784 12.7863C130.784 9.73283 128.939 8.66731 124.518 8.66731C120.097 8.66731 118.284 9.73283 118.284 12.7863C118.284 15.8397 120.129 16.9211 124.518 16.9211C128.907 16.9211 130.784 15.8556 130.784 12.7863Z" fill="#505050"/>
<path d="M157.756 12.5477V19.3861C157.756 19.8473 157.501 20.1018 157.04 20.1018H154.4C153.939 20.1018 153.685 19.8473 153.685 19.3861V12.5477C153.685 9.6374 151.935 8.6673 147.816 8.6673C143.697 8.6673 141.837 9.6374 141.837 12.5477V19.3861C141.837 19.8473 141.582 20.1018 141.121 20.1018H138.497C138.036 20.1018 137.781 19.8473 137.781 19.3861V6.21819C137.781 5.757 138.036 5.50255 138.497 5.50255H141.121C141.582 5.50255 141.837 5.757 141.837 6.21819V8.11069C141.837 8.36514 142.043 8.36514 142.155 8.22201C143.045 6.58397 145.208 5.29581 149.518 5.29581C155.672 5.29581 157.772 7.85623 157.772 12.5477H157.756Z" fill="#505050"/>
<path d="M55.5134 43.257V25.1431C55.5134 24.507 55.8951 24.1412 56.5153 24.1412H57.1515C57.9307 24.1412 58.2806 24.2525 58.7259 24.6342L79.6864 40.8238C79.8613 40.9669 80.0681 40.8874 80.0681 40.6488V25.1431C80.0681 24.507 80.4179 24.1412 81.07 24.1412H81.6743C82.3104 24.1412 82.6762 24.5229 82.6762 25.1431V43.257C82.6762 43.8931 82.2945 44.2589 81.6743 44.2589H81.07C80.2589 44.2589 79.9409 44.1475 79.4956 43.7659L58.4714 27.5445C58.3283 27.4014 58.1533 27.4809 58.1533 27.7194V43.2411C58.1533 43.8772 57.7717 44.243 57.1515 44.243H56.5153C55.8792 44.243 55.5134 43.8613 55.5134 43.2411V43.257Z" fill="#505050"/>
<path d="M103.446 37.818H88.4969C88.9581 41.1577 91.6298 42.1914 96.1464 42.1914C98.9294 42.1914 101.124 41.8098 102.587 40.951C103.112 40.6329 103.51 40.5534 103.764 41.0623L104.019 41.4917C104.241 41.8893 104.273 42.1596 103.939 42.4141C102.444 43.5909 99.8518 44.4497 95.9396 44.4497C88.8626 44.4497 85.9841 41.6348 85.9841 36.9116C85.9841 32.1883 88.799 29.4052 95.7011 29.4052C102.603 29.4052 105.132 32.4268 105.132 36.2754C105.132 37.3727 104.639 37.8021 103.43 37.8021L103.446 37.818ZM88.5287 35.687H102.762C102.619 32.6972 100.44 31.6953 95.8283 31.6953C91.2163 31.6953 88.9262 32.7926 88.5287 35.687Z" fill="#505050"/>
<path d="M138.783 30.5184L129.575 43.6386C129.257 44.0998 128.859 44.2748 128.303 44.2748H126.697C126.156 44.2748 125.726 44.0998 125.424 43.6386L122.657 39.6946L119.922 43.6386C119.604 44.0998 119.206 44.2748 118.65 44.2748H117.043C116.503 44.2748 116.089 44.0998 115.771 43.6386L106.563 30.5184C106.213 30.0254 106.42 29.6597 106.992 29.6597H108.312C108.694 29.6597 108.949 29.771 109.171 30.089L117.632 42.0006C117.743 42.1755 117.918 42.1755 118.029 42.0006L121.13 37.5795L116.185 30.5343C115.835 30.0413 116.01 29.6756 116.582 29.6756H118.013C118.395 29.6756 118.65 29.7869 118.872 30.105L127.237 42.0165C127.349 42.1915 127.524 42.1915 127.635 42.0165L136 30.105C136.223 29.7869 136.493 29.6756 136.859 29.6756H138.274C138.847 29.6756 139.053 30.0572 138.704 30.5343L138.783 30.5184Z" fill="#505050"/>
<path d="M149.629 35.6075C153.16 36.2436 158.455 36.7366 158.455 40.2989C158.455 43.2569 154.782 44.4656 149.486 44.4656C144.89 44.4656 142.011 43.5432 140.978 42.9071C140.516 42.6208 140.548 42.2709 140.835 41.8097L141.296 41.0941C141.582 40.6329 141.9 40.776 142.329 40.951C143.188 41.3327 145.494 42.1914 149.947 42.1914C154.002 42.1914 155.847 41.444 155.847 40.2989C155.847 38.7722 152.508 38.3746 149.343 37.8021C145.828 37.166 140.914 36.673 140.914 33.381C140.914 30.6138 144.445 29.437 149.279 29.437C153.684 29.437 156.213 30.3276 157.279 30.8683C157.74 31.1227 157.772 31.5521 157.501 32.0451L157.279 32.5381C157.072 32.9675 156.595 32.9357 156.181 32.7926C155.354 32.4745 153.223 31.6953 148.85 31.6953C145.144 31.6953 143.475 32.2678 143.475 33.3015C143.475 34.6851 146.464 35.0827 149.629 35.6075Z" fill="#505050"/>
</svg>
