<svg width="462" height="619" viewBox="0 0 462 619" fill="none" xmlns="http://www.w3.org/2000/svg">
<g clip-path="url(#clip0_13_402)">
<path d="M231 618.18C156.87 618.18 82.74 618.18 8.61 618.18C3.89667 618.18 1.53 615.804 1.51 611.05C1.37 562.08 1.39 513.11 2.49 464.15C3.14 435.01 3.74 405.86 2.92 376.72C2.39 357.92 1.1 339.15 0.199999 320.36C-0.900001 297.39 2.72 275.56 15.93 256.09C20.43 249.45 21.37 242.43 20.66 234.35C19.33 219.17 16.84 203.83 20.68 188.62C27.46 161.76 39.64 137.79 57.32 116.24C87.95 78.8902 126.29 51.5102 167.83 28.0002C184.93 18.3202 202.44 9.47024 220.7 2.11024C227.8 -0.749764 234.37 -0.709764 241.45 2.20024C273.46 15.3302 303.39 32.2502 332.1 51.4302C359.24 69.5602 383.47 90.8602 404.44 116.02C423.18 138.51 435.66 163.81 442.04 192.23C444.08 201.29 443.04 210.48 442.57 219.61C442.23 226.42 441.78 233.25 440.87 240C439.88 247.38 443.88 252.97 447.41 258.38C460.68 278.7 463.11 301.25 461.57 324.53C458.52 370.6 458.19 416.69 459.41 462.83C460.52 504.96 460.12 547.11 460.15 589.25C460.15 597.25 460.01 605.25 460.21 613.24C460.3 616.85 459.21 618.44 455.41 618.23C451.09 617.99 446.75 618.18 442.42 618.18C371.95 618.18 301.49 618.18 231.02 618.18H231ZM127.91 562.58C125.41 561.98 123.79 559 120.83 559.76C114.97 561.28 109.14 559.29 103.3 559.81C102.15 559.91 100.96 559.91 99.85 560.19C98.53 560.52 98.2 561.71 98.09 562.92C97.92 564.66 99.18 564.83 100.35 564.71C103.75 564.35 103.55 566.58 103.54 568.83C103.52 573.48 103.54 578.14 103.6 582.79C103.62 584.34 103.93 585.93 105.94 585.98C108.28 586.04 107.9 584.2 107.91 582.77C107.94 577.78 108.16 572.78 107.85 567.82C107.6 563.8 110.57 564.88 112.49 564.47C115.58 563.81 114.33 566.4 114.37 567.58C114.55 572.56 114.48 577.55 114.53 582.53C114.55 584.29 114.8 586.06 117.12 585.96C119.45 585.86 118.63 583.91 118.89 582.56C119.31 580.41 117.61 576.81 119.98 576.38C123.01 575.84 122.67 579.83 123.7 581.91C123.85 582.2 123.92 582.54 124.01 582.86C124.52 584.78 125.48 586.63 127.7 585.96C130.58 585.1 128.6 582.98 128.25 581.47C127.62 578.77 125.04 575.81 126.36 573.52C128.52 569.8 128.09 566.24 127.83 562.48C130.68 568.9 134.95 574.86 134.03 582.48C133.81 584.28 134.42 586.05 136.62 585.91C138.95 585.75 138.16 583.64 138.1 582.36C137.86 577.74 138.81 573.5 141.09 569.45C142.22 567.44 142.96 565.19 143.69 562.99C144.09 561.77 143.55 560.58 142.29 560.15C140.95 559.69 140.1 560.47 139.64 561.73C138.75 564.17 138.25 566.79 135.97 569.39C134.88 566.77 133.87 564.56 133.03 562.28C132.5 560.84 131.57 560.16 130.11 559.97C127.96 559.69 128.47 561.56 127.93 562.59L127.91 562.58ZM230.96 527.54C303.27 527.54 375.57 527.54 447.88 527.54C454.73 527.54 454.86 527.54 454.7 520.5C454.07 492.53 453.22 464.57 452.7 436.6C452.02 399.79 451.98 362.97 454.52 326.23C456.08 303.79 454.4 282.11 442.22 262.68C435.51 251.97 434.24 241.12 435.77 228.95C438.94 203.66 434.13 179.61 422.65 156.85C410.18 132.14 392.76 111.33 372.28 93.0102C332.49 57.4202 287.2 30.4902 238.71 8.63024C233.25 6.17024 228.38 6.25024 222.95 8.68024C193.88 21.6502 166.07 36.8802 139.55 54.4702C108.64 74.9702 80.15 98.1902 57.37 127.81C33.94 158.27 21.2 192.06 25.94 231.01C27.32 242.34 25.95 252.24 19.66 262.28C10.11 277.52 6.41 294.71 6.83 312.88C7.4 337.35 9.16 361.77 9.17 386.27C9.18 431.25 7.64 476.2 7.09 521.17C7.01 527.55 7.08 527.56 13.54 527.56C86.01 527.56 158.49 527.56 230.96 527.56V527.54ZM205.69 579.4C198.62 582.85 194.92 580.23 195.25 572.22C195.4 568.7 195.87 564.87 200.67 564.76C204.64 564.67 207.23 567.71 207.28 571.97C207.32 574.96 207.28 577.99 208.28 580.84C209.47 584.25 211.63 586.51 215.6 586.43C219.84 586.35 222.21 583.74 222.75 580.07C223.57 574.52 224.04 568.86 223.5 563.21C223.36 561.76 223.16 559.97 221.07 560.08C218.81 560.2 219.28 562.09 219.25 563.49C219.14 567.98 219.17 572.47 219.02 576.95C218.95 579.01 218.44 581.11 215.82 581.23C212.97 581.36 212.15 579.25 212.04 576.96C211.83 572.65 211.87 568.32 211.73 564C211.68 562.35 211.68 560.38 209.49 560.11C206.82 559.79 207.45 562.03 207.15 563.54C206.98 564.38 207.41 565.69 205.83 565.71C204.68 559.49 200.3 557.6 195.46 561.23C188.93 566.13 189.34 580.72 196.14 585.15C198.39 586.62 200.81 586.9 203.24 585.67C205.64 584.45 206.32 582.4 205.68 579.4H205.69ZM33.96 574.89C32.41 569.87 31.39 566.21 30.13 562.64C29.56 561.01 28.28 559.84 26.32 560.02C25.15 560.12 24.61 561 24.49 562.06C23.72 569.16 22.67 576.24 23.09 583.41C23.18 584.95 24.22 585.98 25.64 585.98C27.2 585.98 27.11 584.49 27.2 583.34C27.45 580.1 27.04 576.78 28.11 573.29C30.11 575.73 29.79 578.59 30.84 580.97C31.66 582.84 31.43 585.87 34.23 585.76C36.73 585.66 36.43 582.8 36.94 581C37.71 578.26 38.11 575.41 39.87 572.2C40.13 576.49 40.28 579.97 40.59 583.43C40.72 584.86 41.47 586 43.17 585.83C44.77 585.66 44.73 584.4 44.72 583.22C44.68 576.57 44.33 569.95 43.46 563.35C43.25 561.75 42.52 560.47 40.8 560.15C38.71 559.76 38.29 561.53 37.83 562.84C36.57 566.38 35.52 569.99 33.95 574.91L33.96 574.89ZM433.53 567.06C434.45 564.54 433.92 562.46 431.87 560.88C429.5 559.05 426.94 559.46 424.28 560.36C423.12 560.75 422.54 562.76 420.5 561.19C416.58 558.19 411.87 560.24 407.51 560.02C406.09 559.95 405.2 561.09 405.12 562.69C405.01 564.73 406.4 564.82 407.75 564.69C410.41 564.44 410.7 565.95 410.67 568.06C410.58 572.89 410.6 577.72 410.64 582.55C410.65 584.08 410.81 585.69 412.87 585.8C415.27 585.93 414.88 584.07 414.9 582.66C414.95 577.5 415 572.33 414.91 567.17C414.88 565.1 415.84 564.72 417.65 564.68C419.45 564.63 420.5 564.86 420.29 567.04C419.91 571.12 421.88 573.6 425.75 574.8C427.61 575.38 429.76 575.85 429.9 578.46C429.95 579.49 429.75 580.4 428.66 580.94C426.5 582.01 424.79 581.11 423.21 579.76C422.6 579.24 422.22 578.27 421.23 578.78C420.06 579.37 420.43 580.48 420.61 581.43C421.04 583.74 422.3 585.4 424.64 586.01C428.45 587 431.63 586.09 433.5 582.43C435.48 578.57 434.34 573.89 430.98 571.8C429.58 570.93 427.97 570.42 426.47 569.71C425.07 569.05 424.58 567.94 424.96 566.43C425.4 564.7 426.8 564.92 428.11 564.68C430.44 564.26 431.27 566.97 433.53 567.07V567.06ZM68.01 573.48C67.76 573.54 67.5 573.59 67.25 573.65C66.44 571.57 65.69 569.46 64.8 567.41C63.84 565.19 63.47 562.56 61.36 561.03C59.53 559.71 56.74 558.51 56.52 561.93C56.06 569.03 56.43 576.18 56.55 583.31C56.57 584.7 57.26 585.96 58.96 585.92C60.99 585.88 60.69 584.32 60.69 583.02C60.69 579.18 60.69 575.35 60.69 571.51C62.55 573.58 63.32 575.73 64.16 577.85C65.13 580.3 65.69 583.06 67.78 584.83C69.25 586.07 71.81 587.67 71.98 584.02C72.32 576.9 72.05 569.75 71.98 562.62C71.96 561.12 71.13 560 69.53 560.09C67.9 560.18 68.04 561.62 68.02 562.74C67.98 566.32 68.01 569.9 68.01 573.48ZM332.86 571.54C334.82 572.33 334.67 573.82 335.15 574.97C336.44 578.01 337.7 581.08 339.18 584.03C339.88 585.43 341.29 586.18 342.95 585.81C344.21 585.53 344.19 584.37 344.19 583.41C344.19 576.6 344.15 569.8 344.11 562.99C344.11 561.55 343.67 560.13 342.05 560.1C339.74 560.05 340.23 562.03 340.19 563.41C340.11 566.49 340.16 569.58 340.16 572.67C338.4 571.15 337.81 569.34 337.05 567.61C336.19 565.64 335.33 563.65 334.21 561.83C333.28 560.32 331.65 559.52 329.9 560.05C327.93 560.64 328.65 562.51 328.64 563.89C328.62 570.03 328.69 576.17 328.74 582.31C328.75 583.99 328.66 585.93 331.09 585.87C333.44 585.81 332.8 583.83 332.83 582.48C332.9 578.92 332.85 575.35 332.85 571.55L332.86 571.54ZM396.08 559.79C394.25 560.25 390.77 559.25 390.43 562.06C389.56 569.31 389.83 576.65 390.35 583.95C390.43 585.1 391.29 586.11 392.76 585.99C394.36 585.85 394.28 584.65 394.5 583.46C394.94 581.04 392.83 577.02 395.89 576.54C398.77 576.08 398.73 580.4 399.61 582.77C400.38 584.84 401.33 586.82 403.75 585.88C406.17 584.94 404.29 582.95 403.86 581.62C402.6 577.74 401.32 574.33 403.35 569.91C405.87 564.42 402.18 559.77 396.09 559.8L396.08 559.79ZM149.93 573.72C150.26 575.6 150.44 577.95 151.11 580.15C152.4 584.42 156.32 587.07 160.13 586.32C164.62 585.43 166.81 582.37 167.32 577.96C167.73 574.47 167.86 571 167.29 567.49C166.64 563.49 164.7 560.56 160.64 559.83C156.62 559.1 153.54 560.83 151.75 564.61C150.44 567.37 150.33 570.36 149.93 573.74V573.72ZM347.87 571.26C347.87 571.26 347.9 571.26 347.91 571.26C347.91 573.91 347.88 576.57 347.91 579.22C347.95 581.96 348.25 584.76 351.34 585.73C354.48 586.72 357.58 586.49 360.15 584.04C365.16 579.27 365.27 566.82 360.33 562.04C357.17 558.98 353.31 559.17 349.61 560.32C346.2 561.38 348.41 564.6 347.92 566.79C347.6 568.21 347.86 569.76 347.86 571.25L347.87 571.26ZM272.84 572.79H272.9C272.9 576.27 272.9 579.75 272.9 583.24C272.9 584.75 273.52 585.82 275.15 585.97C277.28 586.17 276.77 584.53 277.08 583.31C277.66 580.99 275.29 577.03 278.65 576.6C281.71 576.21 281.26 580.56 282.32 582.81C283.14 584.55 283.74 586.54 286.06 585.76C288.46 584.96 287.13 582.81 286.63 581.55C285.01 577.52 283.92 573.83 286.28 569.49C287.74 566.81 286.84 563.5 284.28 561.38C281.24 558.86 277.58 559.33 274.35 560.68C271.34 561.94 273.19 565.06 272.88 567.33C272.64 569.12 272.83 570.97 272.83 572.8L272.84 572.79ZM269.47 570.46C269.47 570.46 269.39 570.46 269.35 570.46C269.35 568.3 269.4 566.14 269.33 563.99C269.28 562.34 269.36 560.3 267.11 560.19C264.44 560.06 265.17 562.38 265.12 563.85C265 567.33 265.18 570.82 265.01 574.3C264.88 577.13 265.69 581.22 261.46 581.26C257.29 581.3 258.05 577.19 257.67 574.36C257.58 573.71 257.65 573.03 257.64 572.37C257.58 569.05 257.55 565.74 257.43 562.42C257.38 561.13 256.66 560.2 255.3 560.08C253.81 559.95 253.21 560.89 253.22 562.23C253.29 568.19 252.57 574.22 253.95 580.09C254.85 583.94 257.24 586.66 261.66 586.4C266 586.14 268.18 583.32 268.86 579.4C269.36 576.48 269.3 573.45 269.48 570.47L269.47 570.46ZM289.17 572.12C289.17 572.12 289.24 572.12 289.27 572.12C289.27 574.45 288.99 576.82 289.33 579.09C290 583.52 292.28 586.52 297.29 586.19C299.66 586.03 302.89 586.69 302.85 582.93C302.81 578.73 299.67 581.52 298.06 581.4C295.5 581.21 293.95 580.44 293.6 577.78C293.21 574.83 295.33 575.13 297.13 574.98C297.63 574.94 298.13 574.91 298.62 574.89C300.25 574.8 300.99 573.81 301.09 572.31C301.22 570.29 299.72 570.45 298.38 570.33C296.4 570.15 293.67 571.1 293.68 567.56C293.68 563.6 296.73 565.07 298.77 564.77C299.75 564.63 300.79 564.7 301.73 564.43C302.9 564.09 302.91 562.96 302.95 561.96C302.99 560.8 302.46 560.26 301.29 559.92C293.78 557.72 289.63 560.48 289.18 568.14C289.1 569.47 289.17 570.8 289.17 572.13V572.12ZM380.73 579.86C383.87 578.67 383.94 581.2 384.38 583.41C384.71 585.06 385.65 586.19 387.47 585.97C388.75 585.81 388.91 584.7 388.72 583.67C387.4 576.31 386.05 568.93 382.86 562.1C381.77 559.77 379.34 558.62 378 561.53C374.88 568.34 373.08 575.61 372.18 583.07C372 584.51 372.48 585.82 374.17 585.98C376.17 586.18 376.11 584.52 376.25 583.26C376.54 580.71 377.57 579.18 380.73 579.85V579.86ZM310.79 581.75C311.1 583.47 310.09 585.58 312.59 585.98C314.03 586.21 314.66 585.17 314.78 583.86C314.99 581.67 314.96 579.68 318.25 579.63C321.39 579.59 322.81 580.62 323.05 583.7C323.17 585.22 324.28 586.12 325.8 585.99C327.56 585.83 327.13 584.29 327.01 583.27C326.11 576 324.27 568.96 321.45 562.19C320.88 560.83 319.87 560.01 318.4 560.06C317.04 560.11 316.51 561.22 316.05 562.33C313.42 568.65 311.8 575.23 310.79 581.75ZM89.58 586.45C93.57 586.09 96.11 584.32 96.97 580.55C98.08 575.64 96.54 573.17 90.59 570.38C89.23 569.74 87.66 569.29 87.64 567.43C87.63 566.2 88.13 565.07 89.52 564.86C90.99 564.64 92.47 564.53 93.77 565.66C94.43 566.24 95.11 567.54 96.19 566.75C97.31 565.94 96.79 564.6 96.48 563.5C95.8 561.15 94.07 559.93 91.75 559.67C88.93 559.36 86.47 560.21 84.71 562.57C81.1 567.4 82.98 572.3 89.69 575.14C91.99 576.12 93.81 577.49 92.49 579.91C91.22 582.25 88.83 581.56 86.8 580.43C85.79 579.87 85.28 577.58 83.72 579.07C82.47 580.26 83.39 581.96 84.07 583.24C85.27 585.5 87.38 586.38 89.6 586.46L89.58 586.45ZM177.72 559.86C170.91 559.91 170.63 560.18 170.63 566.74C170.63 570.88 170.43 575.04 170.66 579.17C170.79 581.54 169.17 585.66 172.81 585.74C176.87 585.83 174.23 581.65 174.9 579.46C175.44 577.7 173.72 574.75 177.48 574.81C179.58 574.84 181.76 574.77 181.78 572C181.8 569.01 179.23 570.04 177.67 569.9C175.94 569.75 174.93 569.48 174.92 567.39C174.91 565 176.15 564.66 178.05 564.78C179.04 564.84 180.04 564.78 181.03 564.69C182.82 564.52 182.96 563.22 182.97 561.8C182.97 560.23 182.02 559.87 180.71 559.87C179.72 559.87 178.72 559.87 177.73 559.86H177.72ZM241.21 574.64C241.21 574.64 241.24 574.64 241.25 574.64C241.25 577.45 241.18 580.27 241.28 583.08C241.34 584.69 242.02 586.08 243.93 586.01C245.85 585.93 245.7 584.34 245.71 583.05C245.76 578.41 245.78 573.78 245.77 569.14C245.77 566.83 245.29 564.36 249.04 564.61C250.75 564.72 251.02 563.17 251.04 561.76C251.06 560.5 250.23 559.96 249.16 559.95C245.52 559.92 241.88 559.9 238.25 560.03C236.71 560.08 236 561.13 235.91 562.7C235.82 564.26 236.59 564.88 237.96 564.71C241.24 564.31 241.33 566.33 241.23 568.69C241.14 570.67 241.21 572.66 241.21 574.65V574.64ZM226.86 570.36C226.94 570.36 227.03 570.36 227.11 570.36C227.11 573.51 226.79 576.7 227.18 579.8C227.85 585.06 232.71 587.7 237.56 585.91C239.32 585.26 239.75 583.93 239.76 582.44C239.77 580.23 237.99 580.84 236.84 581.04C232.25 581.87 230.94 579.61 231.08 575.48C231.22 571.5 231.07 567.52 231.05 563.53C231.05 561.77 230.86 559.98 228.58 560C226.14 560.02 226.99 562.1 226.9 563.38C226.75 565.69 226.86 568.02 226.86 570.35V570.36ZM52.6 573.57C52.6 573.57 52.56 573.57 52.54 573.57C52.54 569.92 52.56 566.27 52.53 562.62C52.52 561.3 51.83 560.44 50.51 560.16C49.35 559.91 48.33 560.35 48.33 561.51C48.3 568.97 48.33 576.44 48.49 583.9C48.51 585.08 49.42 586.05 50.85 585.99C52.43 585.92 52.62 584.82 52.61 583.55C52.59 580.23 52.61 576.91 52.61 573.59L52.6 573.57ZM80.27 573.38H80.23C80.23 569.9 80.27 566.42 80.21 562.94C80.19 561.52 79.64 560.3 78.02 560.09C76.83 559.94 76.07 560.61 76.07 561.77C76.08 569.06 76.1 576.35 76.25 583.64C76.27 584.85 77.24 585.8 78.58 585.8C80.25 585.81 80.24 584.46 80.25 583.32C80.29 580 80.26 576.69 80.26 573.37L80.27 573.38Z" fill="#92722F"/>
<path d="M230.96 527.55C158.49 527.55 86.01 527.55 13.54 527.55C7.08 527.55 7.01 527.55 7.09 521.16C7.64 476.19 9.18 431.24 9.17 386.26C9.17 361.77 7.4 337.34 6.83 312.87C6.41 294.7 10.11 277.52 19.66 262.27C25.95 252.23 27.32 242.33 25.94 231C21.19 192.06 33.94 158.26 57.37 127.8C80.15 98.1798 108.64 74.9598 139.55 54.4598C166.07 36.8698 193.88 21.6398 222.95 8.66983C228.38 6.24983 233.26 6.15983 238.71 8.61983C287.21 30.4798 332.5 57.4098 372.28 92.9998C392.76 111.32 410.19 132.13 422.65 156.84C434.13 179.6 438.94 203.65 435.77 228.94C434.24 241.11 435.51 251.97 442.22 262.67C454.4 282.1 456.07 303.78 454.52 326.22C451.97 362.96 452.01 399.78 452.7 436.59C453.22 464.56 454.07 492.52 454.7 520.49C454.86 527.53 454.73 527.53 447.88 527.53C375.57 527.53 303.27 527.53 230.96 527.53V527.55ZM230.95 518.16V518.13C238.11 518.13 245.28 518.13 252.44 518.13C314.74 518.14 377.04 518.11 439.35 518.26C443.92 518.27 445.73 517.42 445.35 512.34C444.68 503.39 444.92 494.37 444.61 485.38C442.73 430.96 442.01 376.55 445.43 322.15C445.89 314.85 446.01 307.55 445.35 300.21C444.02 285.53 437.75 272.67 430.54 260.31C425.99 252.5 424.54 244.63 425.98 235.95C426.25 234.31 426.26 232.63 426.44 230.98C428.84 208.89 426.47 187.51 417.2 167.09C404.95 140.1 386.38 117.93 364.4 98.4798C325.58 64.1298 281.48 38.1598 234.41 16.9098C231.46 15.5798 229.1 16.1398 226.38 17.3598C200.21 28.9898 175.09 42.5698 151.03 58.0898C121.87 76.8998 94.63 97.9898 71.94 124.53C43.92 157.3 28.96 194.11 35.79 238.01C36.93 245.3 36.37 252.67 32.09 259.21C20.53 276.84 15 296.02 16.08 317.26C17.23 339.86 18.38 362.48 18.36 385.13C18.33 427.59 17.44 470.04 16.31 512.49C16.19 517.1 17.47 518.28 22.06 518.27C91.69 518.12 161.32 518.17 230.96 518.17L230.95 518.16Z" fill="#F6F5EF"/>
<path d="M205.7 579.4C206.35 582.41 205.67 584.45 203.26 585.67C200.83 586.9 198.41 586.62 196.16 585.15C189.36 580.72 188.95 566.13 195.48 561.23C200.32 557.6 204.7 559.49 205.85 565.71C207.44 565.69 207 564.38 207.17 563.54C207.48 562.03 206.85 559.79 209.51 560.11C211.7 560.38 211.7 562.35 211.75 564C211.89 568.32 211.84 572.64 212.06 576.96C212.17 579.25 213 581.36 215.84 581.23C218.46 581.11 218.96 579.01 219.04 576.95C219.2 572.47 219.16 567.98 219.27 563.49C219.3 562.09 218.83 560.19 221.09 560.08C223.18 559.97 223.38 561.76 223.52 563.21C224.06 568.86 223.59 574.51 222.77 580.07C222.23 583.74 219.86 586.34 215.62 586.43C211.66 586.51 209.49 584.25 208.3 580.84C207.3 577.98 207.34 574.96 207.3 571.97C207.24 567.71 204.66 564.67 200.69 564.76C195.88 564.87 195.42 568.7 195.27 572.22C194.93 580.23 198.63 582.85 205.71 579.4H205.7Z" fill="#F6F5EF"/>
<path d="M127.83 562.46C128.09 566.23 128.52 569.78 126.36 573.51C125.04 575.79 127.62 578.76 128.25 581.46C128.6 582.97 130.58 585.09 127.7 585.95C125.47 586.62 124.51 584.77 124.01 582.85C123.93 582.53 123.85 582.2 123.7 581.9C122.67 579.81 123.01 575.83 119.98 576.37C117.61 576.79 119.32 580.4 118.89 582.55C118.62 583.9 119.45 585.85 117.12 585.95C114.8 586.05 114.55 584.28 114.53 582.52C114.48 577.54 114.55 572.55 114.37 567.57C114.33 566.39 115.58 563.81 112.49 564.46C110.57 564.87 107.6 563.78 107.85 567.81C108.16 572.78 107.94 577.78 107.91 582.76C107.91 584.19 108.28 586.03 105.94 585.97C103.92 585.92 103.62 584.33 103.6 582.78C103.53 578.13 103.52 573.48 103.54 568.82C103.55 566.57 103.75 564.34 100.35 564.7C99.18 564.82 97.92 564.65 98.09 562.91C98.21 561.7 98.54 560.52 99.85 560.18C100.96 559.9 102.14 559.9 103.3 559.8C109.14 559.28 114.98 561.27 120.83 559.75C123.79 558.98 125.41 561.97 127.91 562.57L127.82 562.45L127.83 562.46ZM118.89 567.75C119.14 568.97 118.29 570.91 120.75 570.89C122.77 570.87 123.76 569.69 123.8 567.78C123.84 565.93 123.14 564.69 120.94 564.65C118.49 564.6 119 566.28 118.89 567.74V567.75Z" fill="#F6F5EF"/>
<path d="M33.97 574.89C35.53 569.96 36.59 566.35 37.85 562.82C38.31 561.52 38.73 559.74 40.82 560.13C42.54 560.45 43.27 561.73 43.48 563.33C44.35 569.92 44.7 576.55 44.74 583.2C44.74 584.39 44.79 585.65 43.19 585.81C41.49 585.99 40.74 584.84 40.61 583.41C40.31 579.94 40.16 576.46 39.89 572.18C38.13 575.39 37.73 578.24 36.96 580.98C36.45 582.78 36.74 585.64 34.25 585.74C31.46 585.86 31.69 582.82 30.86 580.95C29.81 578.57 30.13 575.7 28.13 573.27C27.06 576.77 27.46 580.08 27.22 583.32C27.13 584.47 27.22 585.96 25.66 585.96C24.24 585.96 23.2 584.93 23.11 583.39C22.69 576.22 23.74 569.13 24.51 562.04C24.62 560.98 25.17 560.11 26.34 560C28.29 559.83 29.57 560.99 30.15 562.62C31.41 566.2 32.43 569.85 33.98 574.87L33.97 574.89Z" fill="#F6F5EF"/>
<path d="M433.54 567.05C431.28 566.94 430.46 564.24 428.12 564.66C426.8 564.9 425.41 564.68 424.97 566.41C424.58 567.92 425.08 569.03 426.48 569.69C427.98 570.4 429.59 570.92 430.99 571.78C434.35 573.87 435.48 578.55 433.51 582.41C431.64 586.06 428.47 586.97 424.65 585.99C422.3 585.38 421.04 583.72 420.62 581.41C420.45 580.47 420.08 579.35 421.24 578.76C422.24 578.26 422.62 579.22 423.22 579.74C424.8 581.09 426.51 581.99 428.67 580.92C429.76 580.38 429.97 579.47 429.91 578.44C429.77 575.84 427.62 575.36 425.76 574.78C421.89 573.58 419.92 571.09 420.3 567.02C420.5 564.84 419.46 564.62 417.66 564.66C415.86 564.71 414.89 565.09 414.92 567.15C415.01 572.31 414.96 577.47 414.91 582.64C414.9 584.05 415.28 585.91 412.88 585.78C410.82 585.67 410.66 584.05 410.65 582.53C410.61 577.7 410.59 572.87 410.68 568.04C410.72 565.93 410.43 564.42 407.76 564.67C406.41 564.8 405.02 564.7 405.13 562.67C405.21 561.07 406.1 559.92 407.52 560C411.88 560.22 416.59 558.17 420.51 561.17C422.55 562.73 423.13 560.73 424.29 560.34C426.95 559.44 429.51 559.02 431.88 560.86C433.93 562.45 434.46 564.53 433.54 567.04V567.05Z" fill="#F6F5EF"/>
<path d="M68.02 573.47C68.02 569.89 68 566.31 68.03 562.73C68.04 561.6 67.91 560.17 69.54 560.08C71.14 559.99 71.97 561.11 71.99 562.61C72.07 569.75 72.34 576.89 71.99 584.01C71.82 587.66 69.26 586.06 67.79 584.82C65.7 583.05 65.13 580.3 64.17 577.84C63.33 575.72 62.57 573.58 60.7 571.5C60.7 575.34 60.7 579.17 60.7 583.01C60.7 584.31 61 585.87 58.97 585.91C57.27 585.94 56.59 584.69 56.56 583.3C56.44 576.17 56.07 569.01 56.53 561.92C56.75 558.5 59.54 559.7 61.37 561.02C63.48 562.55 63.84 565.18 64.81 567.4C65.7 569.45 66.45 571.56 67.26 573.64C67.51 573.58 67.77 573.53 68.02 573.47Z" fill="#F6F5EF"/>
<path d="M332.87 571.53C332.87 575.32 332.92 578.89 332.85 582.46C332.82 583.82 333.46 585.8 331.11 585.85C328.69 585.91 328.78 583.97 328.76 582.29C328.71 576.15 328.64 570.01 328.66 563.87C328.66 562.49 327.95 560.62 329.92 560.03C331.67 559.5 333.31 560.3 334.23 561.81C335.35 563.63 336.21 565.62 337.07 567.59C337.83 569.32 338.42 571.13 340.18 572.65C340.18 569.56 340.12 566.48 340.21 563.39C340.25 562.02 339.76 560.03 342.07 560.08C343.69 560.12 344.12 561.53 344.13 562.97C344.17 569.78 344.21 576.58 344.21 583.39C344.21 584.35 344.24 585.51 342.97 585.79C341.31 586.16 339.9 585.41 339.2 584.01C337.72 581.06 336.46 577.99 335.17 574.95C334.68 573.8 334.83 572.31 332.88 571.52L332.87 571.53Z" fill="#F6F5EF"/>
<path d="M396.09 559.78C402.18 559.75 405.87 564.4 403.35 569.89C401.32 574.31 402.6 577.719 403.86 581.599C404.29 582.929 406.17 584.919 403.75 585.859C401.33 586.799 400.38 584.81 399.61 582.75C398.73 580.39 398.77 576.07 395.89 576.52C392.83 577 394.94 581.02 394.5 583.44C394.29 584.63 394.36 585.829 392.76 585.969C391.29 586.099 390.44 585.08 390.35 583.93C389.83 576.63 389.56 569.289 390.43 562.039C390.77 559.229 394.25 560.23 396.08 559.77L396.09 559.78ZM394.57 568.479C394.65 568.999 394.19 570.969 396.85 570.859C398.81 570.779 399.45 569.489 399.48 567.919C399.51 566.249 399.23 564.67 396.81 564.65C394.66 564.63 394.31 565.739 394.57 568.479Z" fill="#F6F5EF"/>
<path d="M149.94 573.71C150.33 570.33 150.45 567.34 151.76 564.58C153.56 560.8 156.63 559.07 160.65 559.8C164.71 560.54 166.64 563.47 167.3 567.46C167.87 570.97 167.74 574.44 167.33 577.93C166.82 582.34 164.63 585.4 160.14 586.29C156.33 587.05 152.41 584.39 151.12 580.12C150.45 577.92 150.27 575.58 149.94 573.69V573.71ZM163.81 572.99C163.65 571.7 163.62 570.02 163.19 568.45C162.6 566.32 161.63 564.53 158.82 564.64C156.26 564.74 155.45 566.37 154.95 568.37C154.29 570.95 154.14 573.57 154.73 576.2C155.29 578.68 155.91 581.27 159.07 581.35C162.31 581.43 162.86 578.68 163.51 576.3C163.77 575.37 163.7 574.34 163.81 573V572.99Z" fill="#F6F5EF"/>
<path d="M347.88 571.25C347.88 569.76 347.62 568.21 347.94 566.79C348.43 564.6 346.22 561.38 349.63 560.32C353.32 559.17 357.19 558.98 360.35 562.04C365.29 566.82 365.18 579.27 360.17 584.04C357.59 586.49 354.49 586.72 351.36 585.73C348.27 584.75 347.97 581.96 347.93 579.22C347.89 576.57 347.93 573.91 347.93 571.26C347.92 571.26 347.9 571.26 347.89 571.26L347.88 571.25ZM352.07 572.34H352.11C352.11 574.16 352.13 575.99 352.11 577.81C352.09 579.36 352.08 580.89 354.07 581.25C355.69 581.54 356.96 580.92 357.97 579.64C360.21 576.79 360.17 569.2 358.01 566.35C356.83 564.81 355.3 564.5 353.6 564.76C351.29 565.12 352.27 567.04 352.12 568.35C351.98 569.66 352.09 571 352.09 572.33L352.07 572.34Z" fill="#F6F5EF"/>
<path d="M272.85 572.78C272.85 570.96 272.66 569.11 272.9 567.31C273.2 565.04 271.36 561.92 274.37 560.66C277.6 559.31 281.26 558.84 284.3 561.36C286.86 563.48 287.76 566.79 286.3 569.47C283.93 573.81 285.03 577.5 286.65 581.53C287.16 582.79 288.49 584.94 286.08 585.74C283.76 586.52 283.16 584.53 282.34 582.79C281.28 580.54 281.73 576.19 278.67 576.58C275.31 577.01 277.68 580.97 277.1 583.29C276.79 584.52 277.3 586.15 275.17 585.95C273.54 585.8 272.92 584.73 272.92 583.22C272.92 579.74 272.92 576.26 272.92 572.77H272.86L272.85 572.78ZM277.13 567.32C277.07 569.08 276.92 570.87 279.41 570.86C281.28 570.86 282.01 569.63 282.12 567.98C282.24 566.14 281.74 564.78 279.49 564.66C277.37 564.55 276.94 565.64 277.13 567.32Z" fill="#F6F5EF"/>
<path d="M269.48 570.44C269.29 573.42 269.36 576.44 268.86 579.37C268.18 583.29 266 586.12 261.66 586.37C257.24 586.63 254.85 583.92 253.95 580.06C252.58 574.19 253.29 568.16 253.22 562.2C253.2 560.86 253.81 559.92 255.3 560.05C256.67 560.17 257.38 561.1 257.43 562.39C257.55 565.7 257.58 569.02 257.64 572.34C257.65 573 257.59 573.68 257.67 574.33C258.05 577.15 257.29 581.26 261.46 581.23C265.69 581.19 264.88 577.1 265.01 574.27C265.18 570.79 264.99 567.3 265.12 563.82C265.17 562.35 264.44 560.03 267.11 560.16C269.36 560.27 269.28 562.31 269.33 563.96C269.39 566.12 269.35 568.27 269.35 570.43C269.39 570.43 269.43 570.43 269.47 570.43L269.48 570.44Z" fill="#F6F5EF"/>
<path d="M289.18 572.11C289.18 570.78 289.11 569.44 289.19 568.12C289.65 560.47 293.79 557.7 301.3 559.9C302.47 560.24 303 560.78 302.96 561.94C302.92 562.95 302.91 564.07 301.74 564.41C300.8 564.68 299.77 564.61 298.78 564.75C296.74 565.05 293.7 563.58 293.69 567.54C293.69 571.08 296.41 570.13 298.39 570.31C299.73 570.44 301.23 570.27 301.1 572.29C301 573.79 300.26 574.78 298.63 574.87C298.13 574.9 297.63 574.92 297.14 574.96C295.34 575.11 293.22 574.8 293.61 577.76C293.96 580.42 295.51 581.19 298.07 581.38C299.67 581.5 302.81 578.71 302.86 582.91C302.9 586.67 299.66 586.01 297.3 586.17C292.29 586.5 290.01 583.5 289.34 579.07C288.99 576.79 289.28 574.42 289.28 572.1C289.25 572.1 289.21 572.1 289.18 572.1V572.11Z" fill="#F6F5EF"/>
<path d="M380.75 579.85C377.59 579.18 376.55 580.71 376.27 583.26C376.13 584.52 376.19 586.18 374.19 585.98C372.5 585.81 372.03 584.5 372.2 583.07C373.11 575.61 374.9 568.34 378.02 561.53C379.36 558.62 381.79 559.77 382.88 562.1C386.07 568.93 387.42 576.31 388.74 583.67C388.92 584.7 388.77 585.81 387.49 585.97C385.67 586.19 384.73 585.06 384.4 583.41C383.96 581.2 383.89 578.67 380.75 579.86V579.85ZM380.2 567.47C379.15 570.31 377.73 572.3 378.96 574.59C379.43 575.47 381.26 575.42 381.65 574.78C383.13 572.34 381.38 570.35 380.2 567.46V567.47Z" fill="#F6F5EF"/>
<path d="M310.8 581.73C311.81 575.2 313.43 568.62 316.06 562.31C316.52 561.2 317.05 560.09 318.41 560.04C319.88 559.99 320.89 560.81 321.46 562.17C324.28 568.94 326.12 575.98 327.02 583.25C327.15 584.27 327.58 585.81 325.81 585.97C324.3 586.1 323.18 585.2 323.06 583.68C322.82 580.6 321.4 579.57 318.26 579.61C314.97 579.66 314.99 581.64 314.79 583.84C314.67 585.15 314.03 586.18 312.6 585.96C310.09 585.56 311.11 583.45 310.8 581.73ZM318.44 567.87C317.8 570.55 315.64 572.55 317.8 574.88C318.19 575.3 320.41 574.91 320.46 574.65C320.89 572.35 320.31 570.21 318.44 567.88V567.87Z" fill="#F6F5EF"/>
<path d="M89.59 586.43C87.38 586.35 85.26 585.47 84.06 583.21C83.38 581.94 82.46 580.23 83.71 579.04C85.27 577.55 85.78 579.84 86.79 580.4C88.82 581.54 91.21 582.22 92.48 579.88C93.8 577.46 91.98 576.08 89.68 575.11C82.97 572.27 81.09 567.37 84.7 562.54C86.46 560.18 88.92 559.33 91.74 559.64C94.07 559.9 95.8 561.12 96.47 563.47C96.79 564.57 97.3 565.91 96.18 566.72C95.1 567.5 94.42 566.2 93.76 565.63C92.46 564.49 90.98 564.6 89.51 564.83C88.13 565.04 87.62 566.16 87.63 567.4C87.65 569.26 89.22 569.72 90.58 570.35C96.53 573.14 98.07 575.61 96.96 580.52C96.1 584.29 93.57 586.07 89.57 586.42L89.59 586.43Z" fill="#F6F5EF"/>
<path d="M177.73 559.85C178.72 559.85 179.72 559.85 180.71 559.85C182.02 559.85 182.98 560.21 182.97 561.78C182.97 563.19 182.82 564.5 181.03 564.67C180.04 564.76 179.04 564.82 178.05 564.76C176.15 564.64 174.9 564.99 174.92 567.37C174.93 569.46 175.94 569.73 177.67 569.88C179.23 570.02 181.81 568.99 181.78 571.98C181.76 574.76 179.59 574.83 177.48 574.79C173.72 574.73 175.45 577.68 174.9 579.44C174.22 581.63 176.87 585.81 172.81 585.72C169.17 585.64 170.79 581.52 170.66 579.15C170.43 575.02 170.63 570.87 170.63 566.72C170.63 560.16 170.92 559.89 177.72 559.84L177.73 559.85Z" fill="#F6F5EF"/>
<path d="M127.91 562.58C128.45 561.56 127.94 559.69 130.09 559.96C131.56 560.15 132.48 560.83 133.01 562.27C133.85 564.55 134.86 566.76 135.95 569.38C138.23 566.77 138.73 564.15 139.62 561.72C140.08 560.46 140.93 559.68 142.27 560.14C143.53 560.57 144.08 561.76 143.67 562.98C142.94 565.18 142.2 567.43 141.07 569.44C138.8 573.49 137.85 577.73 138.08 582.35C138.15 583.62 138.93 585.74 136.6 585.9C134.4 586.05 133.79 584.27 134.01 582.47C134.93 574.86 130.66 568.89 127.81 562.47L127.89 562.58H127.91Z" fill="#F6F5EF"/>
<path d="M241.22 574.62C241.22 572.63 241.15 570.64 241.24 568.66C241.35 566.3 241.25 564.28 237.97 564.68C236.6 564.85 235.82 564.23 235.92 562.67C236.01 561.1 236.72 560.06 238.26 560C241.89 559.88 245.54 559.89 249.17 559.92C250.25 559.93 251.07 560.47 251.05 561.73C251.03 563.14 250.76 564.7 249.05 564.58C245.3 564.33 245.78 566.8 245.78 569.11C245.78 573.75 245.77 578.38 245.72 583.02C245.7 584.31 245.85 585.9 243.94 585.98C242.02 586.06 241.34 584.66 241.29 583.05C241.19 580.24 241.26 577.42 241.26 574.61C241.25 574.61 241.23 574.61 241.22 574.61V574.62Z" fill="#F6F5EF"/>
<path d="M226.88 570.34C226.88 568.02 226.77 565.69 226.92 563.37C227 562.09 226.16 560 228.6 559.99C230.88 559.97 231.06 561.76 231.07 563.52C231.09 567.5 231.24 571.49 231.1 575.47C230.95 579.6 232.26 581.86 236.86 581.03C238.01 580.82 239.79 580.22 239.78 582.43C239.78 583.91 239.34 585.25 237.58 585.9C232.73 587.69 227.87 585.06 227.2 579.79C226.81 576.69 227.13 573.5 227.13 570.35C227.05 570.35 226.96 570.35 226.88 570.35V570.34Z" fill="#F6F5EF"/>
<path d="M52.62 573.55C52.62 576.87 52.61 580.19 52.62 583.51C52.62 584.78 52.44 585.88 50.86 585.95C49.43 586.01 48.52 585.04 48.5 583.86C48.35 576.4 48.31 568.94 48.34 561.47C48.34 560.31 49.37 559.88 50.52 560.12C51.84 560.4 52.53 561.26 52.54 562.58C52.57 566.23 52.55 569.88 52.55 573.53C52.57 573.53 52.59 573.53 52.61 573.53L52.62 573.55Z" fill="#F6F5EF"/>
<path d="M80.29 573.36C80.29 576.68 80.31 579.99 80.28 583.31C80.27 584.46 80.28 585.81 78.61 585.79C77.27 585.79 76.3 584.83 76.28 583.63C76.13 576.34 76.11 569.05 76.1 561.76C76.1 560.59 76.85 559.92 78.05 560.08C79.67 560.29 80.22 561.51 80.24 562.93C80.3 566.41 80.26 569.89 80.26 573.37H80.3L80.29 573.36Z" fill="#F6F5EF"/>
<path d="M230.95 518.15C161.32 518.15 91.69 518.1 22.05 518.25C17.47 518.25 16.18 517.09 16.3 512.47C17.43 470.03 18.31 427.58 18.35 385.11C18.37 362.46 17.22 339.85 16.07 317.24C14.99 296 20.52 276.82 32.08 259.19C36.36 252.65 36.92 245.28 35.78 237.99C28.94 194.09 43.9 157.28 71.93 124.51C94.63 97.9702 121.86 76.8802 151.02 58.0702C175.08 42.5502 200.2 28.9702 226.37 17.3402C229.1 16.1302 231.46 15.5602 234.4 16.8902C281.47 38.1302 325.57 64.1002 364.39 98.4602C386.37 117.92 404.94 140.08 417.19 167.07C426.46 187.49 428.83 208.87 426.43 230.96C426.25 232.62 426.24 234.3 425.97 235.93C424.53 244.61 425.97 252.49 430.53 260.29C437.74 272.65 444.01 285.51 445.34 300.19C446 307.52 445.88 314.82 445.42 322.13C442 376.53 442.72 430.94 444.6 485.36C444.91 494.34 444.68 503.36 445.34 512.32C445.72 517.4 443.91 518.25 439.34 518.24C377.04 518.09 314.74 518.12 252.43 518.11C245.27 518.11 238.1 518.11 230.94 518.11V518.14L230.95 518.15ZM196.99 110.21C196.9 109.48 196.8 108.75 196.71 108.01C198.01 107.85 199.32 107.68 201.31 107.43C194.65 105.57 188.51 105.01 182.44 105.79C170.97 107.27 163.95 111.6 164.81 124.52C165.26 131.32 164.96 138.17 164.89 145C164.83 150.65 165.1 156.31 164.01 161.93C162.64 168.98 159.16 172.4 152.02 172.98C145.23 173.52 138.81 172.26 132.82 168.87C124.23 164.01 116.08 158.46 107.95 152.87C106.17 151.64 104.45 150.29 101.77 151.12C108.26 155.95 114 161.52 119.85 166.97C125.19 171.93 130.89 176.36 137.64 179.2C156.66 187.18 177.49 174.43 176.43 153.57C175.86 142.28 176.25 130.93 176.32 119.61C176.36 112.89 177.71 111.17 183.93 109.18L186.04 110.62C185.95 110.94 185.77 111.26 185.77 111.58C185.74 135.71 185.8 159.85 185.67 183.98C185.64 189.14 189.28 187.18 191.62 187.33C194.13 187.49 197.19 188.55 197.14 183.61C196.9 159.14 197.02 134.67 197.01 110.2L196.99 110.21ZM375.12 419.53C374.56 418.47 373.46 418.38 372.96 419.1C372.62 419.59 373.72 420.13 374.44 420.3C381.59 424.74 388.94 424.62 396.23 420.86C403.2 417.26 405.86 410.98 405.93 403.51C406.04 391.36 405.89 379.2 405.95 367.05C405.99 359.1 408.59 356.42 416.61 355.7C418.79 355.51 420.98 355.29 423.16 355.09C418.03 353.59 412.9 352.83 407.99 354.6C399.74 357.58 391.37 358.95 382.58 358.79C375.92 358.67 372.12 361.84 369.98 368.11C367.54 375.25 367.55 382.53 369.48 389.74C371.17 396.04 373.69 397.76 380.23 397.84C383.56 397.88 386.89 397.84 390.22 397.87C391.74 397.88 392.98 397.91 393.39 400.06C395.94 413.47 389.59 420.7 376.12 419.51C375.79 419.48 375.46 419.53 375.12 419.54V419.53ZM172.84 353.47C174.27 353.63 175.72 354.04 177.68 352.89C175.66 352.92 174.66 351.33 172.98 351.9C167.76 351.63 162.68 350.13 157.34 350.72C144.97 352.08 139.7 357.77 139.62 370C139.54 381.81 139.52 393.64 138.98 405.44C138.63 413.16 134 417.56 127.22 417.79C120.13 418.03 115.31 413.87 114.27 406.1C113.61 401.17 113.21 396.14 113.33 391.17C113.48 385.04 110.71 381.02 105.54 378.37C96.38 373.67 86.98 374.63 77.54 377.27C83.43 378.19 89.33 378.89 95.24 379.43C99.54 379.82 101.35 382.4 101.53 386.35C101.74 391 101.78 395.67 101.84 400.33C102.01 415.45 111.65 424.77 127.24 424.85C141.04 424.92 150.83 415.17 151.07 400.83C151.27 388.51 151.41 376.18 151.19 363.86C151.09 358.64 153.06 355.89 158.03 354.53C162.96 353.18 167.95 354.16 172.87 353.48L172.84 353.47ZM375.42 247.56C376.95 248.04 378.47 248.28 380.1 247.38C378.7 245.99 377.14 245.61 375.35 245.92C368.63 244.65 361.92 243.74 355.03 244.58C343.42 246.01 338.94 250.88 338.94 262.55C338.95 298.7 338.98 334.86 338.96 371.01C338.96 379.61 339.79 388.37 334.35 396.51H354.17C353.09 390.47 350.9 384.85 350.89 378.77C350.85 356.78 350.57 334.79 350.5 312.8C350.44 294.97 350.53 277.15 350.61 259.32C350.65 250.31 352.94 247.89 361.99 247.17C366.48 246.81 370.97 246.8 375.44 247.55L375.42 247.56ZM300.32 309.66C296.54 303.46 296.1 296.63 296.07 289.86C295.91 253.38 295.94 216.91 295.93 180.43C295.93 173.55 297.87 171.44 304.63 169.87C310.07 168.61 315.64 169.18 321.12 168.5C316 166.66 310.69 165.87 305.43 166.12C292.21 166.74 283.87 170.65 284.15 186.63C284.79 222.93 284.38 259.24 284.38 295.55C284.38 297.37 284.4 299.23 284.07 301.01C283.36 304.93 280.06 303.7 277.63 303.9C275.81 304.05 273.6 303.94 273.7 301.29C274.12 290.57 272.05 279.71 275.34 269.14C266.23 267.8 262.73 270.68 262.67 279.76C262.65 283.59 262.72 287.42 262.66 291.25C262.41 306.59 265.16 303.41 249.66 303.93C246.64 304.03 245.46 302.9 245.51 299.88C245.63 292.39 245.54 284.89 245.63 277.4C245.66 275.24 245.85 273.01 247.07 271.14C249.02 268.17 247.18 267.78 244.86 267.7C237.03 267.44 229.21 267.34 221.53 269.23C213.89 271.11 210.58 274.79 209.34 282.49C208.37 288.49 209.34 294.45 209.55 300.43C209.6 301.68 210.18 303.06 208.42 303.81C202.33 306.4 197.21 303.2 197.2 296.71C197.2 266.23 197.05 235.75 197.34 205.27C197.4 199.42 194.44 199.58 190.29 199.25C185.21 198.84 185.56 201.87 185.56 205.13C185.54 232.61 185.46 260.09 185.48 287.57C185.48 295.06 185.57 302.51 181.21 309.65H300.31L300.32 309.66ZM328.24 396.84C323.82 389.95 323.67 382.8 323.63 375.68C323.48 344.69 323.26 313.71 323.43 282.72C323.47 276.12 319.35 278.14 315.89 277.56C311.23 276.79 311.8 279.6 311.8 282.49C311.84 313.98 311.82 345.47 311.82 376.96C311.82 391.27 311.82 391.2 297.44 390.47C294.81 390.34 293.92 389.52 294.05 386.95C294.22 383.63 293.98 380.28 294.14 376.96C294.49 369.92 292.55 362.57 296.86 356.03C297.23 355.46 297.2 354.4 296.48 354.37C293.6 354.27 289.88 352.7 288.01 355C284.1 359.84 281.31 365.41 281.82 372.12C282.14 376.26 281.64 380.46 281.92 384.61C282.23 389.19 279.5 389.74 276.01 389.93C272.45 390.12 269.82 389.58 269.53 385.15C269.13 379.13 270.06 373.18 270.07 367.2C270.07 362.37 272.49 359.43 277 358.07C280.24 357.09 283.5 356.14 286.74 355.18C280.83 353.94 275.12 354.61 269.53 356.01C261.71 357.97 257.89 363.03 257.75 371.2C257.69 374.86 257.81 378.53 257.86 382.19C258 391.2 257.49 391.63 248.52 390.51C247 390.32 245.92 390.07 246.02 388.25C246.65 377.41 244.48 366.43 247.7 355.72C237.04 355.51 234.97 357.49 234.96 367.8C234.96 374.3 234.86 380.8 235 387.29C235.06 389.91 234.2 390.77 231.56 390.69C225.9 390.51 220.23 390.51 214.57 390.69C211.8 390.78 210.72 390 210.79 387.08C210.97 380.09 210.93 373.09 210.84 366.09C210.77 360.94 213.34 357.92 218.17 356.88C221.56 356.15 225.04 355.87 229.27 355.28C223.89 353.76 219.35 354 214.76 355.1C205.55 357.3 196.39 360.04 186.79 359.65C180.88 359.41 177.27 362.36 175.3 367.41C172.24 375.27 172.3 383.35 174.63 391.42C175.76 395.32 178.13 397.8 182.38 397.99C186.86 398.19 191.34 398.33 195.83 398.46C197.41 398.51 198.86 398.45 198.57 400.81C198.11 404.44 198.12 408.15 197.44 411.74C196.21 418.23 192.54 420.89 185.76 420.75C183.92 420.71 182.08 420.75 180.24 420.75C180.8 422.1 181.43 422.57 182.14 422.83C196.82 428.18 210 419.4 210.63 403.29C210.84 397.81 212.41 396.65 217.74 396.7C252.73 396.98 287.71 396.84 322.7 396.84H328.2H328.24ZM251.72 480.42C236.22 480.42 220.73 480.34 205.23 480.48C202.06 480.51 200.79 479.76 200.99 476.34C201.28 471.19 201.07 466.01 201.05 460.85C201.03 453.66 201.02 453.88 193.91 453.75C190.41 453.69 189.83 455.01 189.88 458.12C190.05 468.45 189.88 478.78 189.96 489.11C189.99 492.14 189.67 494.51 185.79 494.2C183.46 494.01 183.42 495.69 183.72 497.19C184.08 498.96 182.38 501.36 185.08 502.45C192.68 505.52 200.59 500.48 200.97 492.11C201.09 489.38 202.04 488.83 204.52 488.84C235.51 488.91 266.5 488.89 297.49 488.89C299.3 488.89 300.88 488.64 301.46 491.37C301.96 493.71 311.82 494.12 312.16 491.9C312.74 488.18 315.04 488.94 317.24 488.91C320.4 488.86 323.59 488.67 326.73 488.95C330.15 489.25 330.91 487.83 330.87 484.66C330.71 471.33 330.77 458 330.79 444.67C330.79 437.55 330.82 437.77 323.66 437.54C320.26 437.43 319.64 438.53 319.69 441.67C319.88 453.33 319.69 465 319.81 476.66C319.84 479.4 319.04 480.5 316.16 480.56C313.21 480.62 312.36 479.38 312.43 476.72C312.52 473.22 312.5 469.72 312.43 466.22C312.25 457.85 308.3 453.92 299.76 453.86C281.27 453.74 262.77 453.79 244.28 453.64C241.33 453.62 239.79 453.96 239.96 457.55C240.11 460.71 240.46 462.23 244.27 462.21C259.09 462.13 273.92 462.44 288.74 462.6C302.22 462.74 302.09 462.73 301.9 476.22C301.85 479.89 300.49 480.55 297.2 480.52C282.04 480.37 266.88 480.45 251.72 480.44V480.42ZM173.84 267.8C164.61 267.83 155.53 266.78 146.56 269.16C139.23 271.1 135.82 275.12 134.62 282.7C133.67 288.71 135.05 294.65 134.84 300.62C134.8 301.76 135.75 303.47 133.48 303.64C131.25 303.8 131.07 302.21 131.16 300.67C131.85 289.74 128.73 278.47 134.28 267.74C124.36 267.86 114.69 266.54 105.28 269.67C98.68 271.86 95.39 275.9 95.05 282.79C94.85 286.94 94.9 291.11 94.96 295.27C95.11 307.1 98.27 310.27 110.25 310.31C130.56 310.37 150.87 310.32 171.18 310.28C172.43 310.28 173.85 310.8 174.93 309.63C169.75 304.1 169.05 280.46 173.84 267.79V267.8ZM246.97 173.89C247.16 174.47 247.17 174.91 247.37 175.04C254.78 179.72 262.57 179.85 270.15 175.96C277.18 172.36 279.95 165.94 279.94 158.18C279.92 145.7 279.89 133.21 280.01 120.73C280.07 114.61 282.82 111.62 288.92 110.89C292.22 110.49 295.56 110.44 298.88 110.23C293.61 108.22 288.22 107.96 282.89 109.47C273.9 112.01 264.89 114.09 255.43 113.84C250.34 113.7 246.63 116.4 244.61 121.2C242.09 127.19 241.57 133.45 242.37 139.81C243.72 150.58 246.26 152.73 257.13 152.79C264.29 152.824 267.537 156.464 266.87 163.71C266.81 164.37 266.71 165.03 266.57 165.68C264.94 172.97 261.09 175.61 253.62 174.89C251.44 174.68 249.39 173.17 246.98 173.88L246.97 173.89ZM159.25 152.6C157.19 150.09 154.1 149.21 154.25 146.11C154.8 134.37 152.11 122.42 156.64 110.57C147.04 109.22 137.66 109.31 128.46 112.01C123.02 113.6 118.96 116.98 118.36 123.03C117.68 129.81 117.6 136.63 118.43 143.42C119.08 148.74 122.43 152.22 127.52 152.46C137.86 152.94 148.23 152.6 159.26 152.6H159.25ZM311.93 218.25C311.93 231.89 311.93 245.53 311.93 259.16C311.93 266.16 311.95 265.97 319.19 266.13C322.32 266.2 323.14 265.31 323.09 262.25C322.91 250.78 323 239.3 322.99 227.82C322.98 210.69 322.76 193.56 323.07 176.43C323.19 169.55 318.32 171.49 314.87 170.91C310.07 170.1 312.05 173.99 312.03 175.83C311.87 189.96 311.94 204.1 311.93 218.24V218.25ZM133.93 472.39H133.87C133.87 477.88 133.75 483.38 133.92 488.86C134.01 491.69 133.26 493.44 130.18 493.29C128.44 493.2 127.64 493.83 127.91 495.55C128.2 497.41 126.84 499.7 128.87 501.1C133.06 503.98 143.81 500.37 143.8 495.46C143.78 487.47 148.48 488.46 153.41 488.65C155.24 488.72 157.09 488.48 158.9 488.68C162.05 489.03 162.9 487.65 162.85 484.69C162.7 476.7 162.85 468.71 162.78 460.72C162.7 451.49 163.96 453.49 155.16 453.11C152.57 453 151.67 453.74 151.75 456.42C151.93 463.07 151.72 469.73 151.84 476.39C151.89 478.88 151.24 480.01 148.52 480C145.93 479.99 144.47 479.5 144.56 476.47C144.72 470.98 144.59 465.49 144.59 460C144.59 453.06 144.59 453.26 137.77 453.07C134.65 452.98 133.75 453.87 133.88 456.92C134.1 462.07 133.94 467.24 133.94 472.4L133.93 472.39ZM259.17 107.58C251.95 105.04 245.37 104.87 238.88 106.01C227.03 108.09 223.2 113.36 223.46 125.18C223.75 137.96 224.31 150.79 221.86 163.46C220.71 169.4 218.57 171.32 212.61 171.98C208.92 172.39 205.21 172.71 200.89 173.13C203.49 175.88 206.06 177.17 209.01 177.85C223.05 181.07 234.55 171.86 234.94 156.72C235.25 144.58 235.08 132.44 235.14 120.3C235.18 112.21 237.15 110.11 244.91 108.64C249.35 107.8 253.85 108.47 259.18 107.59L259.17 107.58ZM348.17 112.44C347.69 111.55 347.53 110.85 347.24 110.79C338.57 109.03 329.85 107.47 321.26 110.9C314.89 113.44 311.14 117.51 311.61 125.28C312.26 136.04 311.79 146.88 311.8 157.68C311.8 164.83 311.83 164.67 318.85 165.74C322.15 166.24 323.1 165.47 323.06 162.03C322.91 148.4 322.97 134.77 323.16 121.15C323.24 115.61 325.39 113.48 330.83 112.69C336.45 111.87 342.12 111.88 348.17 112.44ZM335.82 462.17C335.82 469.31 335.99 476.46 335.74 483.59C335.63 486.89 336.25 488.73 339.94 488.01C342.79 487.46 347.13 490.11 346.95 483.67C346.57 470.4 346.84 457.11 346.83 443.82C346.83 436.62 346.83 436.81 339.83 436.63C336.55 436.55 335.63 437.5 335.74 440.75C335.99 447.88 335.82 455.03 335.81 462.17H335.82ZM178.22 462.73C178.22 455.09 178.15 447.45 178.27 439.81C178.31 437.51 177.75 436.41 175.25 436.67C173.61 436.85 171.92 436.83 170.27 436.67C167.87 436.44 167.13 437.39 167.15 439.77C167.23 454.88 167.23 469.99 167.13 485.1C167.12 487.3 167.84 488.11 169.95 488C171.44 487.92 172.96 487.84 174.43 488.03C177.51 488.42 178.43 487.28 178.31 484.14C178.05 477.01 178.23 469.86 178.22 462.72V462.73ZM222.79 82.1502C211.85 78.5502 205.89 78.2102 198.01 79.9002C187.68 82.1202 182.24 91.4702 185.41 101.51C185.73 102.51 186.07 103.47 187.27 103.52C190.41 103.67 193.92 104.66 196.57 103.58C198.75 102.69 196.94 99.0502 197.27 96.6602C197.49 95.0202 197.31 93.3402 197.44 91.6802C197.99 84.5002 199.69 82.6202 206.88 82.2102C212.17 81.9102 217.49 82.1502 222.79 82.1502ZM237.14 92.7402C237.14 88.9702 234.4 86.4502 230.29 86.4202C226.37 86.4002 223.26 89.1002 223.18 92.6102C223.1 96.0902 226.17 98.8602 230.15 98.9102C234.24 98.9602 237.14 96.4002 237.13 92.7402H237.14ZM110.02 240.39C109.93 236.81 106.94 234.09 103.07 234.08C99.33 234.07 96.2 236.95 96.17 240.45C96.14 244 99.09 246.59 103.14 246.58C107.19 246.56 110.11 243.93 110.03 240.39H110.02ZM276.63 240.39C276.54 236.86 273.49 234.09 269.67 234.07C265.59 234.05 262.67 237 262.88 240.92C263.11 245.28 266.15 246.36 269.71 246.45C273.86 246.56 276.72 243.92 276.63 240.39ZM157.34 240.44C157.32 236.93 154.22 234.02 150.51 234.03C146.67 234.04 143.81 236.74 143.77 240.41C143.73 244.25 146.32 246.66 150.45 246.64C154.5 246.62 157.35 244.06 157.33 240.44H157.34ZM120.04 246.39C124.35 246.45 127.07 244.14 127.01 240.47C126.95 236.84 124.07 234.19 120.13 234.15C116.31 234.11 113.16 236.88 113.08 240.36C112.99 243.98 115.72 246.34 120.04 246.4V246.39ZM241.35 240.38C241.35 236.73 238.4 234.01 234.54 234.09C230.58 234.17 227.73 236.8 227.72 240.42C227.7 243.96 230.59 246.61 234.56 246.72C238.31 246.82 241.37 243.97 241.36 240.39L241.35 240.38ZM224.2 240.56C224.28 236.63 221.71 234.17 217.54 234.17C213.71 234.17 210.54 236.98 210.57 240.51C210.61 244.84 213.57 246.14 217.18 246.4C221.52 246.72 224.11 244.46 224.19 240.56H224.2ZM238.12 342.06C242.55 342.03 245.14 339.83 245.07 336.13C245 332.53 242.03 329.83 238.16 329.84C234.22 329.86 231.23 332.53 231.18 336.08C231.12 339.82 233.75 342.08 238.12 342.05V342.06ZM259.5 240.62C259.56 236.92 256.82 234.28 252.85 234.21C248.78 234.14 245.96 236.56 245.86 240.22C245.76 243.98 248.31 246.44 252.45 246.57C256.42 246.69 259.45 244.14 259.51 240.63L259.5 240.62ZM272.28 342.12C276.26 342.25 279.14 340.8 279.56 336.49C279.9 333.01 276.85 330.04 273.03 329.85C269.2 329.65 266.03 332.25 265.85 335.75C265.64 339.75 267.9 341.98 272.28 342.12ZM143.45 98.9002C147.6 98.8602 150.32 96.4102 150.29 92.7202C150.27 88.9002 147.65 86.5102 143.49 86.5002C139.34 86.5002 136.67 88.8902 136.63 92.6602C136.59 96.3302 139.43 98.9302 143.45 98.8902V98.9002ZM261.78 220.77C257.85 220.68 254.89 223.24 254.79 226.84C254.67 230.79 257.08 233.15 261.35 233.15C265.29 233.15 268.21 231.8 268.37 227.28C268.5 223.49 265.81 220.87 261.78 220.77ZM121.2 342.17C126.16 342.17 128.49 339.99 128.41 335.98C128.34 332.24 125.57 329.77 121.55 329.88C117.57 329.99 114.6 332.67 114.78 336.23C115.01 340.6 117.85 342.1 121.2 342.17ZM133.4 92.7302C133.38 88.9702 130.69 86.5302 126.55 86.5502C122.47 86.5702 119.84 88.3102 119.65 92.6502C119.49 96.2602 122.42 98.8502 126.47 98.8802C130.55 98.9102 133.42 96.3602 133.4 92.7302ZM293.26 503.7C295.44 502.09 298.36 500.52 298.53 498.15C298.69 495.94 295.76 493.42 293.68 493.21C291.12 492.94 288.65 495.89 288.45 498.12C288.26 500.3 291.27 501.85 293.26 503.7ZM157.17 448.57C159.08 447.8 162.26 449.67 162.57 447.37C162.92 444.73 159.79 446.45 158.31 445.88C157.68 445.64 157.04 445.56 157 444.7C156.95 443.64 157.6 443.23 158.5 443.14C159.32 443.06 160.16 443.07 160.99 443.07C161.83 443.07 162.81 443.1 162.94 442.05C163.11 440.6 161.95 440.59 160.94 440.56C159.94 440.53 158.94 440.53 157.95 440.55C155.6 440.59 151.51 444.83 152.14 447.1C152.91 449.88 155.67 447.51 157.18 448.58L157.17 448.57ZM201.21 442.37C199.23 440.46 197.87 437.25 195.34 437.57C193.41 437.81 190.62 440.24 190.78 442.64C190.93 444.91 193.43 447.54 195.57 447.55C198.05 447.55 199.44 444.52 201.2 442.37H201.21Z" fill="#223B21"/>
<path d="M118.89 567.75C118.99 566.28 118.49 564.61 120.94 564.66C123.15 564.7 123.84 565.94 123.8 567.79C123.76 569.69 122.76 570.88 120.75 570.9C118.3 570.92 119.14 568.98 118.89 567.76V567.75Z" fill="#92722F"/>
<path d="M394.57 568.48C394.31 565.74 394.66 564.63 396.81 564.65C399.22 564.67 399.5 566.25 399.48 567.92C399.45 569.48 398.81 570.78 396.85 570.86C394.19 570.97 394.66 569.01 394.57 568.48Z" fill="#92722F"/>
<path d="M163.81 572.99C163.7 574.34 163.77 575.36 163.51 576.29C162.85 578.67 162.31 581.42 159.07 581.34C155.91 581.27 155.29 578.68 154.73 576.19C154.14 573.56 154.29 570.94 154.95 568.36C155.46 566.36 156.27 564.74 158.82 564.63C161.63 564.52 162.6 566.31 163.19 568.44C163.62 570.01 163.65 571.69 163.81 572.98V572.99Z" fill="#92722F"/>
<path d="M352.07 572.34C352.07 571.01 351.96 569.67 352.1 568.36C352.24 567.05 351.26 565.13 353.58 564.77C355.28 564.5 356.82 564.81 357.99 566.36C360.16 569.21 360.19 576.8 357.95 579.65C356.95 580.93 355.67 581.55 354.05 581.26C352.06 580.9 352.07 579.37 352.09 577.82C352.12 576 352.09 574.17 352.09 572.35H352.05L352.07 572.34Z" fill="#92722F"/>
<path d="M277.13 567.32C276.93 565.63 277.37 564.54 279.49 564.66C281.75 564.78 282.24 566.14 282.12 567.98C282.01 569.63 281.28 570.85 279.41 570.86C276.93 570.87 277.08 569.08 277.13 567.32Z" fill="#92722F"/>
<path d="M380.2 567.47C381.38 570.36 383.14 572.34 381.65 574.79C381.26 575.42 379.43 575.48 378.96 574.6C377.73 572.3 379.15 570.31 380.2 567.48V567.47Z" fill="#92722F"/>
<path d="M318.45 567.87C320.32 570.2 320.9 572.34 320.47 574.64C320.42 574.9 318.21 575.3 317.81 574.87C315.65 572.55 317.81 570.55 318.45 567.86V567.87Z" fill="#92722F"/>
<path d="M300.31 309.67H181.21C185.57 302.53 185.48 295.08 185.48 287.59C185.46 260.11 185.54 232.63 185.56 205.15C185.56 201.89 185.21 198.86 190.29 199.27C194.45 199.61 197.4 199.44 197.34 205.29C197.05 235.77 197.19 266.25 197.2 296.73C197.2 303.22 202.33 306.42 208.42 303.83C210.18 303.08 209.59 301.7 209.55 300.45C209.33 294.47 208.37 288.52 209.34 282.51C210.58 274.81 213.89 271.13 221.53 269.25C229.21 267.36 237.04 267.45 244.86 267.72C247.18 267.8 249.02 268.19 247.07 271.16C245.85 273.02 245.66 275.26 245.63 277.42C245.54 284.91 245.63 292.41 245.51 299.9C245.46 302.92 246.64 304.05 249.66 303.95C265.16 303.43 262.41 306.61 262.66 291.27C262.72 287.44 262.65 283.61 262.67 279.78C262.73 270.7 266.23 267.82 275.34 269.16C272.04 279.73 274.12 290.59 273.7 301.31C273.6 303.95 275.81 304.07 277.63 303.92C280.06 303.72 283.36 304.95 284.07 301.03C284.39 299.25 284.38 297.39 284.38 295.57C284.38 259.26 284.79 222.95 284.15 186.65C283.87 170.67 292.21 166.75 305.43 166.14C310.68 165.9 315.99 166.69 321.12 168.52C315.64 169.2 310.07 168.63 304.63 169.89C297.87 171.46 295.93 173.57 295.93 180.45C295.93 216.93 295.91 253.4 296.07 289.88C296.1 296.65 296.54 303.48 300.32 309.68L300.31 309.67ZM239.12 268.59C236.1 269.34 233.09 270.15 230.06 270.83C224.17 272.15 221.4 275.96 221.23 281.82C221.07 287.3 221.08 292.78 220.9 298.26C220.75 302.89 223.68 303.12 227.17 303.13C230.81 303.13 233.38 302.41 233.29 297.98C233.2 293.33 233.41 288.68 233.45 284.03C233.5 278.38 234.63 273.17 239.13 268.59H239.12Z" fill="#F5F8F4"/>
<path d="M328.23 396.85H322.73C287.74 396.85 252.75 396.99 217.77 396.71C212.44 396.67 210.88 397.82 210.66 403.3C210.03 419.41 196.85 428.19 182.17 422.84C181.46 422.58 180.83 422.11 180.27 420.76C182.11 420.76 183.95 420.73 185.79 420.76C192.57 420.9 196.24 418.24 197.47 411.75C198.15 408.17 198.14 404.46 198.6 400.82C198.9 398.46 197.44 398.51 195.86 398.47C191.38 398.34 186.89 398.2 182.41 398C178.16 397.81 175.78 395.33 174.66 391.43C172.33 383.36 172.28 375.28 175.33 367.42C177.3 362.37 180.9 359.42 186.82 359.66C196.42 360.05 205.58 357.3 214.79 355.11C219.39 354.01 223.93 353.77 229.3 355.29C225.07 355.88 221.59 356.16 218.2 356.89C213.37 357.93 210.81 360.95 210.87 366.1C210.96 373.1 211 380.1 210.82 387.09C210.75 390.01 211.84 390.79 214.6 390.7C220.26 390.52 225.93 390.52 231.59 390.7C234.23 390.78 235.09 389.91 235.03 387.3C234.89 380.81 234.99 374.31 234.99 367.81C234.99 357.49 237.07 355.52 247.73 355.73C244.51 366.44 246.68 377.42 246.05 388.26C245.94 390.09 247.03 390.33 248.55 390.52C257.52 391.64 258.03 391.22 257.89 382.2C257.83 378.54 257.71 374.87 257.78 371.21C257.92 363.04 261.74 357.98 269.56 356.02C275.15 354.62 280.86 353.95 286.77 355.19C283.52 356.15 280.27 357.1 277.03 358.08C272.51 359.44 270.1 362.38 270.1 367.21C270.1 373.2 269.16 379.14 269.56 385.16C269.85 389.59 272.48 390.13 276.04 389.94C279.53 389.75 282.26 389.2 281.95 384.62C281.67 380.47 282.17 376.27 281.85 372.13C281.33 365.42 284.12 359.85 288.04 355.01C289.9 352.71 293.63 354.28 296.51 354.38C297.23 354.41 297.27 355.47 296.89 356.04C292.58 362.58 294.52 369.93 294.17 376.97C294.01 380.29 294.25 383.64 294.08 386.96C293.95 389.53 294.84 390.35 297.47 390.48C311.85 391.21 311.85 391.28 311.85 376.97C311.85 345.48 311.86 313.99 311.83 282.5C311.83 279.61 311.26 276.8 315.92 277.57C319.38 278.14 323.49 276.12 323.46 282.73C323.28 313.72 323.51 344.7 323.66 375.69C323.69 382.82 323.84 389.96 328.27 396.85H328.23ZM199.49 363.22C188.46 363.25 184.84 366.56 184.43 376.37C184.3 379.51 184.35 382.66 184.15 385.8C183.92 389.36 185.43 390.89 189.02 391.02C192.76 391.15 194.63 389.8 194.56 385.93C194.51 382.79 194.79 379.64 194.66 376.5C194.47 371.69 195.51 367.36 199.48 363.23L199.49 363.22Z" fill="#F8FAF7"/>
<path d="M251.71 480.44C266.87 480.44 282.03 480.36 297.19 480.51C300.48 480.54 301.84 479.88 301.89 476.21C302.08 462.73 302.21 462.73 288.73 462.59C273.9 462.44 259.08 462.12 244.26 462.2C240.46 462.22 240.11 460.7 239.95 457.54C239.78 453.96 241.32 453.61 244.27 453.63C262.76 453.79 281.26 453.74 299.75 453.85C308.29 453.9 312.24 457.84 312.42 466.21C312.5 469.71 312.52 473.21 312.42 476.71C312.35 479.36 313.2 480.61 316.15 480.55C319.03 480.49 319.82 479.39 319.8 476.65C319.69 464.99 319.87 453.32 319.68 441.66C319.63 438.52 320.25 437.42 323.65 437.53C330.81 437.76 330.78 437.55 330.78 444.66C330.77 457.99 330.71 471.32 330.86 484.65C330.9 487.82 330.15 489.24 326.72 488.94C323.58 488.67 320.39 488.85 317.23 488.9C315.03 488.94 312.73 488.17 312.15 491.89C311.81 494.11 301.95 493.7 301.45 491.36C300.87 488.63 299.29 488.88 297.48 488.88C266.49 488.88 235.5 488.9 204.51 488.83C202.03 488.83 201.08 489.37 200.96 492.1C200.58 500.47 192.68 505.51 185.07 502.44C182.37 501.35 184.06 498.95 183.71 497.18C183.41 495.68 183.45 494 185.78 494.19C189.65 494.5 189.97 492.13 189.95 489.1C189.86 478.77 190.04 468.44 189.87 458.11C189.82 455 190.4 453.68 193.9 453.74C201 453.86 201.01 453.65 201.04 460.84C201.06 466 201.27 471.18 200.98 476.33C200.79 479.75 202.05 480.5 205.22 480.47C220.71 480.33 236.21 480.41 251.71 480.41V480.44Z" fill="#F8FAF7"/>
<path d="M173.83 267.81C169.04 280.48 169.75 304.12 174.92 309.65C173.83 310.81 172.42 310.29 171.17 310.3C150.86 310.35 130.55 310.4 110.24 310.33C98.26 310.29 95.1 307.12 94.95 295.29C94.9 291.13 94.84 286.96 95.04 282.81C95.37 275.92 98.66 271.89 105.27 269.69C114.69 266.56 124.36 267.88 134.27 267.76C128.72 278.5 131.85 289.76 131.15 300.69C131.05 302.22 131.24 303.82 133.47 303.66C135.75 303.5 134.79 301.78 134.83 300.64C135.04 294.67 133.66 288.73 134.61 282.72C135.81 275.14 139.22 271.12 146.55 269.18C155.52 266.8 164.6 267.85 173.83 267.82V267.81ZM124.86 269.07C119.7 269.79 114.67 270.4 110.37 273.3C108.58 274.51 107.22 276.23 107.13 278.6C106.89 285.07 106.64 291.54 106.42 298.01C106.36 299.68 106.3 301.73 107.98 302.42C110.79 303.58 113.9 303.47 116.76 302.47C119.39 301.55 118.89 299.06 118.9 296.92C118.92 293.27 118.98 289.61 118.94 285.96C118.88 279.69 119.61 273.72 124.86 269.06V269.07ZM165.76 268.4C159.55 269.47 155.19 270.96 150.97 272.75C148.56 273.77 147.17 275.89 147.07 278.66C146.84 284.96 146.66 291.27 146.32 297.57C146.14 300.96 147.49 302.96 150.87 303.52C154.27 304.08 156.65 302.77 158.1 299.64C159.42 296.78 158.85 293.76 158.92 290.8C159.09 283.14 157.51 275.08 165.77 268.41L165.76 268.4Z" fill="#F5F8F4"/>
<path d="M375.41 247.57C370.95 246.82 366.45 246.83 361.96 247.19C352.92 247.91 350.62 250.33 350.58 259.34C350.5 277.17 350.42 294.99 350.47 312.82C350.54 334.81 350.81 356.8 350.86 378.79C350.87 384.87 353.07 390.5 354.14 396.53H334.32C339.77 388.39 338.93 379.63 338.93 371.03C338.95 334.88 338.93 298.72 338.91 262.57C338.91 250.9 343.39 246.02 355 244.6C361.9 243.75 368.6 244.67 375.32 245.93C375.34 246.48 375.37 247.03 375.39 247.57H375.41Z" fill="#F5F8F4"/>
<path d="M246.96 173.9C249.37 173.19 251.42 174.7 253.6 174.91C261.07 175.63 264.93 172.99 266.55 165.7C266.69 165.05 266.79 164.39 266.85 163.73C267.517 156.484 264.27 152.844 257.11 152.81C246.24 152.75 243.7 150.6 242.35 139.83C241.55 133.47 242.07 127.21 244.59 121.22C246.61 116.42 250.32 113.73 255.41 113.86C264.88 114.11 273.88 112.04 282.87 109.49C288.2 107.98 293.59 108.23 298.86 110.25C295.54 110.46 292.2 110.51 288.9 110.91C282.8 111.65 280.05 114.63 279.99 120.75C279.88 133.23 279.91 145.72 279.92 158.2C279.92 165.95 277.16 172.38 270.13 175.98C262.54 179.86 254.76 179.74 247.35 175.06C247.14 174.93 247.14 174.49 246.95 173.91L246.96 173.9ZM267.58 116.8C264.46 117.82 261.29 118.73 258.22 119.88C255.92 120.74 254.22 122.42 254.06 125C253.72 130.32 253.54 135.65 253.34 140.97C253.23 143.88 254.83 145.16 257.61 145.36C262.25 145.69 263.48 144.29 263.81 138.73C264.24 131.44 261.82 123.55 267.59 116.8H267.58Z" fill="#F5F8F4"/>
<path d="M172.84 353.47C167.92 354.15 162.93 353.18 158 354.52C153.03 355.88 151.07 358.63 151.16 363.85C151.39 376.17 151.25 388.5 151.04 400.82C150.8 415.16 141.02 424.92 127.21 424.84C111.62 424.76 101.98 415.44 101.81 400.32C101.76 395.66 101.71 391 101.5 386.34C101.32 382.39 99.52 379.81 95.21 379.42C89.29 378.88 83.39 378.18 77.51 377.26C86.96 374.62 96.35 373.67 105.51 378.36C110.68 381.01 113.45 385.03 113.3 391.16C113.18 396.13 113.59 401.15 114.24 406.09C115.28 413.87 120.1 418.02 127.19 417.78C133.96 417.55 138.6 413.16 138.95 405.43C139.49 393.63 139.52 381.81 139.59 369.99C139.67 357.77 144.95 352.07 157.31 350.71C162.65 350.12 167.73 351.62 172.95 351.89C172.91 352.41 172.86 352.94 172.82 353.46L172.84 353.47Z" fill="#F5F8F4"/>
<path d="M375.12 419.54C375.45 419.53 375.79 419.48 376.12 419.51C389.59 420.69 395.94 413.47 393.39 400.06C392.98 397.91 391.74 397.88 390.22 397.87C386.89 397.84 383.56 397.87 380.23 397.84C373.68 397.76 371.17 396.05 369.48 389.74C367.55 382.53 367.54 375.25 369.98 368.11C372.12 361.84 375.93 358.67 382.58 358.79C391.37 358.95 399.75 357.58 407.99 354.6C412.9 352.83 418.03 353.59 423.16 355.09C420.98 355.29 418.8 355.51 416.61 355.7C408.59 356.41 405.98 359.1 405.95 367.05C405.89 379.2 406.04 391.36 405.93 403.51C405.86 410.98 403.2 417.26 396.23 420.86C388.94 424.63 381.59 424.75 374.44 420.3C374.67 420.04 374.89 419.79 375.12 419.53V419.54ZM394.2 362.73C385.75 362.91 380.79 365.79 380.16 371.12C379.56 376.2 379.64 381.37 379.39 386.5C379.28 388.73 380.4 389.79 382.48 390.25C387.39 391.34 389.28 389.69 389.69 384.57C390.27 377.32 387.87 369.49 394.2 362.73Z" fill="#F5F8F4"/>
<path d="M183.93 109.19C177.7 111.18 176.35 112.9 176.31 119.62C176.25 130.94 175.85 142.29 176.42 153.58C177.48 174.44 156.65 187.19 137.63 179.21C130.88 176.38 125.18 171.95 119.84 166.98C113.99 161.54 108.24 155.97 101.76 151.13C104.44 150.29 106.16 151.65 107.94 152.88C116.07 158.47 124.22 164.01 132.81 168.88C138.8 172.27 145.22 173.54 152.01 172.99C159.14 172.42 162.63 168.99 164 161.94C165.09 156.32 164.82 150.66 164.88 145.01C164.95 138.18 165.26 131.33 164.8 124.53C163.94 111.61 170.97 107.28 182.43 105.8C188.51 105.02 194.64 105.58 201.3 107.44C199.31 107.69 198 107.85 196.7 108.02C192.38 107.8 188.16 108.65 183.91 109.19H183.93Z" fill="#F8FAF7"/>
<path d="M159.24 152.61C148.21 152.61 137.84 152.94 127.5 152.47C122.41 152.24 119.06 148.75 118.41 143.43C117.58 136.65 117.66 129.82 118.34 123.04C118.95 116.99 123.01 113.61 128.44 112.02C137.64 109.32 147.03 109.23 156.62 110.58C152.1 122.42 154.79 134.37 154.23 146.12C154.08 149.22 157.17 150.11 159.23 152.61H159.24ZM147.13 112.15C137.84 111.64 129.06 114.78 129.99 127.03C130.29 131 129.98 135.02 129.8 139.01C129.64 142.66 129.94 145.77 134.69 145.98C138.67 146.15 141.56 143.8 141.97 139.42C142.28 136.11 142.13 132.76 142.14 129.43C142.15 123.27 142.24 117.13 147.14 112.15H147.13Z" fill="#F5F8F4"/>
<path d="M311.93 218.26C311.93 204.12 311.86 189.99 312.02 175.85C312.04 174.01 310.07 170.12 314.86 170.93C318.31 171.51 323.18 169.58 323.06 176.45C322.75 193.57 322.97 210.71 322.98 227.84C322.98 239.32 322.9 250.79 323.08 262.27C323.13 265.33 322.31 266.22 319.18 266.15C311.94 265.99 311.93 266.18 311.92 259.18C311.92 245.54 311.92 231.9 311.92 218.27L311.93 218.26Z" fill="#F8FAF7"/>
<path d="M133.93 472.4C133.93 467.24 134.09 462.07 133.87 456.92C133.74 453.87 134.64 452.98 137.76 453.07C144.58 453.26 144.58 453.06 144.58 460C144.58 465.49 144.71 470.99 144.55 476.47C144.46 479.5 145.92 479.99 148.51 480C151.23 480.02 151.88 478.88 151.83 476.39C151.71 469.74 151.92 463.07 151.74 456.42C151.67 453.73 152.57 452.99 155.15 453.11C163.95 453.49 162.69 451.49 162.77 460.72C162.84 468.71 162.69 476.7 162.84 484.69C162.9 487.65 162.04 489.04 158.89 488.68C157.08 488.48 155.23 488.72 153.4 488.65C148.47 488.46 143.77 487.47 143.79 495.46C143.8 500.38 133.05 503.98 128.86 501.1C126.83 499.7 128.19 497.42 127.9 495.55C127.63 493.83 128.44 493.2 130.17 493.29C133.25 493.44 134 491.69 133.91 488.86C133.74 483.37 133.86 477.88 133.86 472.39H133.92L133.93 472.4Z" fill="#F6F5EF"/>
<path d="M259.17 107.58C253.84 108.46 249.35 107.78 244.9 108.63C237.15 110.1 235.17 112.2 235.13 120.29C235.07 132.43 235.24 144.58 234.93 156.71C234.54 171.85 223.04 181.06 209 177.84C206.06 177.16 203.48 175.87 200.88 173.12C205.21 172.7 208.91 172.38 212.6 171.97C218.56 171.31 220.7 169.39 221.85 163.45C224.3 150.78 223.73 137.95 223.45 125.17C223.19 113.35 227.02 108.08 238.87 106C245.35 104.86 251.94 105.03 259.16 107.57L259.17 107.58Z" fill="#F5F8F4"/>
<path d="M196.99 110.21C197 134.68 196.89 159.15 197.12 183.62C197.17 188.56 194.11 187.49 191.6 187.34C189.26 187.19 185.62 189.15 185.65 183.99C185.78 159.86 185.73 135.72 185.75 111.59C185.75 111.27 185.93 110.95 186.02 110.63C189.67 110.49 193.33 110.35 196.99 110.21Z" fill="#F8FAF7"/>
<path d="M348.17 112.44C342.12 111.88 336.46 111.88 330.83 112.69C325.39 113.48 323.24 115.61 323.16 121.15C322.97 134.78 322.9 148.41 323.06 162.03C323.1 165.47 322.15 166.24 318.85 165.74C311.83 164.67 311.81 164.83 311.8 157.68C311.79 146.88 312.26 136.05 311.61 125.28C311.14 117.5 314.9 113.44 321.26 110.9C329.85 107.47 338.58 109.03 347.24 110.79C347.53 110.85 347.68 111.55 348.17 112.44Z" fill="#F8FAF7"/>
<path d="M335.83 462.18C335.83 455.04 336 447.89 335.76 440.76C335.65 437.51 336.57 436.56 339.85 436.64C346.84 436.82 346.85 436.62 346.85 443.83C346.85 457.11 346.59 470.4 346.97 483.68C347.15 490.12 342.81 487.47 339.96 488.02C336.27 488.74 335.64 486.9 335.76 483.6C336.01 476.47 335.84 469.32 335.84 462.18H335.83Z" fill="#F8FAF7"/>
<path d="M178.23 462.73C178.23 469.87 178.06 477.02 178.32 484.15C178.43 487.29 177.52 488.43 174.44 488.04C172.97 487.86 171.45 487.93 169.96 488.01C167.85 488.12 167.13 487.32 167.14 485.11C167.24 470 167.24 454.89 167.16 439.78C167.15 437.4 167.89 436.45 170.28 436.68C171.93 436.84 173.61 436.85 175.26 436.68C177.76 436.41 178.32 437.51 178.28 439.82C178.16 447.46 178.23 455.1 178.24 462.74L178.23 462.73Z" fill="#F5F8F4"/>
<path d="M222.79 82.1499C217.48 82.1499 212.17 81.9099 206.88 82.2099C199.68 82.6199 197.99 84.4999 197.44 91.6799C197.31 93.3299 197.49 95.0199 197.27 96.6599C196.94 99.0599 198.75 102.69 196.57 103.58C193.92 104.66 190.41 103.68 187.27 103.52C186.07 103.46 185.73 102.51 185.41 101.51C182.24 91.4699 187.68 82.1199 198.01 79.8999C205.89 78.2099 211.86 78.5499 222.79 82.1499Z" fill="#F6F5EF"/>
<path d="M237.14 92.74C237.14 96.4 234.24 98.96 230.16 98.91C226.17 98.86 223.1 96.09 223.19 92.61C223.27 89.1 226.38 86.4 230.3 86.42C234.41 86.44 237.14 88.97 237.15 92.74H237.14Z" fill="#F6F5EF"/>
<path d="M110.02 240.39C110.1 243.93 107.18 246.56 103.13 246.58C99.08 246.6 96.13 244 96.16 240.45C96.19 236.95 99.32 234.06 103.06 234.08C106.93 234.1 109.93 236.81 110.01 240.39H110.02Z" fill="#F6F5EF"/>
<path d="M276.63 240.39C276.71 243.91 273.86 246.56 269.71 246.45C266.15 246.35 263.12 245.28 262.88 240.92C262.67 237 265.59 234.05 269.67 234.07C273.49 234.09 276.55 236.86 276.63 240.39Z" fill="#F6F5EF"/>
<path d="M157.34 240.45C157.36 244.07 154.51 246.63 150.46 246.65C146.32 246.67 143.74 244.26 143.78 240.42C143.82 236.76 146.67 234.06 150.52 234.04C154.23 234.03 157.33 236.94 157.35 240.45H157.34Z" fill="#F6F5EF"/>
<path d="M120.03 246.39C115.71 246.33 112.98 243.97 113.07 240.35C113.15 236.87 116.3 234.1 120.12 234.14C124.06 234.19 126.94 236.83 127 240.46C127.06 244.13 124.34 246.44 120.03 246.38V246.39Z" fill="#F6F5EF"/>
<path d="M241.34 240.38C241.34 243.96 238.3 246.81 234.54 246.71C230.57 246.61 227.69 243.95 227.7 240.41C227.72 236.79 230.56 234.16 234.52 234.08C238.38 234 241.32 236.72 241.33 240.37L241.34 240.38Z" fill="#F6F5EF"/>
<path d="M224.19 240.56C224.11 244.46 221.52 246.72 217.18 246.4C213.57 246.13 210.6 244.83 210.57 240.51C210.54 236.99 213.71 234.17 217.54 234.17C221.71 234.17 224.28 236.64 224.2 240.56H224.19Z" fill="#F6F5EF"/>
<path d="M238.12 342.06C233.75 342.09 231.13 339.83 231.18 336.09C231.23 332.54 234.22 329.87 238.16 329.85C242.03 329.83 245.01 332.54 245.07 336.14C245.14 339.83 242.55 342.04 238.12 342.07V342.06Z" fill="#F6F5EF"/>
<path d="M259.5 240.62C259.45 244.13 256.41 246.68 252.44 246.56C248.31 246.43 245.75 243.97 245.85 240.21C245.95 236.56 248.77 234.13 252.84 234.2C256.81 234.27 259.55 236.91 259.49 240.61L259.5 240.62Z" fill="#F6F5EF"/>
<path d="M272.29 342.11C267.91 341.97 265.65 339.74 265.86 335.74C266.04 332.24 269.2 329.64 273.04 329.84C276.86 330.04 279.92 333 279.57 336.48C279.14 340.79 276.27 342.24 272.29 342.11Z" fill="#F6F5EF"/>
<path d="M143.45 98.8998C139.44 98.9398 136.59 96.3398 136.63 92.6698C136.67 88.8998 139.34 86.4998 143.49 86.5098C147.65 86.5098 150.27 88.9098 150.29 92.7298C150.31 96.4198 147.6 98.8698 143.45 98.9098V98.8998Z" fill="#F6F5EF"/>
<path d="M261.78 220.77C265.81 220.87 268.5 223.49 268.37 227.28C268.21 231.8 265.29 233.15 261.35 233.15C257.08 233.15 254.67 230.79 254.79 226.84C254.9 223.25 257.85 220.68 261.78 220.77Z" fill="#F6F5EF"/>
<path d="M121.2 342.17C117.85 342.1 115.01 340.6 114.78 336.23C114.6 332.67 117.57 329.98 121.55 329.88C125.57 329.77 128.34 332.24 128.41 335.98C128.48 340 126.16 342.18 121.2 342.17Z" fill="#F6F5EF"/>
<path d="M133.4 92.7397C133.42 96.3697 130.55 98.9197 126.47 98.8897C122.41 98.8597 119.49 96.2697 119.65 92.6597C119.84 88.3297 122.47 86.5797 126.55 86.5597C130.69 86.5397 133.38 88.9697 133.4 92.7397Z" fill="#F6F5EF"/>
<path d="M293.26 503.71C291.27 501.86 288.26 500.31 288.45 498.13C288.65 495.9 291.12 492.95 293.68 493.22C295.76 493.44 298.69 495.96 298.53 498.16C298.36 500.53 295.43 502.1 293.26 503.71Z" fill="#F6F5EF"/>
<path d="M157.17 448.58C155.67 447.51 152.9 449.88 152.13 447.1C151.5 444.82 155.6 440.59 157.94 440.55C158.94 440.53 159.94 440.54 160.93 440.56C161.94 440.59 163.1 440.6 162.93 442.05C162.8 443.1 161.82 443.07 160.98 443.07C160.15 443.07 159.31 443.05 158.49 443.14C157.59 443.23 156.94 443.64 156.99 444.7C157.03 445.56 157.67 445.64 158.3 445.88C159.78 446.45 162.91 444.73 162.56 447.37C162.25 449.68 159.07 447.8 157.16 448.57L157.17 448.58Z" fill="#F6F5EF"/>
<path d="M201.21 442.39C199.45 444.54 198.06 447.58 195.58 447.57C193.43 447.57 190.94 444.94 190.79 442.66C190.63 440.26 193.42 437.84 195.35 437.59C197.88 437.27 199.24 440.48 201.22 442.39H201.21Z" fill="#F6F5EF"/>
<path d="M196.99 110.21C193.33 110.35 189.68 110.49 186.02 110.63C185.32 110.15 184.62 109.67 183.92 109.19C188.17 108.65 192.4 107.8 196.71 108.02C196.8 108.75 196.89 109.48 196.98 110.22L196.99 110.21Z" fill="#92722F"/>
<path d="M375.41 247.57C375.38 247.02 375.36 246.47 375.34 245.93C377.13 245.62 378.69 246.01 380.09 247.39C378.46 248.29 376.94 248.05 375.41 247.57Z" fill="#92722F"/>
<path d="M172.84 353.47C172.88 352.95 172.93 352.42 172.97 351.9C174.65 351.33 175.66 352.92 177.67 352.89C175.71 354.04 174.27 353.63 172.83 353.47H172.84Z" fill="#F6F5EF"/>
<path d="M374.44 420.31C373.71 420.13 372.61 419.6 372.96 419.11C373.46 418.39 374.57 418.49 375.12 419.54C374.89 419.8 374.67 420.05 374.44 420.31Z" fill="#F5F8F4"/>
<path d="M239.12 268.59C234.62 273.17 233.5 278.37 233.44 284.03C233.4 288.68 233.18 293.33 233.28 297.98C233.37 302.41 230.8 303.14 227.16 303.13C223.68 303.13 220.74 302.89 220.89 298.26C221.07 292.78 221.06 287.3 221.22 281.82C221.39 275.97 224.16 272.15 230.05 270.83C233.09 270.15 236.09 269.34 239.11 268.59H239.12Z" fill="#223B21"/>
<path d="M199.49 363.22C195.53 367.35 194.48 371.68 194.67 376.49C194.8 379.63 194.51 382.78 194.57 385.92C194.64 389.79 192.77 391.14 189.03 391.01C185.44 390.88 183.93 389.35 184.16 385.79C184.36 382.66 184.31 379.51 184.44 376.36C184.85 366.55 188.47 363.24 199.5 363.21L199.49 363.22Z" fill="#223B21"/>
<path d="M124.86 269.07C119.61 273.73 118.88 279.7 118.94 285.97C118.98 289.62 118.92 293.28 118.9 296.93C118.9 299.06 119.39 301.56 116.76 302.48C113.9 303.48 110.79 303.59 107.98 302.43C106.31 301.74 106.37 299.69 106.42 298.02C106.64 291.55 106.89 285.08 107.13 278.61C107.22 276.24 108.58 274.51 110.37 273.31C114.67 270.4 119.7 269.79 124.86 269.08V269.07Z" fill="#223B21"/>
<path d="M165.76 268.4C157.49 275.07 159.08 283.13 158.91 290.79C158.84 293.75 159.41 296.77 158.09 299.63C156.65 302.76 154.27 304.07 150.86 303.51C147.48 302.95 146.13 300.95 146.31 297.56C146.65 291.26 146.83 284.96 147.06 278.65C147.16 275.88 148.55 273.76 150.96 272.74C155.18 270.95 159.54 269.46 165.75 268.39L165.76 268.4Z" fill="#223B21"/>
<path d="M267.59 116.8C261.82 123.56 264.24 131.44 263.81 138.73C263.48 144.29 262.25 145.7 257.61 145.36C254.84 145.16 253.23 143.89 253.34 140.97C253.54 135.64 253.73 130.31 254.06 125C254.22 122.42 255.92 120.74 258.22 119.88C261.29 118.73 264.46 117.81 267.58 116.8H267.59Z" fill="#223B21"/>
<path d="M394.2 362.72C387.87 369.48 390.27 377.31 389.69 384.56C389.28 389.68 387.39 391.33 382.48 390.24C380.4 389.78 379.28 388.72 379.39 386.49C379.64 381.36 379.56 376.2 380.16 371.11C380.79 365.78 385.75 362.89 394.2 362.72Z" fill="#223B21"/>
<path d="M147.13 112.15C142.23 117.13 142.14 123.27 142.13 129.43C142.13 132.76 142.27 136.11 141.96 139.42C141.56 143.8 138.66 146.15 134.68 145.98C129.93 145.77 129.63 142.66 129.79 139.01C129.97 135.02 130.28 131 129.98 127.03C129.06 114.78 137.83 111.65 147.12 112.15H147.13Z" fill="#223B21"/>
</g>
<defs>
<clipPath id="clip0_13_402">
<rect width="461.96" height="618.25" fill="white"/>
</clipPath>
</defs>
</svg>
