<svg width="187" height="47" viewBox="0 0 187 47" fill="none" xmlns="http://www.w3.org/2000/svg">
<path d="M184.942 32.6494V42.2868H184.369L177.801 33.9058V42.2868H177.102V32.6494H177.69L184.242 41.0305V32.6494H184.942Z" fill="#505050"/>
<path d="M5.52011 46.2468H0.717285V0H46.9641V46.2468H33.8598C32.0468 42.1755 30.2179 38.1043 28.4049 34.0171L31.9832 30.5661C33.6053 34.1921 35.2116 37.8021 36.8337 41.4281H42.1613V4.80279H5.53598V46.2309M13.8057 46.2309H8.68485C13.7421 34.9077 18.7834 23.5846 23.8407 12.2773C25.9558 17.0324 28.0869 21.7875 30.202 26.5426L26.3534 29.3893C25.5106 27.5127 24.6836 25.6361 23.8407 23.7754C21.821 28.3079 19.8013 32.8403 17.7815 37.3727L40.5232 20.563L13.8216 46.2468L13.8057 46.2309Z" fill="#505050"/>
<path d="M62.6925 41.7302C61.9291 41.3008 61.3407 40.7283 60.8954 39.9809C60.4661 39.2334 60.2434 38.4064 60.2434 37.4681C60.2434 36.5299 60.4661 35.7029 60.8954 34.9554C61.3248 34.208 61.9291 33.6355 62.6925 33.2061C63.4558 32.7767 64.2987 32.5699 65.2529 32.5699C65.9527 32.5699 66.5888 32.6813 67.1772 32.9039C67.7656 33.1265 68.2586 33.4605 68.6721 33.9058L68.2268 34.367C67.4476 33.6036 66.4616 33.222 65.2689 33.222C64.4578 33.222 63.7262 33.4128 63.0583 33.7786C62.3903 34.1444 61.8814 34.6533 61.4997 35.3053C61.1181 35.9573 60.9272 36.673 60.9272 37.4681C60.9272 38.2633 61.1181 38.9949 61.4997 39.631C61.8814 40.2671 62.3903 40.7919 63.0583 41.1577C63.7262 41.5235 64.4578 41.7143 65.2689 41.7143C66.4616 41.7143 67.4476 41.3326 68.2268 40.5534L68.6721 41.0146C68.2586 41.4599 67.7497 41.7938 67.1613 42.0165C66.5729 42.2391 65.9209 42.3664 65.237 42.3664C64.2987 42.3664 63.44 42.1596 62.6766 41.7302H62.6925Z" fill="#505050"/>
<path d="M73.7291 41.7143C72.9657 41.2849 72.3614 40.6965 71.932 39.965C71.5026 39.2175 71.28 38.3905 71.28 37.4682C71.28 36.5458 71.5026 35.7188 71.932 34.9713C72.3614 34.2239 72.9657 33.6355 73.7291 33.222C74.4925 32.7926 75.3513 32.5858 76.2896 32.5858C77.2278 32.5858 78.0866 32.7926 78.85 33.222C79.6133 33.6514 80.2177 34.2239 80.647 34.9713C81.0764 35.7188 81.2991 36.5458 81.2991 37.4841C81.2991 38.4224 81.0764 39.2493 80.647 39.9968C80.2177 40.7442 79.6133 41.3168 78.85 41.7461C78.0866 42.1755 77.2278 42.3823 76.2896 42.3823C75.3513 42.3823 74.4925 42.1755 73.7291 41.7461V41.7143ZM78.4842 41.1577C79.1363 40.7919 79.6452 40.283 80.0268 39.631C80.4085 38.979 80.5993 38.2633 80.5993 37.4682C80.5993 36.673 80.4085 35.9414 80.0268 35.3053C79.6452 34.6533 79.1363 34.1444 78.4842 33.7786C77.8322 33.4128 77.1006 33.222 76.2896 33.222C75.4785 33.222 74.7469 33.4128 74.0949 33.7786C73.4429 34.1444 72.918 34.6533 72.5523 35.3053C72.1706 35.9573 71.9798 36.673 71.9798 37.4682C71.9798 38.2633 72.1706 38.9949 72.5523 39.631C72.934 40.283 73.4429 40.7919 74.0949 41.1577C74.7469 41.5235 75.4785 41.7143 76.2896 41.7143C77.1006 41.7143 77.8322 41.5235 78.4842 41.1577Z" fill="#505050"/>
<path d="M92.9724 32.6494V42.2868H92.3999L85.8318 33.9058V42.2868H85.1321V32.6494H85.7205L92.2726 41.0305V32.6494H92.9724Z" fill="#505050"/>
<path d="M98.2361 41.9847C97.6 41.7461 97.107 41.4281 96.7412 41.0464L97.0593 40.5216C97.3933 40.8874 97.8544 41.1736 98.427 41.3963C98.9995 41.6189 99.6038 41.7302 100.24 41.7302C101.162 41.7302 101.846 41.5553 102.323 41.2054C102.784 40.8555 103.023 40.3943 103.023 39.8377C103.023 39.4083 102.896 39.0585 102.657 38.804C102.403 38.5496 102.101 38.3428 101.735 38.2156C101.369 38.0725 100.876 37.9293 100.24 37.7862C99.5402 37.6113 98.9677 37.4363 98.5383 37.2773C98.1089 37.1183 97.7431 36.8638 97.4569 36.5139C97.1547 36.1641 97.0116 35.7029 97.0116 35.1304C97.0116 34.6692 97.1388 34.2398 97.3773 33.8422C97.6318 33.4446 97.9976 33.1425 98.5065 32.9198C99.0154 32.6972 99.6515 32.5699 100.415 32.5699C100.94 32.5699 101.465 32.6494 101.989 32.8085C102.498 32.9675 102.944 33.1743 103.325 33.4446L103.071 34.0171C102.689 33.7468 102.26 33.5559 101.798 33.4128C101.337 33.2697 100.876 33.2061 100.431 33.2061C99.5402 33.2061 98.8723 33.381 98.4111 33.7468C97.9499 34.1125 97.7272 34.5737 97.7272 35.1304C97.7272 35.5598 97.8545 35.9096 98.093 36.1641C98.3475 36.4185 98.6496 36.6253 99.0154 36.7525C99.3812 36.8956 99.8901 37.0388 100.51 37.1978C101.21 37.3727 101.783 37.5477 102.212 37.7067C102.641 37.8657 102.991 38.1202 103.293 38.4541C103.596 38.7881 103.739 39.2493 103.739 39.8059C103.739 40.2671 103.611 40.6965 103.357 41.0941C103.103 41.4758 102.721 41.7938 102.196 42.0165C101.671 42.2391 101.035 42.3664 100.272 42.3664C99.572 42.3664 98.8882 42.2391 98.252 42.0006L98.2361 41.9847Z" fill="#505050"/>
<path d="M109.178 33.2856H105.711V32.6494H113.36V33.2856H109.893V42.2868H109.194V33.2856H109.178Z" fill="#505050"/>
<path d="M123.157 42.2869L120.851 39.0585C120.517 39.1062 120.199 39.1221 119.912 39.1221H117.161V42.271H116.461V32.6336H119.912C121.121 32.6336 122.075 32.9198 122.759 33.4923C123.443 34.0649 123.793 34.86 123.793 35.8778C123.793 36.6412 123.602 37.2773 123.204 37.8021C122.807 38.3269 122.25 38.6927 121.535 38.8995L123.952 42.271H123.157V42.2869ZM119.912 38.5178C120.946 38.5178 121.725 38.2951 122.266 37.8339C122.807 37.3727 123.077 36.7366 123.077 35.8937C123.077 35.0509 122.807 34.4147 122.266 33.9535C121.725 33.4923 120.946 33.2697 119.912 33.2697H117.161V38.5019H119.912V38.5178Z" fill="#505050"/>
<path d="M128.691 41.3008C128.023 40.6011 127.673 39.5674 127.673 38.1997V32.6494H128.373V38.1679C128.373 39.3447 128.643 40.2353 129.184 40.8237C129.725 41.4122 130.504 41.6984 131.538 41.6984C132.572 41.6984 133.335 41.4122 133.876 40.8237C134.416 40.2353 134.687 39.3447 134.687 38.1679V32.6494H135.386V38.1997C135.386 39.5515 135.052 40.5852 134.369 41.3008C133.685 42.0006 132.746 42.3664 131.522 42.3664C130.297 42.3664 129.359 42.0165 128.675 41.3008H128.691Z" fill="#505050"/>
<path d="M141.589 41.7302C140.825 41.3008 140.237 40.7283 139.792 39.9809C139.362 39.2334 139.14 38.4064 139.14 37.4681C139.14 36.5299 139.362 35.7029 139.792 34.9554C140.221 34.208 140.825 33.6355 141.589 33.2061C142.352 32.7767 143.195 32.5699 144.149 32.5699C144.849 32.5699 145.485 32.6813 146.074 32.9039C146.662 33.1265 147.155 33.4605 147.568 33.9058L147.123 34.367C146.344 33.6036 145.358 33.222 144.165 33.222C143.354 33.222 142.623 33.4128 141.955 33.7786C141.287 34.1444 140.778 34.6533 140.396 35.3053C140.014 35.9573 139.823 36.673 139.823 37.4681C139.823 38.2633 140.014 38.9949 140.396 39.631C140.778 40.283 141.287 40.7919 141.955 41.1577C142.623 41.5235 143.354 41.7143 144.165 41.7143C145.358 41.7143 146.344 41.3326 147.123 40.5534L147.568 41.0146C147.155 41.4599 146.646 41.7938 146.058 42.0165C145.469 42.2391 144.817 42.3664 144.133 42.3664C143.195 42.3664 142.336 42.1596 141.573 41.7302H141.589Z" fill="#505050"/>
<path d="M153.023 33.2856H149.556V32.6494H157.206V33.2856H153.739V42.2868H153.039V33.2856H153.023Z" fill="#505050"/>
<path d="M160.307 32.6494H161.006V42.2868H160.307V32.6494Z" fill="#505050"/>
<path d="M167.272 41.7143C166.509 41.2849 165.905 40.6965 165.475 39.965C165.046 39.2175 164.823 38.3905 164.823 37.4682C164.823 36.5458 165.046 35.7188 165.475 34.9713C165.905 34.2239 166.509 33.6355 167.272 33.222C168.036 32.7926 168.895 32.5858 169.833 32.5858C170.771 32.5858 171.63 32.7926 172.393 33.222C173.157 33.6514 173.761 34.2239 174.19 34.9713C174.62 35.7188 174.842 36.5458 174.842 37.4841C174.842 38.4224 174.62 39.2493 174.19 39.9968C173.761 40.7442 173.157 41.3168 172.393 41.7461C171.63 42.1755 170.771 42.3823 169.833 42.3823C168.895 42.3823 168.036 42.1755 167.272 41.7461V41.7143ZM172.027 41.1577C172.679 40.7919 173.188 40.283 173.57 39.631C173.952 38.979 174.143 38.2633 174.143 37.4682C174.143 36.673 173.952 35.9414 173.57 35.3053C173.188 34.6692 172.679 34.1444 172.027 33.7786C171.375 33.4128 170.644 33.222 169.833 33.222C169.022 33.222 168.29 33.4128 167.638 33.7786C166.986 34.1444 166.461 34.6533 166.096 35.3053C165.73 35.9573 165.523 36.673 165.523 37.4682C165.523 38.2633 165.714 38.9949 166.096 39.631C166.477 40.2671 166.986 40.7919 167.638 41.1577C168.29 41.5235 169.022 41.7143 169.833 41.7143C170.644 41.7143 171.375 41.5235 172.027 41.1577Z" fill="#505050"/>
<path d="M78.2935 22.8848H67.0658L64.9188 28.0693H59.1777L69.9602 3.88041H75.4945L86.3087 28.0693H80.4404L78.2935 22.8848ZM76.5282 18.6387L72.6955 9.38294L68.8628 18.6387H76.5282Z" fill="#505050"/>
<path d="M88.8374 3.88041H94.4354V23.5051H106.57V28.0693H88.8374V3.88041Z" fill="#505050"/>
<path d="M125.749 4.96183C127.324 5.67748 128.548 6.69529 129.391 7.99936C130.25 9.31933 130.663 10.8619 130.663 12.659C130.663 14.4561 130.234 15.9828 129.391 17.3028C128.532 18.6228 127.324 19.6406 125.749 20.3403C124.175 21.0401 122.314 21.3899 120.167 21.3899H115.301V28.0534H109.703V3.88041H120.167C122.314 3.88041 124.175 4.23028 125.749 4.94593V4.96183ZM123.698 15.7602C124.572 15.0286 125.018 14.0108 125.018 12.6749C125.018 11.339 124.572 10.2735 123.698 9.54198C122.823 8.81042 121.551 8.46055 119.865 8.46055H115.301V16.8575H119.865C121.551 16.8575 122.823 16.4917 123.698 15.7761V15.7602Z" fill="#505050"/>
<path d="M156.84 3.88041V28.0693H151.242V18.1457H140.253V28.0693H134.655V3.88041H140.253V13.4224H151.242V3.88041H156.84Z" fill="#505050"/>
<path d="M178.5 22.8848H167.272L165.125 28.0693H159.384L170.167 3.88041H175.701L186.515 28.0693H180.647L178.5 22.8848ZM176.735 18.6387L172.902 9.38294L169.069 18.6387H176.735Z" fill="#505050"/>
</svg>
