<svg width="180" height="45" viewBox="0 0 180 45" fill="none" xmlns="http://www.w3.org/2000/svg">
<path d="M29.2302 14.9332V0.318085H43.8453L29.2302 14.9332Z" fill="#505050"/>
<path d="M29.2302 29.5483V14.9332H43.8453L29.2302 29.5483Z" fill="#505050"/>
<path d="M29.2302 44.1634V29.5483H43.8453L29.2302 44.1634Z" fill="#505050"/>
<path d="M14.615 14.9332V0.318085H29.2301L14.615 14.9332Z" fill="#505050"/>
<path d="M0 14.9332V0.318085H14.6151L0 14.9332Z" fill="#505050"/>
<path d="M14.615 44.1634V29.5483H29.2301L14.615 44.1634Z" fill="#505050"/>
<path d="M0 29.5483V14.9332H14.6151L0 29.5483Z" fill="#505050"/>
<path d="M0 44.1634V29.5483H14.6151L0 44.1634Z" fill="#505050"/>
<path d="M14.615 29.5642V14.9491H29.2301L14.615 29.5642Z" fill="#505050"/>
<path d="M57.9516 28.2124V4.86641H49.7932V0H72.026V4.86641H63.8517V28.2124H57.9516Z" fill="#505050"/>
<path d="M73.7754 7.25191H79.2938V11.021H79.4052C80.1526 8.36514 81.9338 6.91794 84.3829 6.91794C85.0508 6.91794 85.6074 7.01336 86.005 7.14058V12.166C85.5438 11.9752 84.7487 11.8321 83.9376 11.8321C81.1227 11.8321 79.4847 13.5496 79.4847 16.5076V28.2124H73.7754V7.25191Z" fill="#505050"/>
<path d="M108.365 21.8034C107.745 25.9065 103.992 28.6577 98.8071 28.6577C92.3503 28.6577 88.4858 24.5388 88.4858 17.8276C88.4858 11.1164 92.3981 6.8066 98.5844 6.8066C104.771 6.8066 108.54 10.9256 108.54 17.3028V19.0362H94.0997V19.3861C94.0997 22.3759 95.9922 24.4274 98.9025 24.4274C101.002 24.4274 102.592 23.3937 103.117 21.7875H108.349L108.365 21.8034ZM94.1474 15.5534H103.037C102.926 12.8817 101.177 11.0369 98.6321 11.0369C96.0876 11.0369 94.3382 12.9294 94.1315 15.5534H94.1474Z" fill="#505050"/>
<path d="M118.956 24.6183H118.845V28.2124H113.215V0H118.925V10.8938H119.036C120.197 8.41284 122.519 6.91793 125.509 6.91793C130.788 6.91793 134.033 10.9574 134.033 17.7322C134.033 24.507 130.804 28.5464 125.524 28.5464C122.455 28.5464 120.117 27.0674 118.956 24.6183ZM118.893 17.7322C118.893 21.5172 120.769 23.9504 123.552 23.9504C126.336 23.9504 128.18 21.5649 128.18 17.7322C128.18 13.8995 126.383 11.4981 123.552 11.4981C120.722 11.4981 118.893 13.979 118.893 17.7322Z" fill="#505050"/>
<path d="M137.786 22.1851C137.786 18.3683 140.712 16.1577 145.945 15.8556L151.224 15.5375V14.1539C151.224 12.1978 149.857 11.0687 147.71 11.0687C145.563 11.0687 144.227 12.1183 143.957 13.6609H138.74C138.963 9.58968 142.414 6.8066 147.964 6.8066C153.514 6.8066 156.838 9.58968 156.838 13.804V28.2124H151.32V25H151.209C150.032 27.2264 147.439 28.5305 144.815 28.5305C140.824 28.5305 137.802 25.9542 137.802 22.1851H137.786ZM151.209 20.5311V19.0044L146.787 19.2748C144.656 19.4338 143.448 20.388 143.448 21.867C143.448 23.4255 144.736 24.4115 146.676 24.4115C149.157 24.4115 151.209 22.7894 151.209 20.5152V20.5311Z" fill="#505050"/>
<path d="M170.531 6.8066C175.906 6.8066 179.23 9.55787 179.341 13.6609H174.077C173.902 11.9593 172.63 10.8142 170.515 10.8142C168.543 10.8142 167.239 11.7207 167.239 13.1043C167.239 14.1857 168.018 14.9014 170.133 15.3467L173.712 16.11C178.085 17.0324 179.882 18.75 179.882 21.8193C179.882 25.9383 176.113 28.6577 170.722 28.6577C164.933 28.6577 161.593 25.9542 161.228 21.8352H166.794C167.144 23.68 168.448 24.6501 170.722 24.6501C172.869 24.6501 174.205 23.7754 174.205 22.4077C174.205 21.2945 173.489 20.6743 171.422 20.1972L167.843 19.4497C163.804 18.5909 161.752 16.5553 161.752 13.4065C161.752 9.41474 165.187 6.8066 170.531 6.8066Z" fill="#505050"/>
<path d="M54.9459 42.4459H54.0076V35.0986H54.9459V42.4459Z" fill="#505050"/>
<path d="M59.6533 37.1342H60.5439V37.8021C60.862 37.3886 61.4345 37.0229 62.1183 37.0229C63.327 37.0229 63.979 37.8021 63.979 38.9631V42.4459H63.0725V39.1062C63.0725 38.3587 62.7068 37.8498 61.8957 37.8498C61.2755 37.8498 60.7347 38.2633 60.5439 38.8358V42.43H59.6533V37.1183V37.1342Z" fill="#505050"/>
<path d="M68.2251 41.0782C68.7181 41.5394 69.3224 41.7938 69.9745 41.7938C70.5629 41.7938 71.0718 41.5712 71.0718 41.0464C71.0718 40.6488 70.7696 40.4421 70.3084 40.283L69.5769 40.0286C68.7817 39.7582 68.241 39.3765 68.241 38.5178C68.241 37.5795 69.068 37.0229 70.1176 37.0229C70.7219 37.0229 71.2626 37.1978 71.692 37.4841V38.4223C71.2467 38.0566 70.7537 37.7862 70.1176 37.7862C69.561 37.7862 69.1157 38.0248 69.1157 38.486C69.1157 38.9153 69.4019 39.0585 69.9108 39.2334L70.7219 39.5038C71.5171 39.7741 71.9624 40.2512 71.9624 40.9987C71.9624 41.9847 71.0877 42.5413 69.9745 42.5413C69.2747 42.5413 68.6227 42.3187 68.2251 42.0165V41.0623V41.0782Z" fill="#505050"/>
<path d="M77.7194 42.4459H76.8288V37.8975H75.7156V37.1342H76.8288V35.7347H77.7194V37.1342H78.9439V37.8975H77.7194V42.4459Z" fill="#505050"/>
<path d="M83.5242 36.1164C83.2061 36.1164 82.9517 35.846 82.9517 35.5439C82.9517 35.2417 83.222 34.9713 83.5242 34.9713C83.8263 34.9713 84.1126 35.2258 84.1126 35.5439C84.1126 35.8619 83.8422 36.1164 83.5242 36.1164ZM83.9854 42.4459H83.0948V37.1342H83.9854V42.4459Z" fill="#505050"/>
<path d="M90.0922 42.4459H89.2016V37.8975H88.0884V37.1342H89.2016V35.7347H90.0922V37.1342H91.3167V37.8975H90.0922V42.4459Z" fill="#505050"/>
<path d="M99.6819 42.4459H98.7754V41.7779C98.4732 42.1914 97.9166 42.5572 97.2328 42.5572C96.0241 42.5572 95.3721 41.7779 95.3721 40.617V37.1342H96.2786V40.4739C96.2786 41.2213 96.6443 41.7302 97.4395 41.7302C98.0597 41.7302 98.5686 41.3168 98.7595 40.7442V37.1501H99.666V42.4618L99.6819 42.4459Z" fill="#505050"/>
<path d="M105.805 42.4459H104.914V37.8975H103.801V37.1342H104.914V35.7347H105.805V37.1342H107.029V37.8975H105.805V42.4459Z" fill="#505050"/>
<path d="M110.75 38.9154H113.629V39.7582H110.75V38.9154Z" fill="#505050"/>
<path d="M118.972 42.4459H118.034V35.0986H118.972V42.4459Z" fill="#505050"/>
<path d="M123.68 37.1342H124.571V37.8021C124.889 37.3886 125.461 37.0229 126.129 37.0229C127.338 37.0229 127.99 37.8021 127.99 38.9631V42.4459H127.083V39.1062C127.083 38.3587 126.717 37.8498 125.906 37.8498C125.286 37.8498 124.745 38.2633 124.555 38.8358V42.43H123.664V37.1183L123.68 37.1342Z" fill="#505050"/>
<path d="M132.252 41.0782C132.745 41.5394 133.349 41.7938 134.001 41.7938C134.589 41.7938 135.098 41.5712 135.098 41.0464C135.098 40.6488 134.796 40.4421 134.335 40.283L133.603 40.0286C132.808 39.7582 132.268 39.3765 132.268 38.5178C132.268 37.5795 133.095 37.0229 134.144 37.0229C134.749 37.0229 135.289 37.1978 135.719 37.4841V38.4223C135.273 38.0566 134.78 37.7862 134.144 37.7862C133.588 37.7862 133.142 38.0248 133.142 38.486C133.142 38.9153 133.429 39.0585 133.937 39.2334L134.749 39.5038C135.544 39.7741 135.989 40.2512 135.989 40.9987C135.989 41.9847 135.114 42.5413 134.001 42.5413C133.301 42.5413 132.649 42.3187 132.252 42.0165V41.0623V41.0782Z" fill="#505050"/>
<path d="M141.746 42.4459H140.855V37.8975H139.742V37.1342H140.855V35.7347H141.746V37.1342H142.971V37.8975H141.746V42.4459Z" fill="#505050"/>
<path d="M147.551 36.1164C147.233 36.1164 146.978 35.846 146.978 35.5439C146.978 35.2417 147.249 34.9713 147.551 34.9713C147.853 34.9713 148.139 35.2258 148.139 35.5439C148.139 35.8619 147.869 36.1164 147.551 36.1164ZM148.012 42.4459H147.121V37.1342H148.012V42.4459Z" fill="#505050"/>
<path d="M154.135 42.4459H153.244V37.8975H152.131V37.1342H153.244V35.7347H154.135V37.1342H155.359V37.8975H154.135V42.4459Z" fill="#505050"/>
<path d="M163.724 42.4459H162.818V41.7779C162.516 42.1914 161.959 42.5572 161.275 42.5572C160.067 42.5572 159.415 41.7779 159.415 40.617V37.1342H160.321V40.4739C160.321 41.2213 160.687 41.7302 161.482 41.7302C162.102 41.7302 162.611 41.3168 162.802 40.7442V37.1501H163.708V42.4618L163.724 42.4459Z" fill="#505050"/>
<path d="M169.831 42.4459H168.941V37.8975H167.827V37.1342H168.941V35.7347H169.831V37.1342H171.056V37.8975H169.831V42.4459Z" fill="#505050"/>
<path d="M175.588 39.9491C175.62 41.1736 176.399 41.762 177.369 41.762C177.974 41.762 178.403 41.6189 178.88 41.2531V42.0801C178.451 42.4141 177.894 42.5413 177.274 42.5413C175.747 42.5413 174.714 41.5076 174.714 39.8218C174.714 38.1361 175.668 37.007 177.083 37.007C178.499 37.007 179.262 38.0407 179.262 39.5992V39.9173H175.604L175.588 39.9491ZM175.636 39.2493H178.371C178.34 38.4701 177.942 37.8021 177.083 37.8021C176.383 37.8021 175.811 38.2633 175.636 39.2493Z" fill="#505050"/>
</svg>
